<?xml version="1.0" encoding="UTF-8" standalone="no"?><!DOCTYPE svg PUBLIC "-//W3C//DTD SVG 1.1//EN" "http://www.w3.org/Graphics/SVG/1.1/DTD/svg11.dtd"><svg width="100%" height="100%" viewBox="0 0 4150 4150" version="1.1" xmlns="http://www.w3.org/2000/svg" xmlns:xlink="http://www.w3.org/1999/xlink" xml:space="preserve" xmlns:serif="http://www.serif.com/" style="fill-rule:evenodd;clip-rule:evenodd;stroke-miterlimit:10;"><path d="M3952.14,3002.35c-0,-0.768 -0.034,-1.519 -0.067,-2.291c-0.366,-8.328 -0.158,-26.976 0.067,-46.697c0.745,-63.255 0.504,-104.142 -2.637,-131.62c26.501,-41.604 40.838,-91.038 40.7,-141.563l0,-181.625c0,-38.991 16.333,-79.612 45.02,-113.277c136.21,-150.783 136.21,-469.771 0.954,-619.52c-29.641,-34.721 -45.974,-75.338 -45.974,-114.35l0,-181.483c0.138,-50.615 -14.199,-100.084 -40.7,-141.687c3.178,-27.513 3.42,-68.331 2.674,-131.621c-0.262,-19.737 -0.47,-38.385 -0.104,-46.606c0.033,-0.79 0.067,-1.592 0.067,-2.377c-0,-24.068 10.501,-49.649 28.637,-70.906c118.423,-130.531 118.456,-406.661 1.008,-536.102c-19.144,-22.351 -29.645,-47.932 -29.645,-72.017c-0,-0.785 -0.034,-1.553 -0.067,-2.321c4.824,-20.918 7.186,-42.372 6.977,-63.65c0,-149.213 -117.831,-270.604 -262.701,-270.604c-48.127,0 -95.338,13.748 -136.034,38.939c-60.295,-56.784 -154.296,-89.373 -258.656,-89.373c-105.523,0 -200.549,33.237 -259.627,90.159c-21.748,19.703 -46.586,30.537 -69.946,30.537c-0.762,0 -1.545,0.017 -2.308,0.052c-3.349,0.18 -7.968,0.214 -13.471,0.214c-8.851,0 -19.748,-0.141 -31.74,-0.283c-15.171,-0.18 -32.041,-0.395 -48.773,-0.395c-38.13,0 -62.377,1.146 -79.039,3.145c-40.213,-27.173 -88.045,-41.942 -137.405,-41.942l-176.339,-0c-37.868,-0 -77.302,-16.824 -109.967,-46.375c-68.38,-65.542 -176.527,-103.301 -297.149,-104.142l-0,-0.069c-0.296,0 -0.608,0.034 -0.887,0.034c-0.33,0 -0.604,-0.034 -0.9,-0.034l-0,0.069c-120.627,0.841 -228.77,38.6 -296.145,103.176c-33.69,30.538 -73.103,47.362 -110.976,47.362l-176.926,-0.021c-48.873,-0 -96.638,14.769 -136.834,41.942c-16.662,-1.982 -40.976,-3.128 -79.106,-3.128c-16.662,0 -33.465,0.198 -48.581,0.395c-11.992,0.142 -22.91,0.266 -31.778,0.266c-5.574,0 -10.205,-0.034 -13.625,-0.193c-0.746,-0.038 -1.492,-0.056 -2.237,-0.056c-23.347,0 -48.182,-10.851 -68.834,-29.533c-60.19,-57.943 -155.233,-91.163 -260.755,-91.163c-104.848,0 -199.249,32.859 -258.432,89.125c-40.004,-25.355 -85.374,-38.742 -132.964,-38.742c-71.317,-0 -141.208,30.087 -191.731,82.576c-48.494,50.439 -74.873,117.375 -74.265,187.616c-0.175,21.347 2.17,42.715 6.94,63.611l-0,2.811c-0,24.08 -10.535,49.666 -28.671,70.922c-118.402,130.531 -118.402,406.644 -0.987,536.064c19.123,22.385 29.658,47.966 29.658,72.051c-0,0.768 -0,1.519 0.037,2.287c0.379,8.332 0.171,26.959 -0.071,46.697c-0.729,63.255 -0.466,104.142 2.674,131.603c-26.537,41.603 -40.858,91.055 -40.7,141.562l0,181.626c0,39.012 -16.333,79.628 -45.057,113.277c-136.172,150.804 -136.172,469.792 -0.9,619.541c29.624,34.717 45.957,75.338 45.957,114.328l0,181.501c-0.158,50.615 14.163,100.066 40.7,141.67c-3.178,27.517 -3.403,68.348 -2.674,131.637c0.242,19.738 0.488,38.386 0.104,46.611c-0.07,0.786 -0.07,1.592 -0.07,2.377c-0,24.063 -10.535,49.632 -28.671,70.906c-118.402,130.531 -118.402,406.661 -0.987,536.102c19.123,22.346 29.658,47.928 29.658,71.995c-0,0.785 -0,1.554 0.037,2.322c-4.798,20.857 -7.139,42.234 -6.977,63.667c-0,149.229 117.865,270.625 262.734,270.625c48.111,-0 95.334,-13.769 136.035,-38.956c60.278,56.78 154.279,89.373 258.656,89.373c105.506,-0 200.548,-33.22 259.627,-90.163c21.747,-19.699 46.582,-30.533 69.929,-30.533c0.762,-0 1.541,-0.022 2.308,-0.056c3.349,-0.18 7.964,-0.215 13.466,-0.215c8.852,0 19.753,0.142 31.762,0.288c15.17,0.197 32.023,0.39 48.752,0.39c38.13,0 62.394,-1.141 79.055,-3.128c40.197,27.157 88.033,41.926 137.41,41.926l176.334,-0c37.873,-0 77.286,16.824 109.968,46.375c68.367,65.542 176.526,103.284 297.153,104.125l-0,0.09c0.296,0 0.57,-0.034 0.9,-0.034c0.279,-0 0.591,0.034 0.887,0.034l-0,-0.09c120.622,-0.841 228.752,-38.583 296.128,-103.16c33.686,-30.533 73.12,-47.357 110.988,-47.357l176.926,-0c48.861,-0 96.622,-14.752 136.835,-41.926c16.661,1.987 40.962,3.128 79.093,3.128c16.661,0 33.461,-0.197 48.577,-0.39c12.013,-0.146 22.91,-0.288 31.782,-0.288c5.569,0 10.205,0.052 13.621,0.215c0.75,0.034 1.495,0.051 2.241,0.051c23.36,0 48.198,10.835 68.834,29.521c60.207,57.96 155.233,91.18 260.755,91.18c104.848,-0 199.283,-32.864 258.432,-89.125c40.021,25.368 85.353,38.759 132.981,38.759c71.333,0 141.187,-30.108 191.693,-82.615c48.51,-50.417 74.894,-117.353 74.269,-187.615c0.171,-21.33 -2.137,-42.694 -6.91,-63.594l-0,-2.824c-0,-24.067 10.501,-49.649 28.637,-70.905c118.456,-130.531 118.456,-406.644 1.025,-536.085c-19.161,-22.381 -29.662,-47.95 -29.662,-72.03Z" style="fill:#532b3a;fill-rule:nonzero;stroke:#231f20;stroke-width:17.63px;"/><path d="M2132.58,180.627c-0,-32.735 -25.805,-59.321 -57.587,-59.321c-31.778,0 -57.587,26.586 -57.587,59.321c-0,32.751 25.809,59.32 57.587,59.32c31.782,0 57.587,-26.569 57.587,-59.32Zm-183.487,47.289c-0,-18.326 -14.454,-33.22 -32.261,-33.22c-17.808,0 -32.266,14.894 -32.266,33.22c0,18.343 14.458,33.215 32.262,33.215c17.811,-0 32.265,-14.872 32.265,-33.215Zm316.331,-0c-0,-18.326 -14.442,-33.22 -32.249,-33.22c-17.807,0 -32.261,14.894 -32.261,33.22c-0,18.343 14.454,33.215 32.261,33.215c17.807,-0 32.249,-14.872 32.249,-33.215Zm-248.018,3741.44c-0,32.739 25.809,59.32 57.587,59.32c31.799,0 57.587,-26.581 57.587,-59.32c-0,-32.735 -25.788,-59.299 -57.587,-59.299c-31.778,-0 -57.587,26.564 -57.587,59.299Zm183.524,-47.285c0,18.343 14.438,33.215 32.245,33.215c17.807,0 32.265,-14.872 32.265,-33.215c0,-18.326 -14.458,-33.219 -32.265,-33.219c-17.807,-0 -32.245,14.893 -32.245,33.219Zm-316.364,0c0,18.343 14.458,33.215 32.262,33.215c17.811,0 32.265,-14.872 32.265,-33.215c-0,-18.326 -14.454,-33.219 -32.261,-33.219c-17.808,-0 -32.266,14.893 -32.266,33.219Z" style="fill:#ff7f30;stroke:#231f20;stroke-width:17.63px;"/><rect x="424.649" y="374.983" width="3300.7" height="3400.03" style="fill:#ff7f30;stroke:#231f20;stroke-width:17.63px;"/><ellipse cx="189.34" cy="2075" rx="57.57" ry="59.338" style="fill:#ff7f30;stroke:#231f20;stroke-width:17.63px;"/><ellipse cx="235.247" cy="2237.94" rx="32.249" ry="33.237" style="fill:#ff7f30;stroke:#231f20;stroke-width:17.63px;"/><ellipse cx="235.247" cy="1912.07" rx="32.249" ry="33.219" style="fill:#ff7f30;stroke:#231f20;stroke-width:17.63px;"/><path d="M3960.65,2134.32c-31.795,0 -57.587,-26.568 -57.587,-59.32c-0,-32.756 25.792,-59.338 57.587,-59.338c31.794,0 57.587,26.582 57.587,59.338c-0,32.752 -25.793,59.32 -57.587,59.32Zm-45.891,-189.031c-17.807,-0 -32.261,-14.872 -32.261,-33.215c-0,-18.361 14.454,-33.254 32.261,-33.254c17.807,0 32.249,14.893 32.249,33.254c-0,18.343 -14.442,33.215 -32.249,33.215Zm0,325.869c-17.807,0 -32.261,-14.871 -32.261,-33.215c-0,-18.36 14.454,-33.236 32.261,-33.236c17.807,-0 32.249,14.876 32.249,33.236c-0,18.344 -14.442,33.215 -32.249,33.215Z" style="fill:#ff7f30;fill-rule:nonzero;stroke:#231f20;stroke-width:17.63px;"/></svg>