<?xml version="1.0" encoding="UTF-8" standalone="no"?><!DOCTYPE svg PUBLIC "-//W3C//DTD SVG 1.1//EN" "http://www.w3.org/Graphics/SVG/1.1/DTD/svg11.dtd"><svg width="100%" height="100%" viewBox="0 0 1042 1042" version="1.1" xmlns="http://www.w3.org/2000/svg" xmlns:xlink="http://www.w3.org/1999/xlink" xml:space="preserve" xmlns:serif="http://www.serif.com/" style="fill-rule:evenodd;clip-rule:evenodd;stroke-miterlimit:10;"><rect x="436.526" y="247.67" width="168.296" height="376.671" style="fill:#fff;stroke:#231f20;stroke-width:2.08px;"/><path d="M585.097,310.584l-61.6,0l27.344,-62.258l6.91,0l27.346,62.258Z" style="fill:#fff;fill-rule:nonzero;stroke:#231f20;stroke-width:2.08px;"/><path d="M554.295,293.845c-0,-0 20.002,8.179 20.002,25.425l-0,120.527l-40.004,-0l-0,-120.527c-0,-17.246 20.002,-25.425 20.002,-25.425Z" style="fill:#fff;fill-rule:nonzero;stroke:#231f20;stroke-width:2.08px;"/><rect x="534.295" y="426.272" width="40.002" height="13.523" style="fill:#fff;stroke:#231f20;stroke-width:2.08px;"/><path d="M554.295,329.297c-0,-0 4.558,1.864 4.558,5.796l0,91.179l-9.119,-0l0,-91.179c0,-3.932 4.561,-5.796 4.561,-5.796Z" style="fill:#fff;fill-rule:nonzero;stroke:#231f20;stroke-width:2.08px;"/><path d="M564.103,336.091c0,-0 4.561,1.864 4.561,5.798l-0,84.385l-9.121,-0l-0,-84.385c-0,-3.934 4.56,-5.798 4.56,-5.798Z" style="fill:#fff;fill-rule:nonzero;stroke:#231f20;stroke-width:2.08px;"/><path d="M544.484,336.091c0,-0 4.561,1.864 4.561,5.798l-0,84.385l-9.119,-0l0,-84.385c0,-3.934 4.558,-5.798 4.558,-5.798Z" style="fill:#fff;fill-rule:nonzero;stroke:#231f20;stroke-width:2.08px;"/><path d="M560.447,310.384c-0,2.082 -1.69,3.769 -3.771,3.769c-0.906,0 -1.731,-0.333 -2.379,-0.869c-0.652,0.536 -1.473,0.869 -2.381,0.869c-2.084,0 -3.769,-1.687 -3.769,-3.769c-0,-1.602 1.004,-2.962 2.414,-3.508c0.171,-1.923 1.769,-3.435 3.736,-3.435c1.967,-0 3.562,1.512 3.735,3.435c1.411,0.546 2.415,1.906 2.415,3.508" style="fill:#fff;fill-rule:nonzero;"/><path d="M560.447,310.384c-0,2.082 -1.69,3.769 -3.771,3.769c-0.906,0 -1.731,-0.333 -2.379,-0.869c-0.652,0.536 -1.473,0.869 -2.381,0.869c-2.084,0 -3.769,-1.687 -3.769,-3.769c-0,-1.602 1.004,-2.962 2.414,-3.508c0.171,-1.923 1.769,-3.435 3.736,-3.435c1.967,-0 3.562,1.512 3.735,3.435c1.411,0.546 2.415,1.906 2.415,3.508Z" style="fill:#fff;fill-rule:nonzero;stroke:#231f20;stroke-width:2.08px;"/><path d="M539.601,321.684c0,-2.083 1.688,-3.77 3.769,-3.77c0.908,-0 1.731,0.335 2.379,0.868c0.652,-0.533 1.473,-0.868 2.381,-0.868c2.084,-0 3.769,1.687 3.769,3.77c-0,1.602 -1.002,2.963 -2.415,3.509c-0.17,1.921 -1.766,3.435 -3.733,3.435c-1.967,0 -3.565,-1.514 -3.737,-3.435c-1.411,-0.546 -2.413,-1.907 -2.413,-3.509" style="fill:#fff;fill-rule:nonzero;"/><path d="M539.601,321.684c0,-2.083 1.688,-3.77 3.769,-3.77c0.908,-0 1.731,0.335 2.379,0.868c0.652,-0.533 1.473,-0.868 2.381,-0.868c2.084,-0 3.769,1.687 3.769,3.77c-0,1.602 -1.002,2.963 -2.415,3.509c-0.17,1.921 -1.766,3.435 -3.733,3.435c-1.967,0 -3.565,-1.514 -3.737,-3.435c-1.411,-0.546 -2.413,-1.907 -2.413,-3.509Z" style="fill:#fff;fill-rule:nonzero;stroke:#231f20;stroke-width:2.08px;"/><path d="M556.691,321.684c-0,-2.083 1.689,-3.77 3.77,-3.77c0.907,-0 1.73,0.335 2.38,0.868c0.652,-0.533 1.47,-0.868 2.381,-0.868c2.081,-0 3.769,1.687 3.769,3.77c-0,1.602 -1.005,2.963 -2.415,3.509c-0.173,1.921 -1.769,3.435 -3.735,3.435c-1.967,0 -3.565,-1.514 -3.736,-3.435c-1.41,-0.546 -2.414,-1.907 -2.414,-3.509" style="fill:#fff;fill-rule:nonzero;"/><path d="M556.691,321.684c-0,-2.083 1.689,-3.77 3.77,-3.77c0.907,-0 1.73,0.335 2.38,0.868c0.652,-0.533 1.47,-0.868 2.381,-0.868c2.081,-0 3.769,1.687 3.769,3.77c-0,1.602 -1.005,2.963 -2.415,3.509c-0.173,1.921 -1.769,3.435 -3.735,3.435c-1.967,0 -3.565,-1.514 -3.736,-3.435c-1.41,-0.546 -2.414,-1.907 -2.414,-3.509Z" style="fill:#fff;fill-rule:nonzero;stroke:#231f20;stroke-width:2.08px;"/><path d="M517.509,310.584l-61.6,0l27.346,-62.258l6.911,0l27.343,62.258Z" style="fill:#fff;fill-rule:nonzero;stroke:#231f20;stroke-width:2.08px;"/><path d="M486.709,293.845c0,-0 20.002,8.179 20.002,25.425l0,120.527l-40.004,-0l0,-120.527c0,-17.246 20.002,-25.425 20.002,-25.425Z" style="fill:#fff;fill-rule:nonzero;stroke:#231f20;stroke-width:2.08px;"/><rect x="466.707" y="426.272" width="40.002" height="13.523" style="fill:#fff;stroke:#231f20;stroke-width:2.08px;"/><path d="M486.709,329.297c0,-0 4.561,1.864 4.561,5.796l-0,91.179l-9.119,-0l0,-91.179c0,-3.932 4.558,-5.796 4.558,-5.796Z" style="fill:#fff;fill-rule:nonzero;stroke:#231f20;stroke-width:2.08px;"/><path d="M496.52,336.091c-0,-0 4.558,1.864 4.558,5.798l0,84.385l-9.119,-0l0,-84.385c0,-3.934 4.561,-5.798 4.561,-5.798Z" style="fill:#fff;fill-rule:nonzero;stroke:#231f20;stroke-width:2.08px;"/><path d="M476.901,336.091c0,-0 4.558,1.864 4.558,5.798l0,84.385l-9.118,-0l-0,-84.385c-0,-3.934 4.56,-5.798 4.56,-5.798Z" style="fill:#fff;fill-rule:nonzero;stroke:#231f20;stroke-width:2.08px;"/><path d="M492.859,310.384c0,2.082 -1.689,3.769 -3.768,3.769c-0.909,0 -1.732,-0.333 -2.382,-0.869c-0.65,0.536 -1.47,0.869 -2.381,0.869c-2.081,0 -3.769,-1.687 -3.769,-3.769c0,-1.602 1.005,-2.962 2.415,-3.508c0.173,-1.923 1.769,-3.435 3.735,-3.435c1.967,-0 3.565,1.512 3.736,3.435c1.41,0.546 2.414,1.906 2.414,3.508" style="fill:#fff;fill-rule:nonzero;"/><path d="M492.859,310.384c0,2.082 -1.689,3.769 -3.768,3.769c-0.909,0 -1.732,-0.333 -2.382,-0.869c-0.65,0.536 -1.47,0.869 -2.381,0.869c-2.081,0 -3.769,-1.687 -3.769,-3.769c0,-1.602 1.005,-2.962 2.415,-3.508c0.173,-1.923 1.769,-3.435 3.735,-3.435c1.967,-0 3.565,1.512 3.736,3.435c1.41,0.546 2.414,1.906 2.414,3.508Z" style="fill:#fff;fill-rule:nonzero;stroke:#231f20;stroke-width:2.08px;"/><path d="M472.014,321.684c-0,-2.083 1.689,-3.77 3.77,-3.77c0.907,-0 1.73,0.335 2.38,0.868c0.652,-0.533 1.472,-0.868 2.381,-0.868c2.081,-0 3.769,1.687 3.769,3.77c-0,1.602 -1.005,2.963 -2.415,3.509c-0.171,1.921 -1.769,3.435 -3.735,3.435c-1.967,0 -3.565,-1.514 -3.736,-3.435c-1.41,-0.546 -2.414,-1.907 -2.414,-3.509" style="fill:#fff;fill-rule:nonzero;"/><path d="M472.014,321.684c-0,-2.083 1.689,-3.77 3.77,-3.77c0.907,-0 1.73,0.335 2.38,0.868c0.652,-0.533 1.472,-0.868 2.381,-0.868c2.081,-0 3.769,1.687 3.769,3.77c-0,1.602 -1.005,2.963 -2.415,3.509c-0.171,1.921 -1.769,3.435 -3.735,3.435c-1.967,0 -3.565,-1.514 -3.736,-3.435c-1.41,-0.546 -2.414,-1.907 -2.414,-3.509Z" style="fill:#fff;fill-rule:nonzero;stroke:#231f20;stroke-width:2.08px;"/><path d="M489.105,321.684c0,-2.083 1.688,-3.77 3.769,-3.77c0.908,-0 1.731,0.335 2.379,0.868c0.652,-0.533 1.473,-0.868 2.381,-0.868c2.084,-0 3.769,1.687 3.769,3.77c0,1.602 -1.004,2.963 -2.414,3.509c-0.171,1.921 -1.767,3.435 -3.734,3.435c-1.969,0 -3.564,-1.514 -3.735,-3.435c-1.413,-0.546 -2.415,-1.907 -2.415,-3.509" style="fill:#fff;fill-rule:nonzero;"/><path d="M489.105,321.684c0,-2.083 1.688,-3.77 3.769,-3.77c0.908,-0 1.731,0.335 2.379,0.868c0.652,-0.533 1.473,-0.868 2.381,-0.868c2.084,-0 3.769,1.687 3.769,3.77c0,1.602 -1.004,2.963 -2.414,3.509c-0.171,1.921 -1.767,3.435 -3.734,3.435c-1.969,0 -3.564,-1.514 -3.735,-3.435c-1.413,-0.546 -2.415,-1.907 -2.415,-3.509Z" style="fill:#fff;fill-rule:nonzero;stroke:#231f20;stroke-width:2.08px;"/><path d="M532.934,246.811l0,-32.945c0,-2.782 -2.254,-5.036 -5.037,-5.036l-13.588,0c-2.779,0 -5.033,2.254 -5.033,5.036l0,32.945l23.66,0l-0.002,0Z" style="fill:#fff;fill-rule:nonzero;stroke:#231f20;stroke-width:2.08px;"/><path d="M532.934,239.668l-23.658,-0" style="fill:none;fill-rule:nonzero;stroke:#231f20;stroke-width:2.08px;"/><path d="M532.934,219.884l-23.658,0" style="fill:none;fill-rule:nonzero;stroke:#231f20;stroke-width:2.08px;"/><path d="M523.47,185.945l-4.734,-0c-2.066,-0 -3.741,1.677 -3.741,3.744l-0,19.15l12.219,-0l-0,-19.15c-0,-2.067 -1.675,-3.744 -3.746,-3.744l0.002,-0Z" style="fill:#fff;fill-rule:nonzero;stroke:#231f20;stroke-width:2.08px;"/><path d="M524.305,185.945l-6.4,-0l1.154,-33.517c0.04,-1.102 0.944,-1.975 2.046,-1.975c1.1,0 2.004,0.873 2.042,1.975l1.158,33.517Z" style="fill:#fff;fill-rule:nonzero;stroke:#231f20;stroke-width:2.08px;"/><path d="M523.916,162.478l-5.625,0c-1.071,0 -1.94,-0.869 -1.94,-1.939c0,-1.071 0.869,-1.94 1.94,-1.94l5.625,-0c1.07,-0 1.939,0.869 1.939,1.94c0,1.07 -0.869,1.939 -1.939,1.939Z" style="fill:#fff;fill-rule:nonzero;stroke:#231f20;stroke-width:2.08px;"/><path d="M460.728,246.811l0,-32.945c0,-2.782 -2.254,-5.036 -5.035,-5.036l-13.588,0c-2.781,0 -5.037,2.254 -5.037,5.036l-0,32.945l23.66,0Z" style="fill:#fff;fill-rule:nonzero;stroke:#231f20;stroke-width:2.08px;"/><path d="M460.728,239.668l-23.66,-0" style="fill:none;fill-rule:nonzero;stroke:#231f20;stroke-width:2.08px;"/><path d="M460.728,219.884l-23.66,0" style="fill:none;fill-rule:nonzero;stroke:#231f20;stroke-width:2.08px;"/><path d="M451.264,185.945l-4.732,-0c-2.068,-0 -3.741,1.677 -3.741,3.744l-0,19.15l12.216,-0l0,-19.15c0,-2.067 -1.677,-3.744 -3.743,-3.744Z" style="fill:#fff;fill-rule:nonzero;stroke:#231f20;stroke-width:2.08px;"/><path d="M452.099,185.945l-6.4,-0l1.156,-33.517c0.04,-1.102 0.944,-1.975 2.044,-1.975c1.102,0 2.006,0.873 2.044,1.975l1.156,33.517Z" style="fill:#fff;fill-rule:nonzero;stroke:#231f20;stroke-width:2.08px;"/><path d="M451.709,162.478l-5.623,0c-1.07,0 -1.939,-0.869 -1.939,-1.939c-0,-1.071 0.869,-1.94 1.939,-1.94l5.623,-0c1.073,-0 1.942,0.869 1.942,1.94c0,1.07 -0.869,1.939 -1.942,1.939Z" style="fill:#fff;fill-rule:nonzero;stroke:#231f20;stroke-width:2.08px;"/><path d="M605.141,246.811l-0,-32.945c-0,-2.782 -2.255,-5.036 -5.038,-5.036l-13.587,0c-2.782,0 -5.036,2.254 -5.036,5.036l0,32.945l23.661,0Z" style="fill:#fff;fill-rule:nonzero;stroke:#231f20;stroke-width:2.08px;"/><path d="M605.141,239.668l-23.661,-0" style="fill:none;fill-rule:nonzero;stroke:#231f20;stroke-width:2.08px;"/><path d="M605.141,219.884l-23.661,0" style="fill:none;fill-rule:nonzero;stroke:#231f20;stroke-width:2.08px;"/><path d="M595.674,185.945l-4.731,-0c-2.067,-0 -3.742,1.677 -3.742,3.744l0,19.15l12.219,-0l-0,-19.15c-0,-2.067 -1.677,-3.744 -3.746,-3.744Z" style="fill:#fff;fill-rule:nonzero;stroke:#231f20;stroke-width:2.08px;"/><path d="M596.509,185.945l-6.4,-0l1.155,-33.517c0.039,-1.102 0.943,-1.975 2.045,-1.975c1.1,0 2.007,0.873 2.042,1.975l1.158,33.517Z" style="fill:#fff;fill-rule:nonzero;stroke:#231f20;stroke-width:2.08px;"/><path d="M596.122,162.478l-5.623,0c-1.073,0 -1.94,-0.869 -1.94,-1.939c0,-1.071 0.867,-1.94 1.94,-1.94l5.623,-0c1.073,-0 1.939,0.869 1.939,1.94c0,1.07 -0.866,1.939 -1.939,1.939Z" style="fill:#fff;fill-rule:nonzero;stroke:#231f20;stroke-width:2.08px;"/><path d="M566.309,246.811l0,-27.379c0,-2.31 -1.873,-4.185 -4.185,-4.185l-11.294,-0c-2.31,-0 -4.183,1.875 -4.183,4.185l-0,27.379l19.662,0Z" style="fill:#fff;fill-rule:nonzero;stroke:#231f20;stroke-width:2.08px;"/><path d="M566.309,240.874l-19.662,-0" style="fill:none;fill-rule:nonzero;stroke:#231f20;stroke-width:2.08px;"/><path d="M566.309,224.434l-19.662,0" style="fill:none;fill-rule:nonzero;stroke:#231f20;stroke-width:2.08px;"/><path d="M558.443,196.226l-3.932,0c-1.718,0 -3.11,1.394 -3.11,3.113l0,15.914l10.154,0l0,-15.914c0,-1.719 -1.394,-3.113 -3.112,-3.113Z" style="fill:#fff;fill-rule:nonzero;stroke:#231f20;stroke-width:2.08px;"/><path d="M559.136,196.226l-5.318,0l0.962,-27.854c0.031,-0.915 0.781,-1.642 1.698,-1.642c0.915,0 1.665,0.727 1.698,1.642l0.96,27.854Z" style="fill:#fff;fill-rule:nonzero;stroke:#231f20;stroke-width:2.08px;"/><path d="M558.814,176.726l-4.675,0c-0.89,0 -1.613,-0.723 -1.613,-1.61l0,-0.002c0,-0.89 0.723,-1.611 1.613,-1.611l4.675,0c0.891,0 1.61,0.721 1.61,1.611l-0,0.002c-0,0.887 -0.719,1.61 -1.61,1.61Z" style="fill:#fff;fill-rule:nonzero;stroke:#231f20;stroke-width:2.08px;"/><path d="M495.561,246.811l0,-27.379c0,-2.31 -1.87,-4.185 -4.185,-4.185l-11.294,-0c-2.31,-0 -4.183,1.875 -4.183,4.185l-0,27.379l19.662,0Z" style="fill:#fff;fill-rule:nonzero;stroke:#231f20;stroke-width:2.08px;"/><path d="M495.561,240.874l-19.662,-0" style="fill:none;fill-rule:nonzero;stroke:#231f20;stroke-width:2.08px;"/><path d="M495.561,224.434l-19.662,0" style="fill:none;fill-rule:nonzero;stroke:#231f20;stroke-width:2.08px;"/><path d="M487.697,196.226l-3.931,0c-1.719,0 -3.113,1.394 -3.113,3.113l0,15.914l10.154,0l0,-15.914c0,-1.719 -1.391,-3.113 -3.11,-3.113Z" style="fill:#fff;fill-rule:nonzero;stroke:#231f20;stroke-width:2.08px;"/><path d="M488.391,196.226l-5.319,0l0.96,-27.854c0.034,-0.915 0.784,-1.642 1.7,-1.642c0.915,0 1.665,0.727 1.696,1.642l0.963,27.854Z" style="fill:#fff;fill-rule:nonzero;stroke:#231f20;stroke-width:2.08px;"/><path d="M488.068,176.726l-4.675,0c-0.89,0 -1.613,-0.723 -1.613,-1.61l0,-0.002c0,-0.89 0.723,-1.611 1.613,-1.611l4.675,0c0.889,0 1.61,0.721 1.61,1.611l0,0.002c0,0.887 -0.721,1.61 -1.61,1.61Z" style="fill:#fff;fill-rule:nonzero;stroke:#231f20;stroke-width:2.08px;"/><path d="M521.105,150.453l0,-58.479" style="fill:none;fill-rule:nonzero;stroke:#231f20;stroke-width:2.08px;"/><path d="M264.034,771.68l0,-47.854c0,-4.04 -3.273,-7.315 -7.314,-7.315l-19.738,0c-4.041,0 -7.314,3.275 -7.314,7.315l-0,64.483l34.366,-16.629Z" style="fill:#fff;fill-rule:nonzero;stroke:#231f20;stroke-width:2.08px;"/><path d="M264.034,761.305l-34.366,0" style="fill:none;fill-rule:nonzero;stroke:#231f20;stroke-width:2.08px;"/><path d="M264.034,732.57l-34.366,-0" style="fill:none;fill-rule:nonzero;stroke:#231f20;stroke-width:2.08px;"/><rect x="237.976" y="683.27" width="17.75" height="33.256" style="fill:#fff;stroke:#231f20;stroke-width:2.08px;"/><path d="M251.501,683.27l-9.298,-0l1.681,-48.684c0.055,-1.602 1.369,-2.868 2.969,-2.868c1.6,-0 2.913,1.266 2.967,2.868l1.681,48.684Z" style="fill:#fff;fill-rule:nonzero;stroke:#231f20;stroke-width:2.08px;"/><path d="M250.936,649.182l-8.17,0c-1.555,0 -2.815,-1.26 -2.815,-2.818c0,-1.555 1.26,-2.815 2.815,-2.815l8.17,-0c1.557,-0 2.817,1.26 2.817,2.815c0,1.558 -1.26,2.818 -2.817,2.818Z" style="fill:#fff;fill-rule:nonzero;stroke:#231f20;stroke-width:2.08px;"/><path d="M391.407,729.957l-69.864,-33.806l-69.865,33.806l0,219.736l139.729,-0l0,-219.736Z" style="fill:#fff;fill-rule:nonzero;stroke:#231f20;stroke-width:2.08px;"/><path d="M321.543,732.024c-0,-0 -42.257,17.277 -42.257,53.71l0,103.671l84.513,0l-0,-103.671c-0,-36.433 -42.256,-53.71 -42.256,-53.71Z" style="fill:#fff;fill-rule:nonzero;stroke:#231f20;stroke-width:2.08px;"/><path d="M291.734,812.351c0,0 -4.56,1.867 -4.56,5.798l-0,63.746l9.119,-0l-0,-63.746c-0,-3.931 -4.559,-5.798 -4.559,-5.798Z" style="fill:#fff;fill-rule:nonzero;stroke:#231f20;stroke-width:2.08px;"/><path d="M306.636,812.351c0,0 -4.558,1.867 -4.558,5.798l0,63.746l9.119,-0l-0,-63.746c-0,-3.931 -4.561,-5.798 -4.561,-5.798Z" style="fill:#fff;fill-rule:nonzero;stroke:#231f20;stroke-width:2.08px;"/><path d="M321.543,805.559c-0,0 -4.561,1.865 -4.561,5.796l0,70.54l9.121,-0l0,-70.54c0,-3.931 -4.56,-5.796 -4.56,-5.796Z" style="fill:#fff;fill-rule:nonzero;stroke:#231f20;stroke-width:2.08px;"/><path d="M336.447,812.351c-0,0 -4.561,1.867 -4.561,5.798l0,63.746l9.119,-0l0,-63.746c0,-3.931 -4.558,-5.798 -4.558,-5.798Z" style="fill:#fff;fill-rule:nonzero;stroke:#231f20;stroke-width:2.08px;"/><path d="M351.349,812.351c-0,0 -4.558,1.867 -4.558,5.798l-0,63.746l9.118,-0l0,-63.746c0,-3.931 -4.56,-5.798 -4.56,-5.798Z" style="fill:#fff;fill-rule:nonzero;stroke:#231f20;stroke-width:2.08px;"/><path d="M302.759,799.414c0,-2.082 -1.687,-3.771 -3.768,-3.771c-0.907,-0 -1.73,0.335 -2.38,0.868c-0.652,-0.533 -1.472,-0.868 -2.381,-0.868c-2.083,-0 -3.769,1.689 -3.769,3.771c0,1.602 1.005,2.962 2.415,3.508c0.171,1.921 1.767,3.433 3.735,3.433c1.967,0 3.565,-1.512 3.736,-3.433c1.41,-0.546 2.412,-1.906 2.412,-3.508" style="fill:#fff;fill-rule:nonzero;"/><path d="M302.759,799.414c0,-2.082 -1.687,-3.771 -3.768,-3.771c-0.907,-0 -1.73,0.335 -2.38,0.868c-0.652,-0.533 -1.472,-0.868 -2.381,-0.868c-2.083,-0 -3.769,1.689 -3.769,3.771c0,1.602 1.005,2.962 2.415,3.508c0.171,1.921 1.767,3.433 3.735,3.433c1.967,0 3.565,-1.512 3.736,-3.433c1.41,-0.546 2.412,-1.906 2.412,-3.508Z" style="fill:#fff;fill-rule:nonzero;stroke:#231f20;stroke-width:2.08px;"/><path d="M352.624,799.414c-0,-2.082 -1.688,-3.771 -3.771,-3.771c-0.906,-0 -1.729,0.335 -2.379,0.868c-0.652,-0.533 -1.471,-0.868 -2.381,-0.868c-2.082,-0 -3.767,1.689 -3.767,3.771c0,1.602 1.002,2.962 2.413,3.508c0.172,1.921 1.768,3.433 3.735,3.433c1.967,0 3.565,-1.512 3.735,-3.433c1.411,-0.546 2.415,-1.906 2.415,-3.508" style="fill:#fff;fill-rule:nonzero;"/><path d="M352.624,799.414c-0,-2.082 -1.688,-3.771 -3.771,-3.771c-0.906,-0 -1.729,0.335 -2.379,0.868c-0.652,-0.533 -1.471,-0.868 -2.381,-0.868c-2.082,-0 -3.767,1.689 -3.767,3.771c0,1.602 1.002,2.962 2.413,3.508c0.172,1.921 1.768,3.433 3.735,3.433c1.967,0 3.565,-1.512 3.735,-3.433c1.411,-0.546 2.415,-1.906 2.415,-3.508Z" style="fill:#fff;fill-rule:nonzero;stroke:#231f20;stroke-width:2.08px;"/><path d="M344.361,772.214c0,12.602 -10.216,22.818 -22.818,22.818c-12.602,0 -22.819,-10.216 -22.819,-22.818c-0,-12.603 10.217,-22.819 22.819,-22.819c12.602,-0 22.818,10.216 22.818,22.819" style="fill:#fff;fill-rule:nonzero;"/><path d="M344.361,772.214c0,-12.594 -10.225,-22.819 -22.818,-22.819c-12.594,-0 -22.819,10.225 -22.819,22.819c-0,12.593 10.225,22.818 22.819,22.818c12.593,0 22.818,-10.225 22.818,-22.818Z" style="fill:#fff;stroke:#231f20;stroke-width:2.08px;"/><path d="M304.405,767.599c0,2.081 1.688,3.771 3.771,3.771c0.906,-0 1.729,-0.338 2.379,-0.869c0.652,0.531 1.473,0.869 2.381,0.869c2.082,-0 3.769,-1.69 3.769,-3.771c0,-1.604 -1.004,-2.963 -2.414,-3.508c-0.171,-1.921 -1.769,-3.436 -3.736,-3.436c-1.966,0 -3.564,1.515 -3.735,3.436c-1.411,0.545 -2.415,1.904 -2.415,3.508" style="fill:#fff;fill-rule:nonzero;"/><path d="M304.405,767.599c0,2.081 1.688,3.771 3.771,3.771c0.906,-0 1.729,-0.338 2.379,-0.869c0.652,0.531 1.473,0.869 2.381,0.869c2.082,-0 3.769,-1.69 3.769,-3.771c0,-1.604 -1.004,-2.963 -2.414,-3.508c-0.171,-1.921 -1.769,-3.436 -3.736,-3.436c-1.966,0 -3.564,1.515 -3.735,3.436c-1.411,0.545 -2.415,1.904 -2.415,3.508Z" style="fill:#fff;fill-rule:nonzero;stroke:#231f20;stroke-width:2.08px;"/><path d="M326.38,767.599c0,2.081 1.688,3.771 3.769,3.771c0.906,-0 1.729,-0.338 2.379,-0.869c0.652,0.531 1.473,0.869 2.381,0.869c2.082,-0 3.769,-1.69 3.769,-3.771c0,-1.604 -1.004,-2.963 -2.414,-3.508c-0.171,-1.921 -1.767,-3.436 -3.736,-3.436c-1.967,0 -3.564,1.515 -3.735,3.436c-1.411,0.545 -2.413,1.904 -2.413,3.508" style="fill:#fff;fill-rule:nonzero;"/><path d="M326.38,767.599c0,2.081 1.688,3.771 3.769,3.771c0.906,-0 1.729,-0.338 2.379,-0.869c0.652,0.531 1.473,0.869 2.381,0.869c2.082,-0 3.769,-1.69 3.769,-3.771c0,-1.604 -1.004,-2.963 -2.414,-3.508c-0.171,-1.921 -1.767,-3.436 -3.736,-3.436c-1.967,0 -3.564,1.515 -3.735,3.436c-1.411,0.545 -2.413,1.904 -2.413,3.508Z" style="fill:#fff;fill-rule:nonzero;stroke:#231f20;stroke-width:2.08px;"/><path d="M315.393,784.172c-0,2.081 1.689,3.771 3.771,3.771c0.906,-0 1.729,-0.338 2.379,-0.869c0.652,0.531 1.473,0.869 2.381,0.869c2.081,-0 3.769,-1.69 3.769,-3.771c-0,-1.604 -1.004,-2.963 -2.415,-3.508c-0.171,-1.921 -1.769,-3.436 -3.735,-3.436c-1.967,0 -3.565,1.515 -3.736,3.436c-1.41,0.545 -2.414,1.904 -2.414,3.508" style="fill:#fff;fill-rule:nonzero;"/><path d="M315.393,784.172c-0,2.081 1.689,3.771 3.771,3.771c0.906,-0 1.729,-0.338 2.379,-0.869c0.652,0.531 1.473,0.869 2.381,0.869c2.081,-0 3.769,-1.69 3.769,-3.771c-0,-1.604 -1.004,-2.963 -2.415,-3.508c-0.171,-1.921 -1.769,-3.436 -3.735,-3.436c-1.967,0 -3.565,1.515 -3.736,3.436c-1.41,0.545 -2.414,1.904 -2.414,3.508Z" style="fill:#fff;fill-rule:nonzero;stroke:#231f20;stroke-width:2.08px;"/><path d="M391.089,905.932l-170.155,0" style="fill:none;fill-rule:nonzero;stroke:#231f20;stroke-width:2.08px;"/><path d="M391.089,930.161l-170.155,0" style="fill:none;fill-rule:nonzero;stroke:#231f20;stroke-width:2.08px;"/><path d="M391.089,940.301l-170.155,0" style="fill:none;fill-rule:nonzero;stroke:#231f20;stroke-width:2.08px;"/><path d="M321.543,696.151l-69.865,33.806l0,10.704l69.865,-33.804l69.864,33.804l0,-10.704l-69.864,-33.806Z" style="fill:#fff;fill-rule:nonzero;stroke:#231f20;stroke-width:2.08px;"/><path d="M220.934,793.249l0,156.444l30.744,-0l0,-171.321l-30.744,14.877Z" style="fill:#fff;fill-rule:nonzero;stroke:#231f20;stroke-width:2.08px;"/><path d="M293.37,709.782l2.806,-1.356l-2.806,1.356Z" style="fill:#fff;fill-rule:nonzero;stroke:#231f20;stroke-width:2.08px;"/><path d="M308.826,674.178l0,28.125l12.717,-6.152l69.864,33.804l0,50.146l0,-105.923l-82.581,0Z" style="fill:#fff;fill-rule:nonzero;stroke:#231f20;stroke-width:2.08px;"/><path d="M293.341,602.626l6.793,44.508l-6,0c4.038,0 14.107,3.277 14.107,7.317l-0,18.333l0.587,1.396l82.579,0l0,-71.554l-98.066,0Z" style="fill:#fff;fill-rule:nonzero;stroke:#231f20;stroke-width:2.08px;"/><path d="M308.241,702.303l-0,-47.854c-0,-4.04 -3.275,-7.315 -7.315,-7.315l-19.737,0c-4.042,0 -7.317,3.275 -7.317,7.315l-0,64.483l34.369,-16.629Z" style="fill:#fff;fill-rule:nonzero;stroke:#231f20;stroke-width:2.08px;"/><path d="M308.241,691.926l-34.369,0" style="fill:none;fill-rule:nonzero;stroke:#231f20;stroke-width:2.08px;"/><path d="M308.241,663.193l-34.369,-0" style="fill:none;fill-rule:nonzero;stroke:#231f20;stroke-width:2.08px;"/><rect x="282.182" y="613.893" width="17.748" height="33.256" style="fill:#fff;stroke:#231f20;stroke-width:2.08px;"/><path d="M295.703,613.893l-9.296,-0l1.682,-48.686c0.054,-1.6 1.366,-2.866 2.968,-2.866c1.598,-0 2.913,1.266 2.967,2.866l1.679,48.686Z" style="fill:#fff;fill-rule:nonzero;stroke:#231f20;stroke-width:2.08px;"/><path d="M295.143,579.805l-8.171,0c-1.556,0 -2.817,-1.258 -2.817,-2.816c0,-1.557 1.261,-2.815 2.817,-2.815l8.171,-0c1.554,-0 2.816,1.258 2.816,2.815c0,1.558 -1.262,2.816 -2.816,2.816Z" style="fill:#fff;fill-rule:nonzero;stroke:#231f20;stroke-width:2.08px;"/><path d="M777.632,771.68l0,-47.854c0,-4.04 3.273,-7.315 7.315,-7.315l19.737,0c4.042,0 7.317,3.275 7.317,7.315l0,64.483l-34.369,-16.629Z" style="fill:#fff;fill-rule:nonzero;stroke:#231f20;stroke-width:2.08px;"/><path d="M777.632,761.305l34.369,0" style="fill:none;fill-rule:nonzero;stroke:#231f20;stroke-width:2.08px;"/><path d="M777.632,732.57l34.369,-0" style="fill:none;fill-rule:nonzero;stroke:#231f20;stroke-width:2.08px;"/><rect x="785.943" y="683.27" width="17.748" height="33.256" style="fill:#fff;stroke:#231f20;stroke-width:2.08px;"/><path d="M790.166,683.27l9.298,-0l-1.682,-48.684c-0.054,-1.602 -1.366,-2.868 -2.968,-2.868c-1.598,-0 -2.913,1.266 -2.967,2.868l-1.681,48.684Z" style="fill:#fff;fill-rule:nonzero;stroke:#231f20;stroke-width:2.08px;"/><path d="M790.73,649.182l8.171,0c1.556,0 2.817,-1.26 2.817,-2.818c-0,-1.555 -1.261,-2.815 -2.817,-2.815l-8.171,-0c-1.554,-0 -2.816,1.26 -2.816,2.815c-0,1.558 1.262,2.818 2.816,2.818Z" style="fill:#fff;fill-rule:nonzero;stroke:#231f20;stroke-width:2.08px;"/><path d="M650.261,729.957l69.863,-33.806l69.865,33.806l-0,219.736l-139.728,-0l0,-219.736Z" style="fill:#fff;fill-rule:nonzero;stroke:#231f20;stroke-width:2.08px;"/><path d="M720.124,732.024c-0,-0 42.256,17.277 42.256,53.71l0,103.671l-84.512,0l-0,-103.671c-0,-36.433 42.256,-53.71 42.256,-53.71Z" style="fill:#fff;fill-rule:nonzero;stroke:#231f20;stroke-width:2.08px;"/><path d="M749.932,812.351c0,0 4.561,1.867 4.561,5.798l-0,63.746l-9.119,-0l-0,-63.746c-0,-3.931 4.558,-5.798 4.558,-5.798Z" style="fill:#fff;fill-rule:nonzero;stroke:#231f20;stroke-width:2.08px;"/><path d="M735.028,812.351c0,0 4.558,1.867 4.558,5.798l0,63.746l-9.118,-0l-0,-63.746c-0,-3.931 4.56,-5.798 4.56,-5.798Z" style="fill:#fff;fill-rule:nonzero;stroke:#231f20;stroke-width:2.08px;"/><path d="M720.124,805.559c-0,0 4.56,1.865 4.56,5.796l0,70.54l-9.118,-0l-0,-70.54c-0,-3.931 4.558,-5.796 4.558,-5.796Z" style="fill:#fff;fill-rule:nonzero;stroke:#231f20;stroke-width:2.08px;"/><path d="M705.222,812.351c-0,0 4.558,1.867 4.558,5.798l0,63.746l-9.119,-0l0,-63.746c0,-3.931 4.561,-5.798 4.561,-5.798Z" style="fill:#fff;fill-rule:nonzero;stroke:#231f20;stroke-width:2.08px;"/><path d="M690.318,812.351c-0,0 4.558,1.867 4.558,5.798l0,63.746l-9.119,-0l0,-63.746c0,-3.931 4.559,-5.798 4.559,-5.798l0.002,0Z" style="fill:#fff;fill-rule:nonzero;stroke:#231f20;stroke-width:2.08px;"/><path d="M738.907,799.414c0,-2.082 1.688,-3.771 3.769,-3.771c0.908,-0 1.731,0.335 2.379,0.868c0.652,-0.533 1.473,-0.868 2.381,-0.868c2.084,-0 3.769,1.689 3.769,3.771c0,1.602 -1.004,2.962 -2.414,3.508c-0.171,1.921 -1.767,3.433 -3.734,3.433c-1.968,0 -3.564,-1.512 -3.735,-3.433c-1.413,-0.546 -2.415,-1.906 -2.415,-3.508" style="fill:#fff;fill-rule:nonzero;"/><path d="M738.907,799.414c0,-2.082 1.688,-3.771 3.769,-3.771c0.908,-0 1.731,0.335 2.379,0.868c0.652,-0.533 1.473,-0.868 2.381,-0.868c2.084,-0 3.769,1.689 3.769,3.771c0,1.602 -1.004,2.962 -2.414,3.508c-0.171,1.921 -1.767,3.433 -3.734,3.433c-1.968,0 -3.564,-1.512 -3.735,-3.433c-1.413,-0.546 -2.415,-1.906 -2.415,-3.508Z" style="fill:#fff;fill-rule:nonzero;stroke:#231f20;stroke-width:2.08px;"/><path d="M689.043,799.414c-0,-2.082 1.689,-3.771 3.771,-3.771c0.906,-0 1.729,0.335 2.379,0.868c0.652,-0.533 1.473,-0.868 2.381,-0.868c2.081,-0 3.769,1.689 3.769,3.771c-0,1.602 -1.004,2.962 -2.415,3.508c-0.171,1.921 -1.769,3.433 -3.735,3.433c-1.967,0 -3.565,-1.512 -3.736,-3.433c-1.41,-0.546 -2.414,-1.906 -2.414,-3.508" style="fill:#fff;fill-rule:nonzero;"/><path d="M689.043,799.414c-0,-2.082 1.689,-3.771 3.771,-3.771c0.906,-0 1.729,0.335 2.379,0.868c0.652,-0.533 1.473,-0.868 2.381,-0.868c2.081,-0 3.769,1.689 3.769,3.771c-0,1.602 -1.004,2.962 -2.415,3.508c-0.171,1.921 -1.769,3.433 -3.735,3.433c-1.967,0 -3.565,-1.512 -3.736,-3.433c-1.41,-0.546 -2.414,-1.906 -2.414,-3.508Z" style="fill:#fff;fill-rule:nonzero;stroke:#231f20;stroke-width:2.08px;"/><path d="M697.307,772.214c0,12.602 10.215,22.818 22.817,22.818c12.604,0 22.819,-10.216 22.819,-22.818c-0,-12.603 -10.215,-22.819 -22.819,-22.819c-12.602,-0 -22.817,10.216 -22.817,22.819" style="fill:#fff;fill-rule:nonzero;"/><path d="M697.307,772.214c0,12.593 10.225,22.818 22.817,22.818c12.594,0 22.819,-10.225 22.819,-22.818c-0,-12.594 -10.225,-22.819 -22.819,-22.819c-12.592,-0 -22.817,10.225 -22.817,22.819Z" style="fill:#fff;stroke:#231f20;stroke-width:2.08px;"/><path d="M737.261,767.599c0,2.081 -1.687,3.771 -3.768,3.771c-0.909,-0 -1.732,-0.338 -2.379,-0.869c-0.653,0.531 -1.473,0.869 -2.382,0.869c-2.083,-0 -3.768,-1.69 -3.768,-3.771c-0,-1.604 1.002,-2.963 2.414,-3.508c0.171,-1.921 1.767,-3.436 3.733,-3.436c1.967,0 3.565,1.515 3.738,3.436c1.408,0.545 2.412,1.904 2.412,3.508" style="fill:#fff;fill-rule:nonzero;"/><path d="M737.261,767.599c0,2.081 -1.687,3.771 -3.768,3.771c-0.909,-0 -1.732,-0.338 -2.379,-0.869c-0.653,0.531 -1.473,0.869 -2.382,0.869c-2.083,-0 -3.768,-1.69 -3.768,-3.771c-0,-1.604 1.002,-2.963 2.414,-3.508c0.171,-1.921 1.767,-3.436 3.733,-3.436c1.967,0 3.565,1.515 3.738,3.436c1.408,0.545 2.412,1.904 2.412,3.508Z" style="fill:#fff;fill-rule:nonzero;stroke:#231f20;stroke-width:2.08px;"/><path d="M715.289,767.599c-0,2.081 -1.69,3.771 -3.771,3.771c-0.907,-0 -1.729,-0.338 -2.379,-0.869c-0.653,0.531 -1.471,0.869 -2.382,0.869c-2.081,-0 -3.768,-1.69 -3.768,-3.771c-0,-1.604 1.004,-2.963 2.414,-3.508c0.171,-1.921 1.769,-3.436 3.736,-3.436c1.966,0 3.564,1.515 3.735,3.436c1.41,0.545 2.415,1.904 2.415,3.508" style="fill:#fff;fill-rule:nonzero;"/><path d="M715.289,767.599c-0,2.081 -1.69,3.771 -3.771,3.771c-0.907,-0 -1.729,-0.338 -2.379,-0.869c-0.653,0.531 -1.471,0.869 -2.382,0.869c-2.081,-0 -3.768,-1.69 -3.768,-3.771c-0,-1.604 1.004,-2.963 2.414,-3.508c0.171,-1.921 1.769,-3.436 3.736,-3.436c1.966,0 3.564,1.515 3.735,3.436c1.41,0.545 2.415,1.904 2.415,3.508Z" style="fill:#fff;fill-rule:nonzero;stroke:#231f20;stroke-width:2.08px;"/><path d="M726.274,784.172c-0,2.081 -1.69,3.771 -3.771,3.771c-0.906,-0 -1.729,-0.338 -2.379,-0.869c-0.65,0.531 -1.471,0.869 -2.381,0.869c-2.082,-0 -3.769,-1.69 -3.769,-3.771c-0,-1.604 1.004,-2.963 2.415,-3.508c0.172,-1.921 1.768,-3.436 3.735,-3.436c1.967,0 3.565,1.515 3.735,3.436c1.411,0.545 2.415,1.904 2.415,3.508" style="fill:#fff;fill-rule:nonzero;"/><path d="M726.274,784.172c-0,2.081 -1.69,3.771 -3.771,3.771c-0.906,-0 -1.729,-0.338 -2.379,-0.869c-0.65,0.531 -1.471,0.869 -2.381,0.869c-2.082,-0 -3.769,-1.69 -3.769,-3.771c-0,-1.604 1.004,-2.963 2.415,-3.508c0.172,-1.921 1.768,-3.436 3.735,-3.436c1.967,0 3.565,1.515 3.735,3.436c1.411,0.545 2.415,1.904 2.415,3.508Z" style="fill:#fff;fill-rule:nonzero;stroke:#231f20;stroke-width:2.08px;"/><path d="M650.578,905.932l170.154,0" style="fill:none;fill-rule:nonzero;stroke:#231f20;stroke-width:2.08px;"/><path d="M650.578,930.161l170.154,0" style="fill:none;fill-rule:nonzero;stroke:#231f20;stroke-width:2.08px;"/><path d="M650.578,940.301l170.154,0" style="fill:none;fill-rule:nonzero;stroke:#231f20;stroke-width:2.08px;"/><path d="M720.124,696.151l69.865,33.806l-0,10.704l-69.865,-33.804l-69.863,33.804l0,-10.704l69.863,-33.806Z" style="fill:#fff;fill-rule:nonzero;stroke:#231f20;stroke-width:2.08px;"/><path d="M820.732,793.249l0,156.444l-30.743,-0l-0,-171.321l30.743,14.877Z" style="fill:#fff;fill-rule:nonzero;stroke:#231f20;stroke-width:2.08px;"/><path d="M748.297,709.782l-2.806,-1.356l2.804,1.356l0.002,0Z" style="fill:#fff;fill-rule:nonzero;stroke:#231f20;stroke-width:2.08px;"/><path d="M732.841,674.178l-0,28.125l-12.717,-6.152l-69.863,33.804l0,50.146l0,-105.923l82.58,0Z" style="fill:#fff;fill-rule:nonzero;stroke:#231f20;stroke-width:2.08px;"/><path d="M748.326,602.626l-6.792,44.508l5.998,0c-4.037,0 -14.106,3.277 -14.106,7.317l0,18.333l-0.587,1.396l-82.578,0l0,-71.554l98.065,0Z" style="fill:#fff;fill-rule:nonzero;stroke:#231f20;stroke-width:2.08px;"/><path d="M733.426,702.303l0,-47.854c0,-4.04 3.275,-7.315 7.315,-7.315l19.737,0c4.042,0 7.317,3.275 7.317,7.315l-0,64.483l-34.369,-16.629Z" style="fill:#fff;fill-rule:nonzero;stroke:#231f20;stroke-width:2.08px;"/><path d="M733.426,691.926l34.369,0" style="fill:none;fill-rule:nonzero;stroke:#231f20;stroke-width:2.08px;"/><path d="M733.426,663.193l34.369,-0" style="fill:none;fill-rule:nonzero;stroke:#231f20;stroke-width:2.08px;"/><rect x="741.736" y="613.893" width="17.748" height="33.256" style="fill:#fff;stroke:#231f20;stroke-width:2.08px;"/><path d="M745.961,613.893l9.296,-0l-1.681,-48.686c-0.054,-1.6 -1.367,-2.866 -2.967,-2.866c-1.6,-0 -2.912,1.266 -2.966,2.866l-1.682,48.686Z" style="fill:#fff;fill-rule:nonzero;stroke:#231f20;stroke-width:2.08px;"/><path d="M746.526,579.805l8.169,0c1.556,0 2.816,-1.258 2.816,-2.816c0,-1.557 -1.26,-2.815 -2.816,-2.815l-8.169,-0c-1.556,-0 -2.819,1.258 -2.819,2.815c0,1.558 1.263,2.816 2.819,2.816Z" style="fill:#fff;fill-rule:nonzero;stroke:#231f20;stroke-width:2.08px;"/><path d="M609.745,589.909l-86.779,-115.183l-2.255,0l-86.783,115.183l-42.556,0l-0,359.782l258.927,-0l-0,-359.782l-40.554,0Z" style="fill:#fff;fill-rule:nonzero;stroke:#231f20;stroke-width:2.08px;"/><path d="M519.707,487.655l2.254,0l78.105,103.669l14.858,-0l-92.963,-123.388l-2.254,0l-92.964,123.388l14.858,-0l78.106,-103.669Z" style="fill:#fff;fill-rule:nonzero;stroke:#231f20;stroke-width:2.08px;"/><path d="M651.641,930.951l-261.615,0" style="fill:none;fill-rule:nonzero;stroke:#231f20;stroke-width:2.08px;"/><path d="M651.641,940.301l-261.615,0" style="fill:none;fill-rule:nonzero;stroke:#231f20;stroke-width:2.08px;"/><rect x="408.272" y="556.872" width="32.06" height="392.821" style="fill:#fff;stroke:#231f20;stroke-width:2.08px;"/><path d="M428.245,585.72l-7.888,-0l0,-10.704c0,-2.18 1.765,-3.944 3.942,-3.944c2.177,-0 3.944,1.764 3.944,3.944l-0,10.704l0.002,-0Z" style="fill:#fff;fill-rule:nonzero;stroke:#231f20;stroke-width:2.08px;"/><path d="M447.88,559.241l-47.16,-0l20.935,-89.584l5.29,0l20.935,89.584Z" style="fill:#fff;fill-rule:nonzero;stroke:#231f20;stroke-width:2.08px;"/><rect x="601.336" y="556.872" width="32.06" height="392.821" style="fill:#fff;stroke:#231f20;stroke-width:2.08px;"/><path d="M621.309,585.72l-7.887,-0l-0,-10.704c-0,-2.18 1.767,-3.944 3.942,-3.944c2.179,-0 3.945,1.764 3.945,3.944l0,10.704Z" style="fill:#fff;fill-rule:nonzero;stroke:#231f20;stroke-width:2.08px;"/><path d="M640.947,559.241l-47.163,-0l20.936,-89.584l5.291,0l20.936,89.584Z" style="fill:#fff;fill-rule:nonzero;stroke:#231f20;stroke-width:2.08px;"/><path d="M528.159,526.561c0,4.046 -3.279,7.328 -7.325,7.328c-4.045,-0 -7.323,-3.282 -7.323,-7.328c0,-4.043 3.275,-7.322 7.321,-7.322c4.046,-0 7.325,3.279 7.325,7.322" style="fill:#fff;fill-rule:nonzero;"/><path d="M528.159,526.564c0,-4.044 -3.283,-7.325 -7.325,-7.325c-4.041,-0 -7.323,3.281 -7.323,7.325c0,4.041 3.282,7.325 7.323,7.325c4.042,-0 7.323,-3.284 7.323,-7.325l0.002,-0Z" style="fill:#fff;stroke:#231f20;stroke-width:2.08px;"/><path d="M520.834,549.924c0,-0 -74.002,43.846 -74.002,107.65l0,181.546l148.002,-0l0,-181.546c0,-63.804 -74,-107.65 -74,-107.65Z" style="fill:#fff;fill-rule:nonzero;stroke:#231f20;stroke-width:2.08px;"/><rect x="446.832" y="839.12" width="148" height="20.613" style="fill:#fff;stroke:#231f20;stroke-width:2.08px;"/><path d="M538.957,669.714c0,-0 -13.693,5.6 -13.693,17.404l-0,151.956l27.385,-0l-0,-151.956c-0,-11.804 -13.692,-17.404 -13.692,-17.404Z" style="fill:#fff;fill-rule:nonzero;stroke:#231f20;stroke-width:2.08px;"/><path d="M502.711,669.714c0,-0 -13.693,5.6 -13.693,17.404l-0,151.956l27.385,-0l0,-151.956c0,-11.804 -13.692,-17.404 -13.692,-17.404Z" style="fill:#fff;fill-rule:nonzero;stroke:#231f20;stroke-width:2.08px;"/><path d="M466.464,669.714c-0,-0 -13.694,5.6 -13.694,17.404l-0,151.956l27.385,-0l0,-151.956c0,-11.804 -13.691,-17.404 -13.691,-17.404Z" style="fill:#fff;fill-rule:nonzero;stroke:#231f20;stroke-width:2.08px;"/><path d="M452.77,686.273l-0,152.801l13.937,-0l-0.244,-142.923l-13.693,-9.878Z" style="fill:#fff;stroke:#231f20;stroke-width:2.08px;stroke-linecap:round;stroke-linejoin:round;"/><path d="M489.148,686.273l-0,152.801l13.937,-0l-0.244,-142.923l-13.693,-9.878Z" style="fill:#fff;stroke:#231f20;stroke-width:2.08px;stroke-linecap:round;stroke-linejoin:round;"/><path d="M525.264,686.319l-0,152.801l13.937,-0l-0.245,-142.923l-13.692,-9.878Z" style="fill:#fff;stroke:#231f20;stroke-width:2.08px;stroke-linecap:round;stroke-linejoin:round;"/><path d="M561.555,686.319l0,152.801l13.938,-0l-0.245,-142.923l-13.693,-9.878Z" style="fill:#fff;stroke:#231f20;stroke-width:2.08px;stroke-linecap:round;stroke-linejoin:round;"/><path d="M466.463,696.151l0.244,142.923l13.448,-0l0,-152.801l-13.692,9.878Z" style="fill:#fff;stroke:#231f20;stroke-width:2.08px;stroke-linecap:square;stroke-miterlimit:1.5;"/><path d="M502.658,696.151l0.245,142.923l13.448,-0l0,-152.801l-13.693,9.878Z" style="fill:#fff;stroke:#231f20;stroke-width:2.08px;stroke-linecap:square;stroke-miterlimit:1.5;"/><path d="M538.956,696.151l0.245,142.923l13.448,-0l-0,-152.801l-13.693,9.878Z" style="fill:#fff;stroke:#231f20;stroke-width:2.08px;stroke-linecap:square;stroke-miterlimit:1.5;"/><rect x="391.372" y="589.909" width="16.9" height="341.042" style="fill:#fff;stroke:#231f20;stroke-width:2.08px;stroke-linecap:square;"/><rect x="633.678" y="589.909" width="16.9" height="341.042" style="fill:#fff;stroke:#231f20;stroke-width:2.08px;stroke-linecap:square;"/><rect x="408.272" y="630.232" width="32.06" height="63.665" style="fill:#fff;stroke:#231f20;stroke-width:2.08px;stroke-linecap:square;"/><rect x="408.27" y="693.897" width="32.06" height="84.515" style="fill:#fff;stroke:#231f20;stroke-width:2.08px;stroke-linecap:square;"/><rect x="408.27" y="778.372" width="32.06" height="81.738" style="fill:#fff;stroke:#231f20;stroke-width:2.08px;stroke-linecap:square;"/><rect x="408.27" y="860.109" width="32.06" height="89.581" style="fill:#fff;stroke:#231f20;stroke-width:2.08px;stroke-linecap:square;"/><rect x="601.335" y="630.521" width="32.06" height="63.376" style="fill:#fff;stroke:#231f20;stroke-width:2.08px;stroke-linecap:square;"/><rect x="601.618" y="693.897" width="32.06" height="84.475" style="fill:#fff;stroke:#231f20;stroke-width:2.08px;stroke-linecap:square;"/><rect x="601.336" y="778.411" width="32.06" height="81.698" style="fill:#fff;stroke:#231f20;stroke-width:2.08px;stroke-linecap:square;"/><rect x="601.618" y="860.109" width="32.06" height="89.583" style="fill:#fff;stroke:#231f20;stroke-width:2.08px;stroke-linecap:square;"/><path d="M575.203,669.714c0,-0 -13.694,5.6 -13.694,17.404l0,151.956l27.386,-0l-0,-151.956c-0,-11.804 -13.692,-17.404 -13.692,-17.404Z" style="fill:#fff;fill-rule:nonzero;stroke:#231f20;stroke-width:2.08px;"/><path d="M568.12,620.091c-0,26.116 -21.171,47.287 -47.286,47.287c-26.116,0 -47.289,-21.171 -47.289,-47.287c-0,-26.115 21.173,-47.286 47.289,-47.286c26.115,0 47.286,21.171 47.286,47.286" style="fill:#fff;fill-rule:nonzero;"/><path d="M568.12,620.091c-0,-26.098 -21.188,-47.286 -47.288,-47.286c-26.098,0 -47.287,21.188 -47.287,47.286c-0,26.098 21.189,47.287 47.287,47.287c26.1,0 47.288,-21.189 47.288,-47.287Z" style="fill:#fff;stroke:#231f20;stroke-width:2.08px;"/><path d="M476.066,652.768c-0,6.158 -4.992,11.152 -11.152,11.152c-6.159,-0 -11.15,-4.994 -11.15,-11.152c-0,-6.157 4.991,-11.15 11.15,-11.15c6.16,-0 11.152,4.993 11.152,11.15" style="fill:#fff;fill-rule:nonzero;"/><path d="M476.066,652.77c-0,-6.156 -4.998,-11.152 -11.152,-11.152c-6.155,-0 -11.15,4.996 -11.15,11.152c-0,6.154 4.995,11.15 11.15,11.15c6.154,-0 11.152,-4.996 11.152,-11.15Z" style="fill:#fff;stroke:#231f20;stroke-width:2.08px;"/><path d="M587.903,652.768c0,6.158 -4.992,11.152 -11.152,11.152c-6.158,-0 -11.15,-4.994 -11.15,-11.152c0,-6.157 4.992,-11.15 11.15,-11.15c6.16,-0 11.152,4.993 11.152,11.15" style="fill:#fff;fill-rule:nonzero;"/><path d="M587.903,652.77c0,-6.156 -4.996,-11.152 -11.15,-11.152c-6.154,-0 -11.152,4.996 -11.152,11.152c0,6.154 4.998,11.15 11.152,11.15c6.154,-0 11.15,-4.996 11.15,-11.15Z" style="fill:#fff;stroke:#231f20;stroke-width:2.08px;"/><path d="M527.026,620.091c0,3.42 -2.773,6.193 -6.192,6.193c-3.418,0 -6.191,-2.773 -6.191,-6.193c-0,-3.421 2.773,-6.192 6.191,-6.192c3.419,-0 6.192,2.771 6.192,6.192" style="fill:#fff;fill-rule:nonzero;"/><path d="M527.026,620.091c0,-3.419 -2.775,-6.192 -6.192,-6.192c-3.418,-0 -6.191,2.773 -6.191,6.192c-0,3.418 2.773,6.193 6.191,6.193c3.417,0 6.192,-2.775 6.192,-6.193Z" style="fill:#fff;stroke:#231f20;stroke-width:2.08px;"/><path d="M527.026,655.586c0,3.421 -2.773,6.194 -6.192,6.194c-3.418,0 -6.191,-2.773 -6.191,-6.194c-0,-3.42 2.773,-6.193 6.191,-6.193c3.419,-0 6.192,2.773 6.192,6.193" style="fill:#fff;fill-rule:nonzero;"/><path d="M527.026,655.586c0,-3.418 -2.775,-6.193 -6.192,-6.193c-3.418,-0 -6.191,2.775 -6.191,6.193c-0,3.417 2.773,6.194 6.191,6.194c3.417,0 6.192,-2.777 6.192,-6.194Z" style="fill:#fff;stroke:#231f20;stroke-width:2.08px;"/><path d="M520.834,626.282l0,23.111" style="fill:none;fill-rule:nonzero;stroke:#231f20;stroke-width:2.08px;"/><path d="M514.641,584.593c-0,-3.419 2.773,-6.192 6.193,-6.192c3.417,0 6.19,2.773 6.19,6.192c-0,3.423 -2.773,6.193 -6.19,6.193c-3.42,0 -6.193,-2.77 -6.193,-6.193" style="fill:#fff;fill-rule:nonzero;"/><path d="M514.641,584.595c-0,3.416 2.775,6.191 6.191,6.191c3.417,0 6.192,-2.775 6.192,-6.191c-0,-3.419 -2.775,-6.194 -6.192,-6.194c-3.416,0 -6.191,2.775 -6.191,6.194Z" style="fill:#fff;stroke:#231f20;stroke-width:2.08px;"/><path d="M520.834,613.899l0,-23.113" style="fill:none;fill-rule:nonzero;stroke:#231f20;stroke-width:2.08px;"/><path d="M520.834,626.282c-3.42,0 -6.193,-2.773 -6.193,-6.193c-0,-3.419 2.773,-6.19 6.193,-6.19c3.419,-0 6.192,2.771 6.192,6.19c0,3.42 -2.773,6.193 -6.192,6.193" style="fill:#fff;fill-rule:nonzero;"/><path d="M520.834,626.282c-3.42,0 -6.193,-2.773 -6.193,-6.193c-0,-3.419 2.773,-6.19 6.193,-6.19c3.419,-0 6.192,2.771 6.192,6.19c0,3.42 -2.773,6.193 -6.192,6.193Z" style="fill:#fff;fill-rule:nonzero;stroke:#231f20;stroke-width:2.08px;"/><path d="M485.339,626.282c-3.421,0 -6.194,-2.773 -6.194,-6.193c-0,-3.419 2.773,-6.19 6.194,-6.19c3.42,-0 6.193,2.771 6.193,6.19c0,3.42 -2.773,6.193 -6.193,6.193" style="fill:#fff;fill-rule:nonzero;"/><path d="M485.339,626.282c-3.421,0 -6.194,-2.773 -6.194,-6.193c-0,-3.419 2.773,-6.19 6.194,-6.19c3.42,-0 6.193,2.771 6.193,6.19c0,3.42 -2.773,6.193 -6.193,6.193Z" style="fill:#fff;fill-rule:nonzero;stroke:#231f20;stroke-width:2.08px;"/><path d="M514.641,620.091l-23.111,-0" style="fill:none;fill-rule:nonzero;stroke:#231f20;stroke-width:2.08px;"/><path d="M556.328,613.899c3.421,-0 6.194,2.771 6.194,6.192c-0,3.418 -2.773,6.191 -6.194,6.191c-3.421,0 -6.192,-2.773 -6.192,-6.191c0,-3.421 2.771,-6.192 6.192,-6.192" style="fill:#fff;fill-rule:nonzero;"/><circle cx="556.33" cy="620.091" r="6.192" style="fill:#fff;stroke:#231f20;stroke-width:2.08px;"/><path d="M527.026,620.091l23.113,-0" style="fill:none;fill-rule:nonzero;stroke:#231f20;stroke-width:2.08px;"/><path d="M525.211,624.47c-2.416,2.416 -6.339,2.416 -8.756,-0c-2.416,-2.419 -2.416,-6.34 0,-8.759c2.417,-2.416 6.34,-2.416 8.756,0c2.419,2.419 2.419,6.34 0,8.759" style="fill:#fff;fill-rule:nonzero;"/><path d="M525.211,624.47c2.419,-2.417 2.419,-6.342 0,-8.759c-2.416,-2.416 -6.339,-2.416 -8.756,0c-2.419,2.417 -2.419,6.342 0,8.759c2.417,2.416 6.34,2.416 8.756,-0Z" style="fill:#fff;stroke:#231f20;stroke-width:2.08px;"/><path d="M500.114,649.568c-2.417,2.418 -6.338,2.418 -8.757,-0c-2.418,-2.417 -2.418,-6.34 0,-8.757c2.419,-2.418 6.34,-2.418 8.757,0c2.418,2.417 2.418,6.34 -0,8.757" style="fill:#fff;fill-rule:nonzero;"/><path d="M500.114,649.568c2.416,-2.417 2.416,-6.34 -0,-8.759c-2.417,-2.416 -6.342,-2.416 -8.759,0c-2.416,2.419 -2.416,6.342 0,8.759c2.417,2.418 6.342,2.418 8.759,-0Z" style="fill:#fff;stroke:#231f20;stroke-width:2.08px;"/><path d="M516.453,624.47l-16.342,16.341" style="fill:none;fill-rule:nonzero;stroke:#231f20;stroke-width:2.08px;"/><path d="M541.553,590.611c2.419,-2.416 6.34,-2.416 8.756,0c2.419,2.419 2.419,6.34 0,8.759c-2.416,2.416 -6.337,2.416 -8.756,-0c-2.417,-2.419 -2.417,-6.34 0,-8.759" style="fill:#fff;fill-rule:nonzero;"/><path d="M541.553,590.611c-2.417,2.417 -2.417,6.342 0,8.759c2.417,2.416 6.34,2.416 8.756,-0c2.419,-2.417 2.419,-6.34 0.002,-8.756c-2.416,-2.419 -6.341,-2.419 -8.758,-0.003Z" style="fill:#fff;stroke:#231f20;stroke-width:2.08px;"/><path d="M525.211,615.711l16.344,-16.341" style="fill:none;fill-rule:nonzero;stroke:#231f20;stroke-width:2.08px;"/><path d="M516.453,624.47c-2.417,-2.419 -2.417,-6.34 0,-8.759c2.419,-2.416 6.34,-2.416 8.758,0c2.417,2.419 2.417,6.34 0,8.759c-2.418,2.416 -6.339,2.416 -8.758,-0" style="fill:#fff;fill-rule:nonzero;"/><path d="M516.453,624.47c2.419,2.416 6.342,2.416 8.758,-0c2.419,-2.417 2.419,-6.342 0,-8.759c-2.416,-2.416 -6.339,-2.416 -8.758,0c-2.417,2.417 -2.417,6.342 0,8.759Z" style="fill:#fff;stroke:#231f20;stroke-width:2.08px;"/><path d="M491.357,599.37c-2.418,-2.419 -2.418,-6.34 0,-8.759c2.419,-2.416 6.34,-2.416 8.757,0c2.418,2.419 2.418,6.34 -0,8.759c-2.417,2.416 -6.338,2.416 -8.757,-0" style="fill:#fff;fill-rule:nonzero;"/><path d="M491.357,599.37c2.417,2.416 6.34,2.416 8.757,-0c2.416,-2.417 2.416,-6.342 -0,-8.759c-2.419,-2.416 -6.342,-2.416 -8.759,0c-2.416,2.419 -2.416,6.342 0.002,8.759Z" style="fill:#fff;stroke:#231f20;stroke-width:2.08px;"/><path d="M516.453,615.711l-16.342,-16.341" style="fill:none;fill-rule:nonzero;stroke:#231f20;stroke-width:2.08px;"/><path d="M550.309,640.811c2.419,2.417 2.419,6.34 0,8.757c-2.416,2.418 -6.337,2.418 -8.756,-0c-2.417,-2.417 -2.417,-6.34 0,-8.757c2.419,-2.418 6.34,-2.418 8.756,0" style="fill:#fff;fill-rule:nonzero;"/><path d="M550.311,640.811c-2.416,-2.416 -6.339,-2.416 -8.756,0c-2.416,2.417 -2.416,6.34 0,8.757c2.417,2.416 6.34,2.416 8.756,-0c2.417,-2.417 2.417,-6.34 0,-8.757Z" style="fill:#fff;stroke:#231f20;stroke-width:2.08px;"/><path d="M525.211,624.47l16.344,16.341" style="fill:none;fill-rule:nonzero;stroke:#231f20;stroke-width:2.08px;"/><path d="M526.559,622.449c-1.304,3.162 -4.923,4.669 -8.085,3.365c-3.16,-1.303 -4.669,-4.921 -3.365,-8.084c1.302,-3.16 4.921,-4.669 8.084,-3.366c3.16,1.304 4.668,4.922 3.366,8.085" style="fill:#fff;fill-rule:nonzero;"/><path d="M526.559,622.449c1.302,-3.16 -0.206,-6.781 -3.366,-8.085c-3.159,-1.303 -6.782,0.206 -8.084,3.366c-1.302,3.161 0.205,6.784 3.365,8.086c3.16,1.302 6.783,-0.207 8.085,-3.367Z" style="fill:#fff;stroke:#231f20;stroke-width:2.08px;"/><path d="M513.039,655.268c-1.305,3.162 -4.923,4.668 -8.086,3.366c-3.16,-1.304 -4.669,-4.923 -3.364,-8.085c1.302,-3.16 4.92,-4.669 8.083,-3.365c3.16,1.302 4.669,4.921 3.367,8.084" style="fill:#fff;fill-rule:nonzero;"/><path d="M513.039,655.27c1.302,-3.161 -0.207,-6.784 -3.367,-8.086c-3.161,-1.302 -6.783,0.207 -8.086,3.365c-1.302,3.16 0.207,6.783 3.367,8.085c3.161,1.302 6.781,-0.206 8.086,-3.364Z" style="fill:#fff;stroke:#231f20;stroke-width:2.08px;"/><path d="M518.474,625.816l-8.804,21.37" style="fill:none;fill-rule:nonzero;stroke:#231f20;stroke-width:2.08px;"/><path d="M528.63,584.911c1.302,-3.162 4.921,-4.666 8.084,-3.364c3.16,1.302 4.668,4.923 3.366,8.085c-1.302,3.161 -4.923,4.667 -8.085,3.365c-3.161,-1.302 -4.669,-4.921 -3.365,-8.086" style="fill:#fff;fill-rule:nonzero;"/><path d="M528.628,584.911c-1.302,3.159 0.206,6.784 3.367,8.086c3.16,1.304 6.783,-0.204 8.085,-3.365c1.304,-3.16 -0.204,-6.783 -3.364,-8.085c-3.161,-1.304 -6.784,0.204 -8.088,3.364Z" style="fill:#fff;stroke:#231f20;stroke-width:2.08px;"/><path d="M523.193,614.366l8.804,-21.369" style="fill:none;fill-rule:nonzero;stroke:#231f20;stroke-width:2.08px;"/><path d="M518.474,625.816c-3.163,-1.302 -4.669,-4.921 -3.365,-8.084c1.302,-3.16 4.921,-4.668 8.084,-3.366c3.16,1.304 4.668,4.923 3.366,8.085c-1.304,3.16 -4.923,4.669 -8.085,3.365" style="fill:#fff;fill-rule:nonzero;"/><path d="M518.474,625.816c3.16,1.302 6.783,-0.207 8.085,-3.365c1.302,-3.16 -0.206,-6.783 -3.364,-8.085c-3.161,-1.302 -6.784,0.206 -8.086,3.364c-1.302,3.161 0.207,6.784 3.365,8.086Z" style="fill:#fff;stroke:#231f20;stroke-width:2.08px;"/><path d="M485.655,612.293c-3.162,-1.302 -4.669,-4.921 -3.366,-8.084c1.302,-3.16 4.922,-4.668 8.085,-3.366c3.16,1.302 4.669,4.923 3.365,8.085c-1.303,3.161 -4.921,4.669 -8.084,3.365" style="fill:#fff;fill-rule:nonzero;"/><path d="M485.655,612.295c3.161,1.302 6.784,-0.206 8.086,-3.367c1.302,-3.16 -0.207,-6.783 -3.367,-8.085c-3.16,-1.302 -6.783,0.206 -8.085,3.366c-1.303,3.161 0.206,6.784 3.366,8.086Z" style="fill:#fff;stroke:#231f20;stroke-width:2.08px;"/><path d="M515.109,617.732l-21.37,-8.804" style="fill:none;fill-rule:nonzero;stroke:#231f20;stroke-width:2.08px;"/><path d="M556.011,627.886c3.163,1.305 4.669,4.923 3.367,8.086c-1.302,3.16 -4.921,4.669 -8.083,3.367c-3.163,-1.305 -4.671,-4.923 -3.367,-8.086c1.302,-3.16 4.921,-4.669 8.083,-3.367" style="fill:#fff;fill-rule:nonzero;"/><path d="M556.009,627.886c-3.16,-1.302 -6.781,0.207 -8.083,3.367c-1.302,3.161 0.206,6.783 3.367,8.086c3.16,1.3 6.783,-0.209 8.085,-3.369c1.302,-3.161 -0.208,-6.784 -3.369,-8.084Z" style="fill:#fff;stroke:#231f20;stroke-width:2.08px;"/><path d="M526.559,622.449l21.369,8.804" style="fill:none;fill-rule:nonzero;stroke:#231f20;stroke-width:2.08px;"/><path d="M523.216,625.807c-3.159,1.315 -6.784,-0.179 -8.098,-3.337c-1.315,-3.154 0.179,-6.779 3.337,-8.094c3.154,-1.317 6.781,0.177 8.096,3.333c1.315,3.159 -0.177,6.784 -3.335,8.098" style="fill:#fff;fill-rule:nonzero;"/><path d="M523.214,625.807c3.156,-1.314 4.65,-4.941 3.337,-8.098c-1.315,-3.156 -4.944,-4.65 -8.098,-3.337c-3.156,1.314 -4.65,4.944 -3.337,8.098c1.314,3.156 4.943,4.652 8.098,3.337Z" style="fill:#fff;stroke:#231f20;stroke-width:2.08px;"/><path d="M490.447,639.451c-3.158,1.315 -6.783,-0.179 -8.098,-3.337c-1.315,-3.155 0.179,-6.78 3.337,-8.094c3.155,-1.315 6.782,0.179 8.096,3.333c1.315,3.158 -0.177,6.783 -3.335,8.098" style="fill:#fff;fill-rule:nonzero;"/><path d="M490.447,639.453c3.154,-1.314 4.65,-4.942 3.335,-8.098c-1.312,-3.154 -4.941,-4.65 -8.096,-3.335c-3.156,1.314 -4.652,4.941 -3.337,8.098c1.315,3.154 4.942,4.65 8.098,3.335Z" style="fill:#fff;stroke:#231f20;stroke-width:2.08px;"/><path d="M515.118,622.47l-21.336,8.885" style="fill:none;fill-rule:nonzero;stroke:#231f20;stroke-width:2.08px;"/><path d="M551.222,600.73c3.156,-1.316 6.781,0.177 8.096,3.336c1.316,3.156 -0.177,6.781 -3.336,8.095c-3.156,1.315 -6.783,-0.179 -8.098,-3.335c-1.312,-3.156 0.18,-6.781 3.338,-8.096" style="fill:#fff;fill-rule:nonzero;"/><path d="M551.22,600.728c-3.154,1.313 -4.65,4.942 -3.336,8.098c1.315,3.154 4.942,4.65 8.098,3.335c3.157,-1.314 4.65,-4.943 3.338,-8.097c-1.315,-3.157 -4.944,-4.65 -8.1,-3.336Z" style="fill:#fff;stroke:#231f20;stroke-width:2.08px;"/><path d="M526.549,617.709l21.335,-8.885" style="fill:none;fill-rule:nonzero;stroke:#231f20;stroke-width:2.08px;"/><path d="M515.118,622.47c-1.315,-3.156 0.179,-6.781 3.337,-8.096c3.154,-1.317 6.779,0.177 8.094,3.335c1.317,3.157 -0.177,6.784 -3.333,8.098c-3.159,1.313 -6.784,-0.179 -8.098,-3.337" style="fill:#fff;fill-rule:nonzero;"/><path d="M515.118,622.47c1.312,3.156 4.941,4.652 8.098,3.337c3.154,-1.314 4.65,-4.941 3.335,-8.098c-1.315,-3.156 -4.944,-4.652 -8.098,-3.337c-3.156,1.314 -4.65,4.944 -3.335,8.098Z" style="fill:#fff;stroke:#231f20;stroke-width:2.08px;"/><path d="M501.472,589.705c-1.315,-3.158 0.179,-6.783 3.335,-8.098c3.157,-1.314 6.782,0.179 8.096,3.338c1.315,3.154 -0.179,6.781 -3.333,8.096c-3.159,1.312 -6.784,-0.18 -8.098,-3.336" style="fill:#fff;fill-rule:nonzero;"/><path d="M501.472,589.703c1.312,3.156 4.942,4.65 8.096,3.338c3.156,-1.315 4.65,-4.942 3.335,-8.098c-1.312,-3.157 -4.942,-4.65 -8.096,-3.338c-3.156,1.315 -4.65,4.944 -3.335,8.098Z" style="fill:#fff;stroke:#231f20;stroke-width:2.08px;"/><path d="M518.453,614.374l-8.885,-21.335" style="fill:none;fill-rule:nonzero;stroke:#231f20;stroke-width:2.08px;"/><path d="M540.195,650.476c1.314,3.158 -0.179,6.783 -3.336,8.098c-3.156,1.315 -6.781,-0.179 -8.095,-3.338c-1.315,-3.154 0.179,-6.781 3.335,-8.095c3.156,-1.315 6.781,0.179 8.096,3.335" style="fill:#fff;fill-rule:nonzero;"/><path d="M540.195,650.478c-1.315,-3.156 -4.942,-4.65 -8.096,-3.337c-3.156,1.314 -4.65,4.943 -3.335,8.098c1.312,3.154 4.941,4.65 8.095,3.335c3.155,-1.313 4.65,-4.942 3.336,-8.096Z" style="fill:#fff;stroke:#231f20;stroke-width:2.08px;"/><path d="M523.216,625.807l8.883,21.336" style="fill:none;fill-rule:nonzero;stroke:#231f20;stroke-width:2.08px;"/><path d="M561.695,686.273l-0,152.801l13.937,-0l-0.245,-142.923l-13.692,-9.878Z" style="fill:#fff;stroke:#231f20;stroke-width:2.08px;stroke-linecap:round;stroke-linejoin:round;"/><path d="M575.493,696.151l0.244,142.923l13.448,-0l0,-152.801l-13.692,9.878Z" style="fill:#fff;stroke:#231f20;stroke-width:2.08px;stroke-linecap:square;stroke-miterlimit:1.5;"/></svg>