<svg viewBox="0 0 4342 4342" xmlns="http://www.w3.org/2000/svg" xml:space="preserve" style="fill-rule:evenodd;clip-rule:evenodd;stroke-linecap:square;stroke-miterlimit:1.5">
  <path style="fill:#fff;stroke:#000;stroke-width:8.75px" d="M4.375 4.387h4332.83v4332.86H4.375z"/>
  <path style="fill:#fff;stroke:#000;stroke-width:8.75px" d="M4.375 3582.29h4332.83v754.958H4.375z"/>
  <path style="fill:#fff;stroke:#231f20;stroke-width:8.67px;stroke-linecap:butt;stroke-miterlimit:10" d="M1818.86 1031.96h701.233v1569.46H1818.86z"/>
  <path d="M2437.9 1294.1h-256.666l113.933-259.408h28.792L2437.9 1294.1Z" style="fill:#fff;fill-rule:nonzero;stroke:#231f20;stroke-width:8.67px;stroke-linecap:butt;stroke-miterlimit:10"/>
  <path d="M2309.56 1224.35c-.001 0 83.341 34.079 83.341 105.938v502.196l-166.683-.001v-502.195c0-71.859 83.341-105.938 83.341-105.938Z" style="fill:#fff;fill-rule:nonzero;stroke:#231f20;stroke-width:8.67px;stroke-linecap:butt;stroke-miterlimit:10"/>
  <path style="fill:#fff;stroke:#231f20;stroke-width:8.67px;stroke-linecap:butt;stroke-miterlimit:10" d="M2226.23 1776.13h166.675v56.346H2226.23z"/>
  <path d="M2309.56 1372.07c-.001 0 18.991 7.766 18.991 24.15v379.912h-37.996V1396.22c0-16.383 19.005-24.15 19.005-24.15Z" style="fill:#fff;fill-rule:nonzero;stroke:#231f20;stroke-width:8.67px;stroke-linecap:butt;stroke-miterlimit:10"/>
  <path d="M2350.43 1400.38s19.004 7.767 19.004 24.159v351.604h-38.004v-351.605c0-16.391 19-24.158 19-24.158Z" style="fill:#fff;fill-rule:nonzero;stroke:#231f20;stroke-width:8.67px;stroke-linecap:butt;stroke-miterlimit:10"/>
  <path d="M2268.68 1400.38s19.005 7.767 19.005 24.159v351.604h-37.996v-351.605c0-16.391 18.991-24.158 18.991-24.158Z" style="fill:#fff;fill-rule:nonzero;stroke:#231f20;stroke-width:8.67px;stroke-linecap:butt;stroke-miterlimit:10"/>
  <path d="M2335.2 1293.27c0 8.675-7.042 15.704-15.713 15.704-3.775 0-7.212-1.388-9.912-3.621-2.717 2.233-6.138 3.621-9.921 3.621-8.683 0-15.704-7.029-15.704-15.704 0-6.675 4.183-12.342 10.058-14.617.713-8.012 7.371-14.312 15.567-14.312s14.842 6.3 15.562 14.312c5.88 2.275 10.063 7.942 10.063 14.617" style="fill:#fff;fill-rule:nonzero"/>
  <path d="M2335.2 1293.27c0 8.675-7.042 15.704-15.713 15.704-3.775 0-7.212-1.388-9.912-3.621-2.717 2.233-6.138 3.621-9.921 3.621-8.683 0-15.704-7.029-15.704-15.704 0-6.675 4.183-12.342 10.058-14.617.713-8.012 7.371-14.312 15.567-14.312s14.842 6.3 15.562 14.312c5.88 2.275 10.063 7.942 10.063 14.617Z" style="fill:#fff;fill-rule:nonzero;stroke:#231f20;stroke-width:8.67px;stroke-linecap:butt;stroke-miterlimit:10"/>
  <path d="M2248.34 1340.35c-.001-8.679 7.033-15.708 15.704-15.708 3.783 0 7.212 1.396 9.912 3.616 2.717-2.22 6.138-3.616 9.921-3.616 8.683 0 15.704 7.029 15.704 15.708 0 6.675-4.175 12.346-10.062 14.621-.709 8.004-7.359 14.312-15.554 14.312-8.196 0-14.855-6.308-15.571-14.312-5.879-2.275-10.054-7.946-10.054-14.621" style="fill:#fff;fill-rule:nonzero"/>
  <path d="M2248.34 1340.35c-.001-8.679 7.033-15.708 15.704-15.708 3.783 0 7.212 1.396 9.912 3.616 2.717-2.22 6.138-3.616 9.921-3.616 8.683 0 15.704 7.029 15.704 15.708 0 6.675-4.175 12.346-10.062 14.621-.709 8.004-7.359 14.312-15.554 14.312-8.196 0-14.855-6.308-15.571-14.312-5.879-2.275-10.054-7.946-10.054-14.621Z" style="fill:#fff;fill-rule:nonzero;stroke:#231f20;stroke-width:8.67px;stroke-linecap:butt;stroke-miterlimit:10"/>
  <path d="M2319.55 1340.35c0-8.679 7.037-15.708 15.708-15.708 3.779 0 7.209 1.396 9.917 3.616 2.717-2.22 6.125-3.616 9.921-3.616 8.671 0 15.704 7.029 15.704 15.708 0 6.675-4.188 12.346-10.063 14.621-.72 8.004-7.37 14.312-15.562 14.312-8.196 0-14.854-6.308-15.567-14.312-5.875-2.275-10.058-7.946-10.058-14.621" style="fill:#fff;fill-rule:nonzero"/>
  <path d="M2319.55 1340.35c0-8.679 7.037-15.708 15.708-15.708 3.779 0 7.209 1.396 9.917 3.616 2.717-2.22 6.125-3.616 9.921-3.616 8.671 0 15.704 7.029 15.704 15.708 0 6.675-4.188 12.346-10.063 14.621-.72 8.004-7.37 14.312-15.562 14.312-8.196 0-14.854-6.308-15.567-14.312-5.875-2.275-10.058-7.946-10.058-14.621Z" style="fill:#fff;fill-rule:nonzero;stroke:#231f20;stroke-width:8.67px;stroke-linecap:butt;stroke-miterlimit:10"/>
  <path d="M2156.29 1294.1h-256.667l113.942-259.408h28.795l113.93 259.408Z" style="fill:#fff;fill-rule:nonzero;stroke:#231f20;stroke-width:8.67px;stroke-linecap:butt;stroke-miterlimit:10"/>
  <path d="M2027.95 1224.35s83.342 34.079 83.342 105.938v502.196l-166.683-.001v-502.195c0-71.859 83.341-105.938 83.341-105.938Z" style="fill:#fff;fill-rule:nonzero;stroke:#231f20;stroke-width:8.67px;stroke-linecap:butt;stroke-miterlimit:10"/>
  <path style="fill:#fff;stroke:#231f20;stroke-width:8.67px;stroke-linecap:butt;stroke-miterlimit:10" d="M1944.61 1776.13h166.675v56.346H1944.61z"/>
  <path d="M2027.95 1372.07s19.004 7.766 19.004 24.15v379.912h-37.995l-.001-379.912c0-16.383 18.992-24.15 18.992-24.15Z" style="fill:#fff;fill-rule:nonzero;stroke:#231f20;stroke-width:8.67px;stroke-linecap:butt;stroke-miterlimit:10"/>
  <path d="M2068.83 1400.38s18.992 7.767 18.992 24.159v351.604h-37.996v-351.605c0-16.391 19.004-24.158 19.004-24.158Z" style="fill:#fff;fill-rule:nonzero;stroke:#231f20;stroke-width:8.67px;stroke-linecap:butt;stroke-miterlimit:10"/>
  <path d="M1987.09 1400.38s18.991 7.767 18.991 24.159v351.604h-37.991v-351.605c0-16.391 19-24.158 19-24.158Z" style="fill:#fff;fill-rule:nonzero;stroke:#231f20;stroke-width:8.67px;stroke-linecap:butt;stroke-miterlimit:10"/>
  <path d="M2053.58 1293.27c0 8.675-7.037 15.704-15.7 15.704-3.787 0-7.216-1.388-9.925-3.621-2.708 2.233-6.125 3.621-9.921 3.621-8.67 0-15.704-7.029-15.704-15.704 0-6.675 4.188-12.342 10.063-14.617.721-8.012 7.37-14.312 15.562-14.312 8.196 0 14.854 6.3 15.567 14.312 5.875 2.275 10.058 7.942 10.058 14.617" style="fill:#fff;fill-rule:nonzero"/>
  <path d="M2053.58 1293.27c0 8.675-7.037 15.704-15.7 15.704-3.787 0-7.216-1.388-9.925-3.621-2.708 2.233-6.125 3.621-9.921 3.621-8.67 0-15.704-7.029-15.704-15.704 0-6.675 4.188-12.342 10.063-14.617.721-8.012 7.37-14.312 15.562-14.312 8.196 0 14.854 6.3 15.567 14.312 5.875 2.275 10.058 7.942 10.058 14.617Z" style="fill:#fff;fill-rule:nonzero;stroke:#231f20;stroke-width:8.67px;stroke-linecap:butt;stroke-miterlimit:10"/>
  <path d="M1966.73 1340.35c0-8.679 7.038-15.708 15.708-15.708 3.779 0 7.209 1.396 9.917 3.616 2.717-2.22 6.133-3.616 9.921-3.616 8.671 0 15.704 7.029 15.704 15.708 0 6.675-4.188 12.346-10.063 14.621-.712 8.004-7.37 14.312-15.562 14.312-8.196 0-14.854-6.308-15.567-14.312-5.875-2.275-10.058-7.946-10.058-14.621" style="fill:#fff;fill-rule:nonzero"/>
  <path d="M1966.73 1340.35c0-8.679 7.038-15.708 15.708-15.708 3.779 0 7.209 1.396 9.917 3.616 2.717-2.22 6.133-3.616 9.921-3.616 8.671 0 15.704 7.029 15.704 15.708 0 6.675-4.188 12.346-10.063 14.621-.712 8.004-7.37 14.312-15.562 14.312-8.196 0-14.854-6.308-15.567-14.312-5.875-2.275-10.058-7.946-10.058-14.621Z" style="fill:#fff;fill-rule:nonzero;stroke:#231f20;stroke-width:8.67px;stroke-linecap:butt;stroke-miterlimit:10"/>
  <path d="M2037.94 1340.35c0-8.679 7.033-15.708 15.704-15.708 3.783 0 7.212 1.396 9.912 3.616 2.717-2.22 6.138-3.616 9.921-3.616 8.683 0 15.704 7.029 15.704 15.708 0 6.675-4.183 12.346-10.058 14.621-.713 8.004-7.363 14.312-15.558 14.312-8.205 0-14.851-6.308-15.563-14.312-5.887-2.275-10.062-7.946-10.062-14.621" style="fill:#fff;fill-rule:nonzero"/>
  <path d="M2037.94 1340.35c0-8.679 7.033-15.708 15.704-15.708 3.783 0 7.212 1.396 9.912 3.616 2.717-2.22 6.138-3.616 9.921-3.616 8.683 0 15.704 7.029 15.704 15.708 0 6.675-4.183 12.346-10.058 14.621-.713 8.004-7.363 14.312-15.558 14.312-8.205 0-14.851-6.308-15.563-14.312-5.887-2.275-10.062-7.946-10.062-14.621Z" style="fill:#fff;fill-rule:nonzero;stroke:#231f20;stroke-width:8.67px;stroke-linecap:butt;stroke-miterlimit:10"/>
  <path d="M2220.56 1028.38V891.109c0-11.591-9.391-20.983-20.987-20.983h-56.617c-11.579 0-20.971 9.392-20.971 20.983v137.271h98.584-.009Z" style="fill:#fff;fill-rule:nonzero;stroke:#231f20;stroke-width:8.67px;stroke-linecap:butt;stroke-miterlimit:10"/>
  <path d="M2220.56 998.617h-98.575" style="fill:none;fill-rule:nonzero;stroke:#231f20;stroke-width:8.67px;stroke-linecap:butt;stroke-miterlimit:10"/>
  <path d="M2220.56 916.183h-98.575" style="fill:none;fill-rule:nonzero;stroke:#231f20;stroke-width:8.67px;stroke-linecap:butt;stroke-miterlimit:10"/>
  <path d="M2181.12 774.771h-19.725c-8.608 0-15.588 6.987-15.588 15.6l.001 79.791h50.912v-79.791c0-8.613-6.979-15.6-15.608-15.6h.008Z" style="fill:#fff;fill-rule:nonzero;stroke:#231f20;stroke-width:8.67px;stroke-linecap:butt;stroke-miterlimit:10"/>
  <path d="M2184.6 774.771h-26.667l4.809-139.654c.166-4.592 3.933-8.23 8.525-8.23 4.583 0 8.35 3.638 8.508 8.23l4.825 139.654Z" style="fill:#fff;fill-rule:nonzero;stroke:#231f20;stroke-width:8.67px;stroke-linecap:butt;stroke-miterlimit:10"/>
  <path d="M2182.98 676.992h-23.437c-4.463 0-8.084-3.621-8.084-8.079 0-4.463 3.621-8.084 8.084-8.084h23.437c4.459 0 8.08 3.621 8.08 8.084 0 4.458-3.621 8.079-8.08 8.079Z" style="fill:#fff;fill-rule:nonzero;stroke:#231f20;stroke-width:8.67px;stroke-linecap:butt;stroke-miterlimit:10"/>
  <path d="M1919.7 1028.38V891.109c0-11.591-9.392-20.983-20.979-20.983h-56.617c-11.587 0-20.987 9.392-20.987 20.983v137.271h98.583Z" style="fill:#fff;fill-rule:nonzero;stroke:#231f20;stroke-width:8.67px;stroke-linecap:butt;stroke-miterlimit:10"/>
  <path d="M1919.7 998.617h-98.583" style="fill:none;fill-rule:nonzero;stroke:#231f20;stroke-width:8.67px;stroke-linecap:butt;stroke-miterlimit:10"/>
  <path d="M1919.7 916.183h-98.583" style="fill:none;fill-rule:nonzero;stroke:#231f20;stroke-width:8.67px;stroke-linecap:butt;stroke-miterlimit:10"/>
  <path d="M1880.27 774.771h-19.717c-8.617 0-15.587 6.987-15.587 15.6v79.791h50.9v-79.791c0-8.613-6.988-15.6-15.596-15.6Z" style="fill:#fff;fill-rule:nonzero;stroke:#231f20;stroke-width:8.67px;stroke-linecap:butt;stroke-miterlimit:10"/>
  <path d="M1883.75 774.771h-26.667l4.817-139.654c.167-4.592 3.933-8.23 8.516-8.23 4.592 0 8.359 3.638 8.517 8.23l4.817 139.654Z" style="fill:#fff;fill-rule:nonzero;stroke:#231f20;stroke-width:8.67px;stroke-linecap:butt;stroke-miterlimit:10"/>
  <path d="M1882.12 676.992h-23.429c-4.459 0-8.079-3.621-8.079-8.079 0-4.463 3.62-8.084 8.079-8.084h23.429c4.471 0 8.091 3.621 8.091 8.084.001 4.458-3.62 8.079-8.091 8.079Z" style="fill:#fff;fill-rule:nonzero;stroke:#231f20;stroke-width:8.67px;stroke-linecap:butt;stroke-miterlimit:10"/>
  <path d="M2521.42 1028.38V891.109c0-11.591-9.396-20.983-20.992-20.983h-56.612c-11.592 0-20.984 9.392-20.984 20.983v137.271h98.588Z" style="fill:#fff;fill-rule:nonzero;stroke:#231f20;stroke-width:8.67px;stroke-linecap:butt;stroke-miterlimit:10"/>
  <path d="M2521.42 998.617h-98.588" style="fill:none;fill-rule:nonzero;stroke:#231f20;stroke-width:8.67px;stroke-linecap:butt;stroke-miterlimit:10"/>
  <path d="M2521.42 916.183h-98.588" style="fill:none;fill-rule:nonzero;stroke:#231f20;stroke-width:8.67px;stroke-linecap:butt;stroke-miterlimit:10"/>
  <path d="M2481.97 774.771h-19.712c-8.613 0-15.592 6.987-15.592 15.6v79.791h50.912v-79.791c0-8.613-6.987-15.6-15.608-15.6Z" style="fill:#fff;fill-rule:nonzero;stroke:#231f20;stroke-width:8.67px;stroke-linecap:butt;stroke-miterlimit:10"/>
  <path d="M2485.45 774.771h-26.666l4.812-139.654c.163-4.592 3.929-8.23 8.521-8.23 4.583 0 8.362 3.638 8.508 8.23l4.825 139.654Z" style="fill:#fff;fill-rule:nonzero;stroke:#231f20;stroke-width:8.67px;stroke-linecap:butt;stroke-miterlimit:10"/>
  <path d="M2483.84 676.992h-23.43c-4.47 0-8.083-3.621-8.083-8.079 0-4.463 3.613-8.084 8.083-8.084h23.43c4.47 0 8.079 3.621 8.079 8.084 0 4.458-3.609 8.079-8.079 8.079Z" style="fill:#fff;fill-rule:nonzero;stroke:#231f20;stroke-width:8.67px;stroke-linecap:butt;stroke-miterlimit:10"/>
  <path d="M2359.62 1028.38V914.301c0-9.625-7.804-17.438-17.438-17.438h-47.058c-9.625 0-17.429 7.813-17.429 17.438v114.079h81.925Z" style="fill:#fff;fill-rule:nonzero;stroke:#231f20;stroke-width:8.67px;stroke-linecap:butt;stroke-miterlimit:10"/>
  <path d="M2359.62 1003.64h-81.925" style="fill:none;fill-rule:nonzero;stroke:#231f20;stroke-width:8.67px;stroke-linecap:butt;stroke-miterlimit:10"/>
  <path d="M2359.62 935.142h-81.925" style="fill:none;fill-rule:nonzero;stroke:#231f20;stroke-width:8.67px;stroke-linecap:butt;stroke-miterlimit:10"/>
  <path d="M2326.85 817.608h-16.383c-7.159 0-12.959 5.809-12.959 12.971v66.308h42.308v-66.308c0-7.162-5.808-12.971-12.966-12.971Z" style="fill:#fff;fill-rule:nonzero;stroke:#231f20;stroke-width:8.67px;stroke-linecap:butt;stroke-miterlimit:10"/>
  <path d="M2329.73 817.608h-22.158l4.008-116.058c.129-3.812 3.254-6.842 7.075-6.842 3.813 0 6.938 3.03 7.075 6.842l4 116.058Z" style="fill:#fff;fill-rule:nonzero;stroke:#231f20;stroke-width:8.67px;stroke-linecap:butt;stroke-miterlimit:10"/>
  <path d="M2328.39 736.358h-19.479c-3.709 0-6.721-3.012-6.721-6.708v-.008c0-3.709 3.012-6.713 6.721-6.713h19.479c3.712 0 6.708 3.004 6.708 6.713v.008c0 3.696-2.996 6.708-6.708 6.708Z" style="fill:#fff;fill-rule:nonzero;stroke:#231f20;stroke-width:8.67px;stroke-linecap:butt;stroke-miterlimit:10"/>
  <path d="m2064.84 1028.38-.001-114.079c.001-9.625-7.791-17.438-17.437-17.438h-47.058c-9.625 0-17.429 7.813-17.429 17.438v114.079h81.925Z" style="fill:#fff;fill-rule:nonzero;stroke:#231f20;stroke-width:8.67px;stroke-linecap:butt;stroke-miterlimit:10"/>
  <path d="M2064.84 1003.64h-81.926" style="fill:none;fill-rule:nonzero;stroke:#231f20;stroke-width:8.67px;stroke-linecap:butt;stroke-miterlimit:10"/>
  <path d="M2064.84 935.142h-81.926" style="fill:none;fill-rule:nonzero;stroke:#231f20;stroke-width:8.67px;stroke-linecap:butt;stroke-miterlimit:10"/>
  <path d="M2032.07 817.608h-16.379c-7.163 0-12.971 5.809-12.971 12.971v66.308h42.308v-66.308c0-7.162-5.796-12.971-12.958-12.971Z" style="fill:#fff;fill-rule:nonzero;stroke:#231f20;stroke-width:8.67px;stroke-linecap:butt;stroke-miterlimit:10"/>
  <path d="M2034.96 817.608h-22.163l4-116.058c.142-3.812 3.267-6.842 7.083-6.842 3.813 0 6.938 3.03 7.067 6.842l4.013 116.058Z" style="fill:#fff;fill-rule:nonzero;stroke:#231f20;stroke-width:8.67px;stroke-linecap:butt;stroke-miterlimit:10"/>
  <path d="M2033.62 736.358h-19.479c-3.709 0-6.721-3.012-6.721-6.708v-.008c0-3.709 3.012-6.713 6.721-6.713h19.479c3.704 0 6.708 3.004 6.708 6.713v.008c0 3.696-3.004 6.708-6.708 6.708Z" style="fill:#fff;fill-rule:nonzero;stroke:#231f20;stroke-width:8.67px;stroke-linecap:butt;stroke-miterlimit:10"/>
  <path d="M2171.27 626.888V383.225" style="fill:none;fill-rule:nonzero;stroke:#231f20;stroke-width:8.67px;stroke-linecap:butt;stroke-miterlimit:10"/>
  <path d="M1100.14 3215.33v-199.391c0-16.834-13.638-30.48-30.475-30.48h-82.242c-16.838 0-30.475 13.646-30.475 30.48v268.679l143.192-69.288Z" style="fill:#fff;fill-rule:nonzero;stroke:#231f20;stroke-width:8.67px;stroke-linecap:butt;stroke-miterlimit:10"/>
  <path d="M1100.14 3172.1H956.948" style="fill:none;fill-rule:nonzero;stroke:#231f20;stroke-width:8.67px;stroke-linecap:butt;stroke-miterlimit:10"/>
  <path d="M1100.14 3052.38H956.948" style="fill:none;fill-rule:nonzero;stroke:#231f20;stroke-width:8.67px;stroke-linecap:butt;stroke-miterlimit:10"/>
  <path style="fill:#fff;stroke:#231f20;stroke-width:8.67px;stroke-linecap:butt;stroke-miterlimit:10" d="M991.567 2846.96h73.958v138.567h-73.958z"/>
  <path d="M1047.92 2846.96h-38.742l7.004-202.85c.23-6.675 5.705-11.95 12.371-11.95 6.667 0 12.138 5.275 12.363 11.95l7.004 202.85Z" style="fill:#fff;fill-rule:nonzero;stroke:#231f20;stroke-width:8.67px;stroke-linecap:butt;stroke-miterlimit:10"/>
  <path d="M1045.57 2704.93h-34.042c-6.479 0-11.729-5.25-11.729-11.742 0-6.479 5.25-11.729 11.729-11.729h34.042c6.487 0 11.737 5.25 11.737 11.729 0 6.492-5.25 11.742-11.737 11.742Z" style="fill:#fff;fill-rule:nonzero;stroke:#231f20;stroke-width:8.67px;stroke-linecap:butt;stroke-miterlimit:10"/>
  <path d="m1630.86 3041.49-291.101-140.859-291.104 140.858v915.567h582.205l-.001-915.567Z" style="fill:#fff;fill-rule:nonzero;stroke:#231f20;stroke-width:8.67px;stroke-linecap:butt;stroke-miterlimit:10"/>
  <path d="M1339.76 3050.1s-176.071 71.988-176.071 223.792v431.962h352.137v-431.962c0-151.804-176.066-223.792-176.066-223.792Z" style="fill:#fff;fill-rule:nonzero;stroke:#231f20;stroke-width:8.67px;stroke-linecap:butt;stroke-miterlimit:10"/>
  <path d="M1215.56 3384.8s-19 7.779-19 24.158v265.608h37.996v-265.608c0-16.379-18.996-24.158-18.996-24.158Z" style="fill:#fff;fill-rule:nonzero;stroke:#231f20;stroke-width:8.67px;stroke-linecap:butt;stroke-miterlimit:10"/>
  <path d="M1277.65 3384.8s-18.992 7.779-18.992 24.158v265.608h37.996v-265.608c0-16.379-19.004-24.158-19.004-24.158Z" style="fill:#fff;fill-rule:nonzero;stroke:#231f20;stroke-width:8.67px;stroke-linecap:butt;stroke-miterlimit:10"/>
  <path d="M1339.76 3356.5s-19.005 7.771-19.005 24.15v293.916h38.005V3380.65c0-16.379-19-24.15-19-24.15Z" style="fill:#fff;fill-rule:nonzero;stroke:#231f20;stroke-width:8.67px;stroke-linecap:butt;stroke-miterlimit:10"/>
  <path d="M1401.86 3384.8s-19.005 7.779-19.005 24.158v265.608h37.996v-265.608c0-16.379-18.991-24.158-18.991-24.158Z" style="fill:#fff;fill-rule:nonzero;stroke:#231f20;stroke-width:8.67px;stroke-linecap:butt;stroke-miterlimit:10"/>
  <path d="M1463.95 3384.8s-18.991 7.779-18.991 24.158v265.608h37.991v-265.608c0-16.379-19-24.158-19-24.158Z" style="fill:#fff;fill-rule:nonzero;stroke:#231f20;stroke-width:8.67px;stroke-linecap:butt;stroke-miterlimit:10"/>
  <path d="M1261.5 3330.89c0-8.675-7.029-15.713-15.7-15.713-3.779 0-7.208 1.396-9.917 3.617-2.716-2.221-6.133-3.617-9.921-3.617-8.679 0-15.704 7.038-15.704 15.713 0 6.675 4.188 12.341 10.063 14.616.712 8.005 7.362 14.305 15.562 14.305 8.196 0 14.854-6.3 15.567-14.305 5.875-2.275 10.05-7.941 10.05-14.616" style="fill:#fff;fill-rule:nonzero"/>
  <path d="M1261.5 3330.89c0-8.675-7.029-15.713-15.7-15.713-3.779 0-7.208 1.396-9.917 3.617-2.716-2.221-6.133-3.617-9.921-3.617-8.679 0-15.704 7.038-15.704 15.713 0 6.675 4.188 12.341 10.063 14.616.712 8.005 7.362 14.305 15.562 14.305 8.196 0 14.854-6.3 15.567-14.305 5.875-2.275 10.05-7.941 10.05-14.616Z" style="fill:#fff;fill-rule:nonzero;stroke:#231f20;stroke-width:8.67px;stroke-linecap:butt;stroke-miterlimit:10"/>
  <path d="M1469.27 3330.89c0-8.675-7.034-15.713-15.713-15.713-3.775 0-7.204 1.396-9.912 3.617-2.717-2.221-6.13-3.617-9.921-3.617-8.675 0-15.696 7.038-15.696 15.713 0 6.675 4.175 12.341 10.054 14.616.717 8.005 7.367 14.305 15.563 14.305 8.196 0 14.854-6.3 15.562-14.305 5.879-2.275 10.063-7.941 10.063-14.616" style="fill:#fff;fill-rule:nonzero"/>
  <path d="M1469.27 3330.89c0-8.675-7.034-15.713-15.713-15.713-3.775 0-7.204 1.396-9.912 3.617-2.717-2.221-6.13-3.617-9.921-3.617-8.675 0-15.696 7.038-15.696 15.713 0 6.675 4.175 12.341 10.054 14.616.717 8.005 7.367 14.305 15.563 14.305 8.196 0 14.854-6.3 15.562-14.305 5.879-2.275 10.063-7.941 10.063-14.616Z" style="fill:#fff;fill-rule:nonzero;stroke:#231f20;stroke-width:8.67px;stroke-linecap:butt;stroke-miterlimit:10"/>
  <path d="M1434.84 3217.56c0 52.509-42.567 95.075-95.075 95.075-52.509 0-95.08-42.566-95.08-95.075 0-52.512 42.571-95.079 95.08-95.079 52.508 0 95.075 42.567 95.075 95.079" style="fill:#fff;fill-rule:nonzero"/>
  <path d="M1434.84 3217.56c0-52.475-42.605-95.079-95.075-95.079-52.475 0-95.08 42.604-95.08 95.079 0 52.471 42.605 95.075 95.08 95.075 52.47 0 95.075-42.604 95.075-95.075Z" style="fill:#fff;stroke:#231f20;stroke-width:8.67px;stroke-linecap:butt;stroke-miterlimit:10"/>
  <path d="M1268.35 3198.33c0 8.671 7.033 15.713 15.713 15.713 3.775 0 7.204-1.409 9.912-3.621 2.717 2.212 6.138 3.621 9.921 3.621 8.675 0 15.704-7.042 15.704-15.713 0-6.683-4.183-12.346-10.058-14.617-.713-8.004-7.371-14.316-15.567-14.316-8.191 0-14.85 6.312-15.562 14.316-5.88 2.271-10.063 7.934-10.063 14.617" style="fill:#fff;fill-rule:nonzero"/>
  <path d="M1268.35 3198.33c0 8.671 7.033 15.713 15.713 15.713 3.775 0 7.204-1.409 9.912-3.621 2.717 2.212 6.138 3.621 9.921 3.621 8.675 0 15.704-7.042 15.704-15.713 0-6.683-4.183-12.346-10.058-14.617-.713-8.004-7.371-14.316-15.567-14.316-8.191 0-14.85 6.312-15.562 14.316-5.88 2.271-10.063 7.934-10.063 14.617Z" style="fill:#fff;fill-rule:nonzero;stroke:#231f20;stroke-width:8.67px;stroke-linecap:butt;stroke-miterlimit:10"/>
  <path d="M1359.92 3198.33c0 8.671 7.033 15.713 15.704 15.713 3.775 0 7.204-1.409 9.912-3.621 2.717 2.212 6.138 3.621 9.921 3.621 8.675 0 15.704-7.042 15.704-15.713 0-6.683-4.183-12.346-10.058-14.617-.712-8.004-7.362-14.316-15.567-14.316-8.195 0-14.85 6.312-15.562 14.316-5.879 2.271-10.054 7.934-10.054 14.617" style="fill:#fff;fill-rule:nonzero"/>
  <path d="M1359.92 3198.33c0 8.671 7.033 15.713 15.704 15.713 3.775 0 7.204-1.409 9.912-3.621 2.717 2.212 6.138 3.621 9.921 3.621 8.675 0 15.704-7.042 15.704-15.713 0-6.683-4.183-12.346-10.058-14.617-.712-8.004-7.362-14.316-15.567-14.316-8.195 0-14.85 6.312-15.562 14.316-5.879 2.271-10.054 7.934-10.054 14.617Z" style="fill:#fff;fill-rule:nonzero;stroke:#231f20;stroke-width:8.67px;stroke-linecap:butt;stroke-miterlimit:10"/>
  <path d="M1314.14 3267.38c0 8.671 7.037 15.713 15.712 15.713 3.775 0 7.204-1.409 9.913-3.621 2.716 2.212 6.137 3.621 9.92 3.621 8.671 0 15.705-7.042 15.705-15.713 0-6.683-4.184-12.345-10.063-14.616-.712-8.005-7.371-14.317-15.563-14.317-8.195 0-14.854 6.312-15.566 14.317-5.875 2.27-10.058 7.933-10.058 14.616" style="fill:#fff;fill-rule:nonzero"/>
  <path d="M1314.14 3267.38c0 8.671 7.037 15.713 15.712 15.713 3.775 0 7.204-1.409 9.913-3.621 2.716 2.212 6.137 3.621 9.92 3.621 8.671 0 15.705-7.042 15.705-15.713 0-6.683-4.184-12.345-10.063-14.616-.712-8.005-7.371-14.317-15.563-14.317-8.195 0-14.854 6.312-15.566 14.317-5.875 2.27-10.058 7.933-10.058 14.616Z" style="fill:#fff;fill-rule:nonzero;stroke:#231f20;stroke-width:8.67px;stroke-linecap:butt;stroke-miterlimit:10"/>
  <path d="M1629.54 3774.72H920.56" style="fill:none;fill-rule:nonzero;stroke:#231f20;stroke-width:8.67px;stroke-linecap:butt;stroke-miterlimit:10"/>
  <path d="M1629.54 3875.67H920.56" style="fill:none;fill-rule:nonzero;stroke:#231f20;stroke-width:8.67px;stroke-linecap:butt;stroke-miterlimit:10"/>
  <path d="M1629.54 3917.92H920.56" style="fill:none;fill-rule:nonzero;stroke:#231f20;stroke-width:8.67px;stroke-linecap:butt;stroke-miterlimit:10"/>
  <path d="m1339.76 2900.63-291.105 140.859v44.6l291.105-140.85 291.1 140.85v-44.6l-291.1-140.859Z" style="fill:#fff;fill-rule:nonzero;stroke:#231f20;stroke-width:8.67px;stroke-linecap:butt;stroke-miterlimit:10"/>
  <path d="M920.558 3305.2v651.85h128.1v-713.837l-128.1 61.987Z" style="fill:#fff;fill-rule:nonzero;stroke:#231f20;stroke-width:8.67px;stroke-linecap:butt;stroke-miterlimit:10"/>
  <path d="m1222.38 2957.43 11.692-5.65-11.692 5.65Z" style="fill:#fff;fill-rule:nonzero;stroke:#231f20;stroke-width:8.67px;stroke-linecap:butt;stroke-miterlimit:10"/>
  <path d="M1286.78 2809.08v117.188l52.987-25.634 291.101 140.85-.001 208.942V2809.08H1286.78Z" style="fill:#fff;fill-rule:nonzero;stroke:#231f20;stroke-width:8.67px;stroke-linecap:butt;stroke-miterlimit:10"/>
  <path d="m1222.25 2510.94 28.304 185.45h-25c16.825 0 58.779 13.654 58.779 30.487v76.388l2.446 5.816h344.079V2510.94H1222.25Z" style="fill:#fff;fill-rule:nonzero;stroke:#231f20;stroke-width:8.67px;stroke-linecap:butt;stroke-miterlimit:10"/>
  <path d="M1284.34 2926.26v-199.392c0-16.833-13.646-30.479-30.48-30.479h-82.237c-16.842 0-30.488 13.645-30.488 30.479v268.679l143.205-69.287Z" style="fill:#fff;fill-rule:nonzero;stroke:#231f20;stroke-width:8.67px;stroke-linecap:butt;stroke-miterlimit:10"/>
  <path d="M1284.34 2883.03h-143.205" style="fill:none;fill-rule:nonzero;stroke:#231f20;stroke-width:8.67px;stroke-linecap:butt;stroke-miterlimit:10"/>
  <path d="M1284.34 2763.3h-143.205" style="fill:none;fill-rule:nonzero;stroke:#231f20;stroke-width:8.67px;stroke-linecap:butt;stroke-miterlimit:10"/>
  <path style="fill:#fff;stroke:#231f20;stroke-width:8.67px;stroke-linecap:butt;stroke-miterlimit:10" d="M1175.76 2557.89h73.95v138.567h-73.95z"/>
  <path d="M1232.1 2557.89h-38.734l7.009-202.859c.225-6.666 5.691-11.941 12.367-11.941 6.658-.001 12.137 5.274 12.362 11.941l6.996 202.859Z" style="fill:#fff;fill-rule:nonzero;stroke:#231f20;stroke-width:8.67px;stroke-linecap:butt;stroke-miterlimit:10"/>
  <path d="M1229.76 2415.85h-34.046c-6.484 0-11.738-5.242-11.738-11.733 0-6.488 5.254-11.729 11.738-11.729h34.046c6.475 0 11.733 5.241 11.733 11.729 0 6.491-5.258 11.733-11.733 11.733Z" style="fill:#fff;fill-rule:nonzero;stroke:#231f20;stroke-width:8.67px;stroke-linecap:butt;stroke-miterlimit:10"/>
  <path d="M3240.13 3215.33v-199.391c0-16.834 13.638-30.48 30.479-30.48h82.238c16.842 0 30.488 13.646 30.488 30.48v268.679l-143.205-69.288Z" style="fill:#fff;fill-rule:nonzero;stroke:#231f20;stroke-width:8.67px;stroke-linecap:butt;stroke-miterlimit:10"/>
  <path d="M3240.13 3172.1h143.204" style="fill:none;fill-rule:nonzero;stroke:#231f20;stroke-width:8.67px;stroke-linecap:butt;stroke-miterlimit:10"/>
  <path d="M3240.13 3052.38h143.204" style="fill:none;fill-rule:nonzero;stroke:#231f20;stroke-width:8.67px;stroke-linecap:butt;stroke-miterlimit:10"/>
  <path style="fill:#fff;stroke:#231f20;stroke-width:8.67px;stroke-linecap:butt;stroke-miterlimit:10" d="M3274.76 2846.96h73.95v138.567h-73.95z"/>
  <path d="M3292.36 2846.96h38.742l-7.008-202.85c-.225-6.675-5.692-11.95-12.367-11.95-6.658 0-12.137 5.275-12.362 11.95l-7.005 202.85Z" style="fill:#fff;fill-rule:nonzero;stroke:#231f20;stroke-width:8.67px;stroke-linecap:butt;stroke-miterlimit:10"/>
  <path d="M3294.71 2704.93h34.046c6.484 0 11.738-5.25 11.738-11.742 0-6.479-5.254-11.729-11.738-11.729h-34.046c-6.475 0-11.733 5.25-11.733 11.729 0 6.492 5.258 11.742 11.733 11.742Z" style="fill:#fff;fill-rule:nonzero;stroke:#231f20;stroke-width:8.67px;stroke-linecap:butt;stroke-miterlimit:10"/>
  <path d="m2709.42 3041.49 291.096-140.859 291.104 140.858v915.567h-582.2v-915.567Z" style="fill:#fff;fill-rule:nonzero;stroke:#231f20;stroke-width:8.67px;stroke-linecap:butt;stroke-miterlimit:10"/>
  <path d="M3000.52 3050.1s176.066 71.988 176.066 223.792v431.962h-352.133v-431.962c0-151.804 176.067-223.792 176.067-223.792Z" style="fill:#fff;fill-rule:nonzero;stroke:#231f20;stroke-width:8.67px;stroke-linecap:butt;stroke-miterlimit:10"/>
  <path d="M3124.72 3384.8s19.004 7.779 19.004 24.158v265.608h-37.996v-265.608c0-16.379 18.992-24.158 18.992-24.158Z" style="fill:#fff;fill-rule:nonzero;stroke:#231f20;stroke-width:8.67px;stroke-linecap:butt;stroke-miterlimit:10"/>
  <path d="M3062.62 3384.8s18.991 7.779 18.991 24.158v265.608h-37.991v-265.608c0-16.379 19-24.158 19-24.158Z" style="fill:#fff;fill-rule:nonzero;stroke:#231f20;stroke-width:8.67px;stroke-linecap:butt;stroke-miterlimit:10"/>
  <path d="M3000.52 3356.5s19 7.771 19 24.15v293.916h-37.992V3380.65c0-16.379 18.992-24.15 18.992-24.15Z" style="fill:#fff;fill-rule:nonzero;stroke:#231f20;stroke-width:8.67px;stroke-linecap:butt;stroke-miterlimit:10"/>
  <path d="M2938.43 3384.8s18.992 7.779 18.992 24.158v265.608h-37.996v-265.608c0-16.379 19.004-24.158 19.004-24.158Z" style="fill:#fff;fill-rule:nonzero;stroke:#231f20;stroke-width:8.67px;stroke-linecap:butt;stroke-miterlimit:10"/>
  <path d="M2876.33 3384.8s18.992 7.779 18.992 24.158v265.608h-37.996v-265.608c0-16.379 18.996-24.158 18.996-24.158h.008Z" style="fill:#fff;fill-rule:nonzero;stroke:#231f20;stroke-width:8.67px;stroke-linecap:butt;stroke-miterlimit:10"/>
  <path d="M3078.78 3330.89c0-8.675 7.034-15.713 15.704-15.713 3.784 0 7.213 1.396 9.913 3.617 2.717-2.221 6.137-3.617 9.921-3.617 8.683 0 15.704 7.038 15.704 15.713 0 6.675-4.184 12.341-10.058 14.616-.713 8.005-7.363 14.305-15.559 14.305-8.2 0-14.85-6.3-15.562-14.305-5.888-2.275-10.063-7.941-10.063-14.616" style="fill:#fff;fill-rule:nonzero"/>
  <path d="M3078.78 3330.89c0-8.675 7.034-15.713 15.704-15.713 3.784 0 7.213 1.396 9.913 3.617 2.717-2.221 6.137-3.617 9.921-3.617 8.683 0 15.704 7.038 15.704 15.713 0 6.675-4.184 12.341-10.058 14.616-.713 8.005-7.363 14.305-15.559 14.305-8.2 0-14.85-6.3-15.562-14.305-5.888-2.275-10.063-7.941-10.063-14.616Z" style="fill:#fff;fill-rule:nonzero;stroke:#231f20;stroke-width:8.67px;stroke-linecap:butt;stroke-miterlimit:10"/>
  <path d="M2871.01 3330.89c0-8.675 7.037-15.713 15.712-15.713 3.775 0 7.204 1.396 9.913 3.617 2.716-2.221 6.137-3.617 9.92-3.617 8.671 0 15.704 7.038 15.704 15.713 0 6.675-4.183 12.341-10.062 14.616-.713 8.005-7.371 14.305-15.563 14.305-8.195 0-14.854-6.3-15.566-14.305-5.875-2.275-10.059-7.941-10.059-14.616" style="fill:#fff;fill-rule:nonzero"/>
  <path d="M2871.01 3330.89c0-8.675 7.037-15.713 15.712-15.713 3.775 0 7.204 1.396 9.913 3.617 2.716-2.221 6.137-3.617 9.92-3.617 8.671 0 15.704 7.038 15.704 15.713 0 6.675-4.183 12.341-10.062 14.616-.713 8.005-7.371 14.305-15.563 14.305-8.195 0-14.854-6.3-15.566-14.305-5.875-2.275-10.059-7.941-10.059-14.616Z" style="fill:#fff;fill-rule:nonzero;stroke:#231f20;stroke-width:8.67px;stroke-linecap:butt;stroke-miterlimit:10"/>
  <path d="M2905.45 3217.56c0 52.509 42.562 95.075 95.071 95.075 52.516 0 95.079-42.566 95.079-95.075 0-52.512-42.563-95.079-95.079-95.079-52.509 0-95.071 42.567-95.071 95.079" style="fill:#fff;fill-rule:nonzero"/>
  <path d="M2905.45 3217.56c0 52.471 42.604 95.075 95.071 95.075 52.475 0 95.079-42.604 95.079-95.075 0-52.475-42.604-95.079-95.079-95.079-52.467 0-95.071 42.604-95.071 95.079Z" style="fill:#fff;stroke:#231f20;stroke-width:8.67px;stroke-linecap:butt;stroke-miterlimit:10"/>
  <path d="M3071.92 3198.33c0 8.671-7.029 15.713-15.7 15.713-3.788 0-7.217-1.409-9.913-3.621-2.721 2.212-6.137 3.621-9.925 3.621-8.679 0-15.7-7.042-15.7-15.713 0-6.683 4.175-12.346 10.059-14.617.712-8.004 7.362-14.316 15.554-14.316 8.196 0 14.854 6.312 15.575 14.316 5.866 2.271 10.05 7.934 10.05 14.617" style="fill:#fff;fill-rule:nonzero"/>
  <path d="M3071.92 3198.33c0 8.671-7.029 15.713-15.7 15.713-3.788 0-7.217-1.409-9.913-3.621-2.721 2.212-6.137 3.621-9.925 3.621-8.679 0-15.7-7.042-15.7-15.713 0-6.683 4.175-12.346 10.059-14.617.712-8.004 7.362-14.316 15.554-14.316 8.196 0 14.854 6.312 15.575 14.316 5.866 2.271 10.05 7.934 10.05 14.617Z" style="fill:#fff;fill-rule:nonzero;stroke:#231f20;stroke-width:8.67px;stroke-linecap:butt;stroke-miterlimit:10"/>
  <path d="M2980.37 3198.33c0 8.671-7.042 15.713-15.713 15.713-3.779 0-7.204-1.409-9.912-3.621-2.721 2.212-6.129 3.621-9.925 3.621-8.671 0-15.7-7.042-15.7-15.713 0-6.683 4.183-12.346 10.058-14.617.713-8.004 7.371-14.316 15.567-14.316 8.192 0 14.85 6.312 15.562 14.316 5.875 2.271 10.063 7.934 10.063 14.617" style="fill:#fff;fill-rule:nonzero"/>
  <path d="M2980.37 3198.33c0 8.671-7.042 15.713-15.713 15.713-3.779 0-7.204-1.409-9.912-3.621-2.721 2.212-6.129 3.621-9.925 3.621-8.671 0-15.7-7.042-15.7-15.713 0-6.683 4.183-12.346 10.058-14.617.713-8.004 7.371-14.316 15.567-14.316 8.192 0 14.85 6.312 15.562 14.316 5.875 2.271 10.063 7.934 10.063 14.617Z" style="fill:#fff;fill-rule:nonzero;stroke:#231f20;stroke-width:8.67px;stroke-linecap:butt;stroke-miterlimit:10"/>
  <path d="M3026.14 3267.38c0 8.671-7.042 15.713-15.713 15.713-3.775 0-7.204-1.409-9.912-3.621-2.709 2.212-6.13 3.621-9.921 3.621-8.675 0-15.704-7.042-15.704-15.713 0-6.683 4.183-12.345 10.062-14.616.717-8.005 7.367-14.317 15.563-14.317 8.195 0 14.854 6.312 15.562 14.317 5.879 2.27 10.063 7.933 10.063 14.616" style="fill:#fff;fill-rule:nonzero"/>
  <path d="M3026.14 3267.38c0 8.671-7.042 15.713-15.713 15.713-3.775 0-7.204-1.409-9.912-3.621-2.709 2.212-6.13 3.621-9.921 3.621-8.675 0-15.704-7.042-15.704-15.713 0-6.683 4.183-12.345 10.062-14.616.717-8.005 7.367-14.317 15.563-14.317 8.195 0 14.854 6.312 15.562 14.317 5.879 2.27 10.063 7.933 10.063 14.616Z" style="fill:#fff;fill-rule:nonzero;stroke:#231f20;stroke-width:8.67px;stroke-linecap:butt;stroke-miterlimit:10"/>
  <path d="M2710.74 3774.72h708.975" style="fill:none;fill-rule:nonzero;stroke:#231f20;stroke-width:8.67px;stroke-linecap:butt;stroke-miterlimit:10"/>
  <path d="M2710.74 3875.67h708.975" style="fill:none;fill-rule:nonzero;stroke:#231f20;stroke-width:8.67px;stroke-linecap:butt;stroke-miterlimit:10"/>
  <path d="M2710.74 3917.92h708.975" style="fill:none;fill-rule:nonzero;stroke:#231f20;stroke-width:8.67px;stroke-linecap:butt;stroke-miterlimit:10"/>
  <path d="m3000.52 2900.63 291.104 140.859v44.6l-291.104-140.85-291.096 140.85v-44.6l291.096-140.859Z" style="fill:#fff;fill-rule:nonzero;stroke:#231f20;stroke-width:8.67px;stroke-linecap:butt;stroke-miterlimit:10"/>
  <path d="M3419.72 3305.2v651.85h-128.096v-713.837l128.096 61.987Z" style="fill:#fff;fill-rule:nonzero;stroke:#231f20;stroke-width:8.67px;stroke-linecap:butt;stroke-miterlimit:10"/>
  <path d="m3117.9 2957.43-11.691-5.65 11.683 5.65h.008Z" style="fill:#fff;fill-rule:nonzero;stroke:#231f20;stroke-width:8.67px;stroke-linecap:butt;stroke-miterlimit:10"/>
  <path d="M3053.5 2809.08v117.188l-52.987-25.634-291.096 140.85v208.942-441.346H3053.5Z" style="fill:#fff;fill-rule:nonzero;stroke:#231f20;stroke-width:8.67px;stroke-linecap:butt;stroke-miterlimit:10"/>
  <path d="m3118.03 2510.94-28.3 185.45h24.992c-16.821 0-58.775 13.654-58.775 30.487v76.388l-2.446 5.816h-344.075V2510.94h408.604Z" style="fill:#fff;fill-rule:nonzero;stroke:#231f20;stroke-width:8.67px;stroke-linecap:butt;stroke-miterlimit:10"/>
  <path d="M3055.94 2926.26v-199.392c0-16.833 13.646-30.479 30.479-30.479h82.237c16.842 0 30.488 13.645 30.488 30.479v268.679l-143.204-69.287Z" style="fill:#fff;fill-rule:nonzero;stroke:#231f20;stroke-width:8.67px;stroke-linecap:butt;stroke-miterlimit:10"/>
  <path d="M3055.94 2883.03h143.204" style="fill:none;fill-rule:nonzero;stroke:#231f20;stroke-width:8.67px;stroke-linecap:butt;stroke-miterlimit:10"/>
  <path d="M3055.94 2763.3h143.204" style="fill:none;fill-rule:nonzero;stroke:#231f20;stroke-width:8.67px;stroke-linecap:butt;stroke-miterlimit:10"/>
  <path style="fill:#fff;stroke:#231f20;stroke-width:8.67px;stroke-linecap:butt;stroke-miterlimit:10" d="M3090.57 2557.89h73.95v138.567h-73.95z"/>
  <path d="M3108.17 2557.89h38.733l-7.004-202.859c-.225-6.666-5.696-11.941-12.363-11.941-6.666-.001-12.133 5.274-12.358 11.941l-7.008 202.859Z" style="fill:#fff;fill-rule:nonzero;stroke:#231f20;stroke-width:8.67px;stroke-linecap:butt;stroke-miterlimit:10"/>
  <path d="M3110.53 2415.85h34.037c6.484 0 11.734-5.242 11.734-11.733 0-6.488-5.25-11.729-11.733-11.729h-34.038c-6.483 0-11.746 5.241-11.746 11.729 0 6.491 5.263 11.733 11.746 11.733Z" style="fill:#fff;fill-rule:nonzero;stroke:#231f20;stroke-width:8.67px;stroke-linecap:butt;stroke-miterlimit:10"/>
  <path d="m2540.6 2457.95-361.579-479.929h-9.396l-361.596 479.929h-177.316v1499.09h1078.86V2457.95h-168.975Z" style="fill:#fff;fill-rule:nonzero;stroke:#231f20;stroke-width:8.67px;stroke-linecap:butt;stroke-miterlimit:10"/>
  <path d="M2165.45 2031.9h9.392l325.437 431.954h61.908l-387.345-514.117h-9.392l-387.35 514.117h61.908L2165.45 2031.9Z" style="fill:#fff;fill-rule:nonzero;stroke:#231f20;stroke-width:8.67px;stroke-linecap:butt;stroke-miterlimit:10"/>
  <path d="M2715.17 3878.96H1625.11" style="fill:none;fill-rule:nonzero;stroke:#231f20;stroke-width:8.67px;stroke-linecap:butt;stroke-miterlimit:10"/>
  <path d="M2715.17 3917.92H1625.11" style="fill:none;fill-rule:nonzero;stroke:#231f20;stroke-width:8.67px;stroke-linecap:butt;stroke-miterlimit:10"/>
  <path style="fill:#fff;stroke:#231f20;stroke-width:8.67px;stroke-linecap:butt;stroke-miterlimit:10" d="M1701.13 2320.3h133.583v1636.75H1701.13z"/>
  <path d="M1784.35 2440.5h-32.866v-44.6c0-9.083 7.354-16.433 16.425-16.433 9.07 0 16.433 7.35 16.433 16.433v44.6h.008Z" style="fill:#fff;fill-rule:nonzero;stroke:#231f20;stroke-width:8.67px;stroke-linecap:butt;stroke-miterlimit:10"/>
  <path d="M1866.17 2330.17h-196.5l87.229-373.267h22.042l87.229 373.267Z" style="fill:#fff;fill-rule:nonzero;stroke:#231f20;stroke-width:8.67px;stroke-linecap:butt;stroke-miterlimit:10"/>
  <path style="fill:#fff;stroke:#231f20;stroke-width:8.67px;stroke-linecap:butt;stroke-miterlimit:10" d="M2505.57 2320.3h133.583v1636.75H2505.57z"/>
  <path d="M2588.79 2440.5h-32.863v-44.6c0-9.083 7.363-16.433 16.425-16.433 9.079 0 16.438 7.35 16.438 16.433l-.001 44.6Z" style="fill:#fff;fill-rule:nonzero;stroke:#231f20;stroke-width:8.67px;stroke-linecap:butt;stroke-miterlimit:10"/>
  <path d="M2670.61 2330.17h-196.513l87.233-373.267h22.046l87.234 373.267Z" style="fill:#fff;fill-rule:nonzero;stroke:#231f20;stroke-width:8.67px;stroke-linecap:butt;stroke-miterlimit:10"/>
  <path d="M2200.66 2194c-.001 16.859-13.663 30.534-30.521 30.534-16.854 0-30.513-13.675-30.513-30.534 0-16.846 13.646-30.508 30.504-30.508 16.859 0 30.521 13.662 30.521 30.508" style="fill:#fff;fill-rule:nonzero"/>
  <path d="M2200.66 2194.02c-.001-16.85-13.68-30.521-30.521-30.521-16.838 0-30.513 13.671-30.513 30.521 0 16.837 13.675 30.521 30.513 30.521 16.841 0 30.512-13.684 30.512-30.521h.008Z" style="fill:#fff;stroke:#231f20;stroke-width:8.67px;stroke-linecap:butt;stroke-miterlimit:10"/>
  <path d="M2170.14 2291.35s-308.342 182.692-308.342 448.542v756.441h616.675v-756.441c0-265.85-308.333-448.542-308.333-448.542Z" style="fill:#fff;fill-rule:nonzero;stroke:#231f20;stroke-width:8.67px;stroke-linecap:butt;stroke-miterlimit:10"/>
  <path style="fill:#fff;stroke:#231f20;stroke-width:8.67px;stroke-linecap:butt;stroke-miterlimit:10" d="M1861.8 3496.33h616.667v85.887H1861.8z"/>
  <path d="M2245.65 2790.47s-57.054 23.333-57.054 72.517v633.15H2302.7v-633.15c0-49.184-57.05-72.517-57.05-72.517Z" style="fill:#fff;fill-rule:nonzero;stroke:#231f20;stroke-width:8.67px;stroke-linecap:butt;stroke-miterlimit:10"/>
  <path d="M2094.63 2790.47s-57.054 23.333-57.054 72.517v633.15h114.104v-633.15c0-49.184-57.05-72.517-57.05-72.517Z" style="fill:#fff;fill-rule:nonzero;stroke:#231f20;stroke-width:8.67px;stroke-linecap:butt;stroke-miterlimit:10"/>
  <path d="M1943.6 2790.47s-57.058 23.333-57.058 72.517v633.15h114.104v-633.15c0-49.184-57.046-72.517-57.046-72.517Z" style="fill:#fff;fill-rule:nonzero;stroke:#231f20;stroke-width:8.67px;stroke-linecap:butt;stroke-miterlimit:10"/>
  <path d="M1886.54 2859.47v636.671h58.071l-1.017-595.513-57.054-41.158Z" style="fill:#fff;stroke:#231f20;stroke-width:8.67px;stroke-linecap:round;stroke-linejoin:round;stroke-miterlimit:10"/>
  <path d="M2038.12 2859.47v636.671h58.071l-1.017-595.513-57.054-41.158Z" style="fill:#fff;stroke:#231f20;stroke-width:8.67px;stroke-linecap:round;stroke-linejoin:round;stroke-miterlimit:10"/>
  <path d="M2188.6 2859.66v636.67h58.071l-1.021-595.512-57.05-41.159Z" style="fill:#fff;stroke:#231f20;stroke-width:8.67px;stroke-linecap:round;stroke-linejoin:round;stroke-miterlimit:10"/>
  <path d="m2339.81 2859.66-.001 636.67h58.075l-1.02-595.512-57.054-41.159Z" style="fill:#fff;stroke:#231f20;stroke-width:8.67px;stroke-linecap:round;stroke-linejoin:round;stroke-miterlimit:10"/>
  <path d="m1943.6 2900.63 1.017 595.513h56.033v-636.671l-57.05 41.158Z" style="fill:#fff;stroke:#231f20;stroke-width:8.67px"/>
  <path d="m2094.41 2900.63 1.021 595.513h56.034l-.001-636.671-57.054 41.158Z" style="fill:#fff;stroke:#231f20;stroke-width:8.67px"/>
  <path d="m2245.65 2900.63 1.021 595.513h56.033v-636.671l-57.054 41.158Z" style="fill:#fff;stroke:#231f20;stroke-width:8.67px"/>
  <path style="fill:#fff;stroke:#231f20;stroke-width:8.67px;stroke-miterlimit:10" d="M1630.72 2457.95h70.417v1421.01h-70.417z"/>
  <path style="fill:#fff;stroke:#231f20;stroke-width:8.67px;stroke-miterlimit:10" d="M2640.33 2457.95h70.417v1421.01h-70.417z"/>
  <path style="fill:#fff;stroke:#231f20;stroke-width:8.67px;stroke-miterlimit:10" d="M1701.13 2625.97h133.583v265.271H1701.13z"/>
  <path style="fill:#fff;stroke:#231f20;stroke-width:8.67px;stroke-miterlimit:10" d="M1701.12 2891.24h133.583v352.146H1701.12z"/>
  <path style="fill:#fff;stroke:#231f20;stroke-width:8.67px;stroke-miterlimit:10" d="M1701.12 3243.22h133.583v340.575H1701.12z"/>
  <path style="fill:#fff;stroke:#231f20;stroke-width:8.67px;stroke-miterlimit:10" d="M1701.12 3583.79h133.583v373.254H1701.12z"/>
  <path style="fill:#fff;stroke:#231f20;stroke-width:8.67px;stroke-miterlimit:10" d="M2505.56 2627.17h133.583v264.067H2505.56z"/>
  <path style="fill:#fff;stroke:#231f20;stroke-width:8.67px;stroke-miterlimit:10" d="M2506.74 2891.24h133.583v351.979H2506.74z"/>
  <path style="fill:#fff;stroke:#231f20;stroke-width:8.67px;stroke-miterlimit:10" d="M2505.57 3243.38h133.583v340.408H2505.57z"/>
  <path style="fill:#fff;stroke:#231f20;stroke-width:8.67px;stroke-miterlimit:10" d="M2506.74 3583.79h133.583v373.262H2506.74z"/>
  <path d="M2396.68 2790.47s-57.058 23.333-57.058 72.517v633.15h114.108v-633.15c0-49.184-57.05-72.517-57.05-72.517Z" style="fill:#fff;fill-rule:nonzero;stroke:#231f20;stroke-width:8.67px;stroke-linecap:butt;stroke-miterlimit:10"/>
  <path d="M2367.17 2583.71c0 108.816-88.213 197.029-197.025 197.029-108.817 0-197.038-88.213-197.038-197.03 0-108.812 88.221-197.024 197.038-197.024 108.812 0 197.025 88.212 197.025 197.025" style="fill:#fff;fill-rule:nonzero"/>
  <path d="M2367.17 2583.71c0-108.742-88.284-197.025-197.034-197.025-108.741 0-197.029 88.283-197.029 197.025 0 108.741 88.288 197.029 197.029 197.029 108.75 0 197.034-88.288 197.034-197.029Z" style="fill:#fff;stroke:#231f20;stroke-width:8.67px;stroke-linecap:butt;stroke-miterlimit:10"/>
  <path d="M1983.61 2719.87c0 25.658-20.8 46.466-46.466 46.466-25.663 0-46.459-20.808-46.459-46.466 0-25.655 20.796-46.459 46.459-46.459 25.666 0 46.466 20.805 46.466 46.459" style="fill:#fff;fill-rule:nonzero"/>
  <path d="M1983.61 2719.88c0-25.65-20.825-46.467-46.466-46.467-25.646 0-46.459 20.817-46.459 46.467 0 25.642 20.813 46.458 46.459 46.458 25.641 0 46.466-20.816 46.466-46.458Z" style="fill:#fff;stroke:#231f20;stroke-width:8.67px;stroke-linecap:butt;stroke-miterlimit:10"/>
  <path d="M2449.6 2719.87c0 25.658-20.8 46.466-46.467 46.466-25.658 0-46.458-20.808-46.458-46.466 0-25.655 20.8-46.459 46.458-46.459 25.667 0 46.467 20.805 46.467 46.459" style="fill:#fff;fill-rule:nonzero"/>
  <path d="M2449.6 2719.88c0-25.65-20.817-46.467-46.458-46.467-25.642 0-46.467 20.817-46.467 46.467 0 25.642 20.825 46.458 46.467 46.458 25.641 0 46.458-20.816 46.458-46.458Z" style="fill:#fff;stroke:#231f20;stroke-width:8.67px;stroke-linecap:butt;stroke-miterlimit:10"/>
  <path d="M2195.94 2583.71c0 14.249-11.555 25.804-25.8 25.804-14.242 0-25.796-11.555-25.796-25.805 0-14.254 11.554-25.8 25.796-25.8 14.245.001 25.8 11.546 25.8 25.8" style="fill:#fff;fill-rule:nonzero"/>
  <path d="M2195.94 2583.71c0-14.246-11.563-25.8-25.8-25.8-14.242 0-25.796 11.554-25.796 25.8 0 14.241 11.554 25.804 25.796 25.804 14.237 0 25.8-11.563 25.8-25.805Z" style="fill:#fff;stroke:#231f20;stroke-width:8.67px;stroke-linecap:butt;stroke-miterlimit:10"/>
  <path d="M2195.94 2731.61c0 14.255-11.555 25.809-25.8 25.809-14.242 0-25.796-11.555-25.796-25.809 0-14.25 11.554-25.804 25.796-25.804 14.245 0 25.8 11.554 25.8 25.804" style="fill:#fff;fill-rule:nonzero"/>
  <path d="M2195.94 2731.61c0-14.241-11.563-25.804-25.8-25.804-14.242 0-25.796 11.563-25.796 25.804 0 14.238 11.554 25.809 25.796 25.809 14.237 0 25.8-11.571 25.8-25.809Z" style="fill:#fff;stroke:#231f20;stroke-width:8.67px;stroke-linecap:butt;stroke-miterlimit:10"/>
  <path d="M2170.14 2609.51v96.296" style="fill:none;fill-rule:nonzero;stroke:#231f20;stroke-width:8.67px;stroke-linecap:butt;stroke-miterlimit:10"/>
  <path d="M2144.34 2435.8c-.001-14.246 11.554-25.8 25.804-25.8 14.237 0 25.791 11.554 25.791 25.8 0 14.263-11.554 25.804-25.791 25.804-14.25 0-25.805-11.541-25.805-25.804" style="fill:#fff;fill-rule:nonzero"/>
  <path d="M2144.34 2435.81c-.001 14.233 11.562 25.795 25.795 25.795 14.238 0 25.8-11.562 25.8-25.795 0-14.246-11.562-25.809-25.8-25.809-14.233 0-25.796 11.563-25.796 25.809Z" style="fill:#fff;stroke:#231f20;stroke-width:8.67px;stroke-linecap:butt;stroke-miterlimit:10"/>
  <path d="M2170.14 2557.91v-96.305" style="fill:none;fill-rule:nonzero;stroke:#231f20;stroke-width:8.67px;stroke-linecap:butt;stroke-miterlimit:10"/>
  <path d="M2170.14 2609.51c-14.25 0-25.804-11.554-25.804-25.804 0-14.246 11.554-25.791 25.804-25.791 14.245 0 25.8 11.545 25.8 25.791 0 14.25-11.555 25.804-25.8 25.804" style="fill:#fff;fill-rule:nonzero"/>
  <path d="M2170.14 2609.51c-14.25 0-25.804-11.554-25.804-25.804 0-14.246 11.554-25.791 25.804-25.791 14.245 0 25.8 11.545 25.8 25.791 0 14.25-11.555 25.804-25.8 25.804Z" style="fill:#fff;fill-rule:nonzero;stroke:#231f20;stroke-width:8.67px;stroke-linecap:butt;stroke-miterlimit:10"/>
  <path d="M2022.25 2609.51c-14.254 0-25.809-11.554-25.809-25.804 0-14.246 11.555-25.791 25.809-25.791 14.25 0 25.804 11.545 25.804 25.791 0 14.25-11.554 25.804-25.804 25.804" style="fill:#fff;fill-rule:nonzero"/>
  <path d="M2022.25 2609.51c-14.254 0-25.809-11.554-25.809-25.804 0-14.246 11.555-25.791 25.809-25.791 14.25 0 25.804 11.545 25.804 25.791 0 14.25-11.554 25.804-25.804 25.804Z" style="fill:#fff;fill-rule:nonzero;stroke:#231f20;stroke-width:8.67px;stroke-linecap:butt;stroke-miterlimit:10"/>
  <path d="m2144.34 2583.71-96.296-.001" style="fill:none;fill-rule:nonzero;stroke:#231f20;stroke-width:8.67px;stroke-linecap:butt;stroke-miterlimit:10"/>
  <path d="M2318.03 2557.91c14.255 0 25.809 11.545 25.809 25.8 0 14.241-11.555 25.795-25.809 25.795-14.254 0-25.8-11.554-25.8-25.796 0-14.254 11.546-25.8 25.8-25.8" style="fill:#fff;fill-rule:nonzero"/>
  <circle cx="2318.04" cy="2583.71" r="25.8" style="fill:#fff;stroke:#231f20;stroke-width:8.67px;stroke-linecap:butt;stroke-miterlimit:10"/>
  <path d="m2195.94 2583.71 96.304-.001" style="fill:none;fill-rule:nonzero;stroke:#231f20;stroke-width:8.67px;stroke-linecap:butt;stroke-miterlimit:10"/>
  <path d="M2188.38 2601.96c-10.066 10.067-26.412 10.067-36.483 0-10.067-10.079-10.067-26.416 0-36.495 10.071-10.067 26.417-10.067 36.483-.001 10.079 10.08 10.079 26.417 0 36.496" style="fill:#fff;fill-rule:nonzero"/>
  <path d="M2188.38 2601.96c10.079-10.07 10.079-26.425 0-36.495-10.066-10.067-26.412-10.067-36.483-.001-10.079 10.071-10.079 26.426 0 36.496 10.071 10.067 26.417 10.067 36.483 0Z" style="fill:#fff;stroke:#231f20;stroke-width:8.67px;stroke-linecap:butt;stroke-miterlimit:10"/>
  <path d="M2083.81 2706.53c-10.07 10.075-26.408 10.075-36.487 0-10.075-10.07-10.075-26.416 0-36.487 10.079-10.075 26.416-10.075 36.487 0 10.075 10.071 10.075 26.417 0 36.487" style="fill:#fff;fill-rule:nonzero"/>
  <path d="M2083.81 2706.53c10.067-10.07 10.067-26.416 0-36.495-10.07-10.067-26.425-10.067-36.495-.001-10.067 10.08-10.067 26.426-.001 36.496 10.071 10.075 26.425 10.075 36.496 0Z" style="fill:#fff;stroke:#231f20;stroke-width:8.67px;stroke-linecap:butt;stroke-miterlimit:10"/>
  <path d="m2151.89 2601.96-68.092 68.088" style="fill:none;fill-rule:nonzero;stroke:#231f20;stroke-width:8.67px;stroke-linecap:butt;stroke-miterlimit:10"/>
  <path d="M2256.47 2460.88c10.079-10.066 26.417-10.066 36.483 0 10.079 10.079 10.079 26.417 0 36.496-10.067 10.067-26.404 10.067-36.483 0-10.071-10.079-10.071-26.417 0-36.496" style="fill:#fff;fill-rule:nonzero"/>
  <path d="M2256.47 2460.88c-10.071 10.071-10.071 26.425 0 36.496 10.071 10.067 26.417 10.067 36.483 0 10.079-10.071 10.079-26.417.008-36.483-10.066-10.079-26.42-10.079-36.491-.013Z" style="fill:#fff;stroke:#231f20;stroke-width:8.67px;stroke-linecap:butt;stroke-miterlimit:10"/>
  <path d="m2188.38 2565.46 68.1-68.088" style="fill:none;fill-rule:nonzero;stroke:#231f20;stroke-width:8.67px;stroke-linecap:butt;stroke-miterlimit:10"/>
  <path d="M2151.89 2601.96c-10.071-10.079-10.071-26.416 0-36.495 10.079-10.067 26.416-10.067 36.491-.001 10.071 10.08 10.071 26.417 0 36.496-10.075 10.067-26.412 10.067-36.491 0" style="fill:#fff;fill-rule:nonzero"/>
  <path d="M2151.89 2601.96c10.079 10.067 26.425 10.067 36.491 0 10.079-10.07 10.079-26.425 0-36.495-10.066-10.067-26.412-10.067-36.491-.001-10.071 10.071-10.071 26.426 0 36.496Z" style="fill:#fff;stroke:#231f20;stroke-width:8.67px;stroke-linecap:butt;stroke-miterlimit:10"/>
  <path d="M2047.32 2497.38c-10.075-10.079-10.075-26.417 0-36.496 10.079-10.066 26.417-10.066 36.487 0 10.075 10.079 10.075 26.417 0 36.496-10.07 10.067-26.408 10.067-36.487 0" style="fill:#fff;fill-rule:nonzero"/>
  <path d="M2047.32 2497.38c10.071 10.067 26.417 10.067 36.487 0 10.067-10.071 10.067-26.425 0-36.496-10.079-10.066-26.425-10.066-36.495 0-10.067 10.079-10.067 26.425.008 36.496Z" style="fill:#fff;stroke:#231f20;stroke-width:8.67px;stroke-linecap:butt;stroke-miterlimit:10"/>
  <path d="m2151.89 2565.46-68.092-68.088" style="fill:none;fill-rule:nonzero;stroke:#231f20;stroke-width:8.67px;stroke-linecap:butt;stroke-miterlimit:10"/>
  <path d="M2292.95 2670.05c10.079 10.071 10.079 26.417 0 36.487-10.067 10.075-26.404 10.075-36.483 0-10.071-10.071-10.071-26.416 0-36.487 10.079-10.075 26.417-10.075 36.483 0" style="fill:#fff;fill-rule:nonzero"/>
  <path d="M2292.96 2670.05c-10.067-10.067-26.413-10.067-36.484 0-10.066 10.071-10.066 26.417 0 36.487 10.071 10.067 26.417 10.067 36.483 0 10.071-10.071 10.071-26.416 0-36.487Z" style="fill:#fff;stroke:#231f20;stroke-width:8.67px;stroke-linecap:butt;stroke-miterlimit:10"/>
  <path d="m2188.38 2601.96 68.1 68.088" style="fill:none;fill-rule:nonzero;stroke:#231f20;stroke-width:8.67px;stroke-linecap:butt;stroke-miterlimit:10"/>
  <path d="M2194 2593.54c-5.434 13.175-20.513 19.454-33.688 14.02-13.166-5.429-19.454-20.504-14.021-33.683 5.426-13.167 20.505-19.454 33.684-14.025 13.166 5.433 19.45 20.508 14.025 33.688" style="fill:#fff;fill-rule:nonzero"/>
  <path d="M2194 2593.54c5.425-13.167-.859-28.255-14.025-33.688-13.163-5.429-28.258.858-33.683 14.025-5.425 13.171.854 28.267 14.02 33.692 13.167 5.425 28.263-.863 33.688-14.03Z" style="fill:#fff;stroke:#231f20;stroke-width:8.67px;stroke-linecap:butt;stroke-miterlimit:10"/>
  <path d="M2137.66 2730.28c-5.438 13.175-20.513 19.45-33.692 14.025-13.167-5.433-19.454-20.512-14.017-33.687 5.425-13.167 20.5-19.454 33.679-14.021 13.167 5.425 19.454 20.504 14.029 33.683" style="fill:#fff;fill-rule:nonzero"/>
  <path d="M2137.66 2730.29c5.425-13.171-.863-28.267-14.03-33.692-13.17-5.425-28.262.863-33.691 14.021-5.425 13.166.862 28.262 14.029 33.687 13.171 5.425 28.254-.858 33.691-14.016Z" style="fill:#fff;stroke:#231f20;stroke-width:8.67px;stroke-linecap:butt;stroke-miterlimit:10"/>
  <path d="m2160.31 2607.57-36.683 89.041" style="fill:none;fill-rule:nonzero;stroke:#231f20;stroke-width:8.67px;stroke-linecap:butt;stroke-miterlimit:10"/>
  <path d="M2202.62 2437.13c5.425-13.175 20.504-19.442 33.683-14.017 13.167 5.425 19.45 20.513 14.025 33.688-5.425 13.171-20.512 19.446-33.687 14.021-13.171-5.425-19.454-20.504-14.021-33.692" style="fill:#fff;fill-rule:nonzero"/>
  <path d="M2202.62 2437.13c-5.425 13.163.858 28.267 14.029 33.692 13.166 5.433 28.262-.85 33.687-14.021 5.434-13.167-.85-28.262-14.016-33.688-13.171-5.433-28.267.851-33.7 14.017Z" style="fill:#fff;stroke:#231f20;stroke-width:8.67px;stroke-linecap:butt;stroke-miterlimit:10"/>
  <path d="m2179.97 2559.86 36.683-89.037" style="fill:none;fill-rule:nonzero;stroke:#231f20;stroke-width:8.67px;stroke-linecap:butt;stroke-miterlimit:10"/>
  <path d="M2160.31 2607.57c-13.179-5.425-19.454-20.505-14.02-33.684 5.425-13.166 20.504-19.45 33.683-14.025 13.166 5.434 19.45 20.513 14.025 33.688-5.434 13.167-20.513 19.454-33.688 14.021" style="fill:#fff;fill-rule:nonzero"/>
  <path d="M2160.31 2607.57c13.167 5.425 28.263-.863 33.688-14.021 5.425-13.167-.858-28.263-14.017-33.688-13.171-5.425-28.266.859-33.691 14.017-5.426 13.171.862 28.267 14.02 33.692Z" style="fill:#fff;stroke:#231f20;stroke-width:8.67px;stroke-linecap:butt;stroke-miterlimit:10"/>
  <path d="M2023.56 2551.22c-13.176-5.425-19.455-20.504-14.025-33.683 5.425-13.167 20.508-19.45 33.687-14.025 13.167 5.425 19.454 20.512 14.021 33.687-5.429 13.171-20.504 19.454-33.684 14.021" style="fill:#fff;fill-rule:nonzero"/>
  <path d="M2023.56 2551.23c13.17 5.425 28.266-.858 33.691-14.029 5.425-13.167-.862-28.263-14.029-33.688-13.167-5.425-28.263.859-33.687 14.025-5.43 13.171.858 28.267 14.024 33.692Z" style="fill:#fff;stroke:#231f20;stroke-width:8.67px;stroke-linecap:butt;stroke-miterlimit:10"/>
  <path d="m2146.29 2573.88-89.042-36.683" style="fill:none;fill-rule:nonzero;stroke:#231f20;stroke-width:8.67px;stroke-linecap:butt;stroke-miterlimit:10"/>
  <path d="M2316.71 2616.19c13.179 5.437 19.454 20.512 14.029 33.691-5.425 13.167-20.505 19.455-33.68 14.03-13.179-5.438-19.462-20.513-14.029-33.692 5.425-13.167 20.505-19.454 33.679-14.029" style="fill:#fff;fill-rule:nonzero"/>
  <path d="M2316.7 2616.19c-13.166-5.425-28.254.862-33.679 14.029-5.425 13.171.858 28.262 14.029 33.691 13.167 5.417 28.263-.87 33.688-14.037 5.425-13.171-.867-28.267-14.038-33.683Z" style="fill:#fff;stroke:#231f20;stroke-width:8.67px;stroke-linecap:butt;stroke-miterlimit:10"/>
  <path d="m2194 2593.54 89.037 36.683" style="fill:none;fill-rule:nonzero;stroke:#231f20;stroke-width:8.67px;stroke-linecap:butt;stroke-miterlimit:10"/>
  <path d="M2180.07 2607.53c-13.163 5.479-28.267-.746-33.742-13.904-5.479-13.142.746-28.246 13.904-33.725 13.142-5.488 28.254.738 33.734 13.887 5.479 13.163-.738 28.267-13.896 33.742" style="fill:#fff;fill-rule:nonzero"/>
  <path d="M2180.06 2607.53c13.15-5.475 19.375-20.587 13.905-33.741-5.48-13.15-20.6-19.375-33.742-13.905-13.15 5.475-19.375 20.6-13.904 33.742 5.475 13.15 20.596 19.383 33.741 13.904Z" style="fill:#fff;stroke:#231f20;stroke-width:8.67px;stroke-linecap:butt;stroke-miterlimit:10"/>
  <path d="M2043.53 2664.38c-13.158 5.479-28.262-.746-33.741-13.904-5.48-13.146.745-28.25 13.904-33.725 13.145-5.479 28.258.746 33.733 13.887 5.479 13.159-.738 28.263-13.896 33.742" style="fill:#fff;fill-rule:nonzero"/>
  <path d="M2043.53 2664.39c13.142-5.475 19.375-20.592 13.896-33.742-5.467-13.142-20.588-19.375-33.733-13.896-13.15 5.475-19.384 20.588-13.905 33.742 5.48 13.141 20.592 19.375 33.742 13.896Z" style="fill:#fff;stroke:#231f20;stroke-width:8.67px;stroke-linecap:butt;stroke-miterlimit:10"/>
  <path d="m2146.32 2593.62-88.9 37.021" style="fill:none;fill-rule:nonzero;stroke:#231f20;stroke-width:8.67px;stroke-linecap:butt;stroke-miterlimit:10"/>
  <path d="M2296.76 2503.04c13.15-5.484 28.254.737 33.734 13.9 5.483 13.15-.738 28.254-13.9 33.729-13.15 5.479-28.263-.746-33.742-13.896-5.467-13.15.75-28.254 13.908-33.733" style="fill:#fff;fill-rule:nonzero"/>
  <path d="M2296.75 2503.03c-13.142 5.471-19.375 20.592-13.9 33.742 5.479 13.142 20.592 19.375 33.742 13.896 13.154-5.475 19.375-20.596 13.908-33.738-5.479-13.154-20.6-19.375-33.75-13.9Z" style="fill:#fff;stroke:#231f20;stroke-width:8.67px;stroke-linecap:butt;stroke-miterlimit:10"/>
  <path d="m2193.95 2573.79 88.896-37.021" style="fill:none;fill-rule:nonzero;stroke:#231f20;stroke-width:8.67px;stroke-linecap:butt;stroke-miterlimit:10"/>
  <path d="M2146.32 2593.62c-5.479-13.15.746-28.254 13.904-33.733 13.142-5.488 28.246.737 33.725 13.896 5.488 13.154-.737 28.266-13.887 33.741-13.163 5.471-28.267-.746-33.742-13.904" style="fill:#fff;fill-rule:nonzero"/>
  <path d="M2146.32 2593.62c5.467 13.15 20.588 19.383 33.742 13.904 13.141-5.475 19.375-20.587 13.896-33.741-5.48-13.15-20.6-19.384-33.742-13.905-13.15 5.475-19.375 20.6-13.896 33.742Z" style="fill:#fff;stroke:#231f20;stroke-width:8.67px;stroke-linecap:butt;stroke-miterlimit:10"/>
  <path d="M2089.47 2457.1c-5.479-13.158.745-28.262 13.896-33.741 13.154-5.475 28.258.745 33.733 13.908 5.479 13.142-.746 28.254-13.888 33.733-13.162 5.467-28.266-.75-33.741-13.9" style="fill:#fff;fill-rule:nonzero"/>
  <path d="M2089.47 2457.1c5.466 13.15 20.591 19.375 33.733 13.908 13.15-5.479 19.375-20.591 13.896-33.741-5.467-13.155-20.592-19.375-33.734-13.909-13.15 5.479-19.375 20.6-13.895 33.742Z" style="fill:#fff;stroke:#231f20;stroke-width:8.67px;stroke-linecap:butt;stroke-miterlimit:10"/>
  <path d="m2160.22 2559.89-37.021-88.896" style="fill:none;fill-rule:nonzero;stroke:#231f20;stroke-width:8.67px;stroke-linecap:butt;stroke-miterlimit:10"/>
  <path d="M2250.81 2710.32c5.475 13.158-.746 28.262-13.9 33.741-13.15 5.48-28.255-.745-33.73-13.908-5.479-13.142.746-28.254 13.896-33.729 13.15-5.479 28.254.746 33.734 13.896" style="fill:#fff;fill-rule:nonzero"/>
  <path d="M2250.81 2710.33c-5.48-13.15-20.592-19.375-33.734-13.904-13.15 5.475-19.375 20.596-13.896 33.741 5.467 13.142 20.588 19.375 33.73 13.896 13.145-5.471 19.375-20.591 13.9-33.733Z" style="fill:#fff;stroke:#231f20;stroke-width:8.67px;stroke-linecap:butt;stroke-miterlimit:10"/>
  <path d="m2180.07 2607.53 37.012 88.9" style="fill:none;fill-rule:nonzero;stroke:#231f20;stroke-width:8.67px;stroke-linecap:butt;stroke-miterlimit:10"/>
  <path d="M2340.4 2859.47v636.671h58.071l-1.021-595.513-57.05-41.158Z" style="fill:#fff;stroke:#231f20;stroke-width:8.67px;stroke-linecap:round;stroke-linejoin:round;stroke-miterlimit:10"/>
  <path d="m2397.89 2900.63 1.016 595.513h56.034v-636.671l-57.05 41.158Z" style="fill:#fff;stroke:#231f20;stroke-width:8.67px"/>
</svg>