<?xml version="1.0" encoding="UTF-8" standalone="no"?><!DOCTYPE svg PUBLIC "-//W3C//DTD SVG 1.1//EN" "http://www.w3.org/Graphics/SVG/1.1/DTD/svg11.dtd"><svg width="100%" height="100%" viewBox="0 0 8000 4500" version="1.1" xmlns="http://www.w3.org/2000/svg" xmlns:xlink="http://www.w3.org/1999/xlink" xml:space="preserve" xmlns:serif="http://www.serif.com/" style="fill-rule:evenodd;clip-rule:evenodd;"><rect x="-0" y="-0" width="8000" height="4500" style="fill:#fff;"/><path d="M2447.28,3601.95c-0,-0 -74.479,-20.317 -86.175,-42.875c-11.684,-22.55 -12.809,-53.946 5.946,-97.663c13.504,-31.508 71.358,-45.245 116.52,-23.9l9.642,-47.337c-97.854,-20.454 -91.658,-104.825 -69.512,-163.629c13.062,-34.688 63.933,-35.717 107.112,-21.004l9.521,-46.742c-22.238,-7.142 -63.438,-22.263 -71.871,-38.546c-11.696,-22.558 -12.821,-53.954 5.929,-97.671c11.892,-27.721 58.113,-41.662 99.8,-30.079l11.325,-55.583c-22.925,-7.667 -58.954,-21.767 -66.796,-36.896c-11.133,-21.467 -12.641,-50.975 3.405,-91.475l-85.363,-20.85c3.946,28.175 -2.708,59.033 -12.467,84.921c-22.525,59.816 -157.445,19.679 -171.52,-28.917c-7.43,-25.667 4.604,-64.833 25.758,-94.646l-100.904,-24.641c8.383,58.516 -61.675,101.258 -88.134,97.537c0,0 -74.483,-20.3 -86.175,-42.862c-11.537,-22.259 -12.737,-53.15 5.242,-95.971l-83.821,-20.471c5.575,29.508 -1.266,62.554 -11.612,90.025c-22.529,59.817 -157.45,19.667 -171.525,-28.929c-7.779,-26.871 5.791,-68.546 28.825,-98.788l-104.913,-25.625c13.409,61.125 -59.966,106.496 -87.191,102.671c-0,0 -1.409,-0.383 -3.8,-1.091l-14.6,54.945c19.291,8.013 36.666,22.088 47.904,43.559c37.116,70.975 -49.629,127.037 -79.771,122.8c-0,-0 -4.492,-1.225 -11.425,-3.405l-12.192,45.896c31.184,10.654 58.321,29.509 64.213,49.867c14.075,48.592 -41.642,145.692 -96.954,135.754c-5.534,-1.004 -10.696,-2.233 -15.617,-3.6l-11.913,44.842c22.584,7.204 43.459,22.108 56.309,46.675c37.116,70.975 -49.629,127.037 -79.771,122.808c-0,0 -8.367,-2.3 -19.925,-6.171l-12.217,45.975c34.638,9.942 66.317,30.346 72.75,52.546c8.346,28.871 -7.916,74.846 -34.091,105.333l111.958,25.767c-20.579,-64.467 57.196,-113.325 85.408,-109.354c0,-0 74.479,20.308 86.171,42.875c11.688,22.554 12.808,53.95 -5.937,97.662c-0.925,2.15 -2.105,4.188 -3.413,6.163l89.758,20.654c-8.666,-31.433 -1.508,-68.075 9.784,-98.075c22.525,-59.812 157.45,-19.658 171.525,28.933c8.183,28.263 -7.259,72.921 -32.488,103.396l109.684,25.242c-17.855,-63.242 58.241,-110.821 86.087,-106.9c0,-0 74.483,20.312 86.175,42.875c11.692,22.558 12.813,53.95 -5.937,97.662c-0.613,1.425 -1.33,2.809 -2.113,4.155l92.075,21.191c-7.65,-30.875 -0.612,-66.4 10.388,-95.612c14.8,-39.275 78.07,-35.434 123.758,-14.404l9.942,-48.821c-0.963,-0.021 -1.892,-0.084 -2.771,-0.196m-692.192,-206.483c-18.75,43.725 -122.875,53.25 -160.004,-17.73c-37.117,-70.979 49.625,-127.037 79.762,-122.804c0,0 74.492,20.304 86.175,42.871c11.692,22.55 12.817,53.954 -5.933,97.663m50.696,-203.963c-22.529,59.821 -157.458,19.667 -171.533,-28.925c-14.063,-48.596 41.645,-145.7 96.958,-135.754c103.196,18.562 97.096,104.875 74.575,164.679m56.654,-234.867c-18.754,43.721 -122.883,53.25 -160.004,-17.733c-37.121,-70.975 49.625,-127.042 79.762,-122.8c0,0 74.488,20.308 86.18,42.871c11.687,22.554 12.812,53.954 -5.938,97.662m96.558,-55.012c18.75,-43.7 122.884,-53.233 160,17.746c37.117,70.979 -49.629,127.041 -79.754,122.796c0,-0 -74.496,-20.313 -86.183,-42.859c-11.688,-22.558 -12.813,-53.95 5.937,-97.683m-27.108,579.379c0,0 -74.492,-20.304 -86.179,-42.862c-11.692,-22.559 -12.813,-53.963 5.933,-97.675c18.759,-43.717 122.892,-53.246 160.009,17.733c37.12,70.979 -49.621,127.037 -79.763,122.804m50.988,-210.733c-103.196,-18.55 -97.096,-104.863 -74.571,-164.671c22.525,-59.813 157.446,-19.658 171.529,28.929c14.067,48.588 -41.646,145.692 -96.958,135.742m283.379,245.146c-18.746,43.729 -122.879,53.258 -159.996,-17.721c-37.117,-70.984 49.629,-127.046 79.767,-122.809c-0,0 74.483,20.313 86.166,42.871c11.688,22.559 12.813,53.95 -5.937,97.659m50.7,-203.95c-22.529,59.808 -157.454,19.65 -171.521,-28.938c-14.079,-48.579 41.637,-145.7 96.946,-135.75c103.2,18.563 97.1,104.871 74.575,164.688m56.658,-234.867c-18.762,43.708 -122.883,53.242 -160.008,-17.742c-37.117,-70.975 49.637,-127.046 79.766,-122.796c0,0 74.484,20.305 86.171,42.867c11.692,22.554 12.809,53.954 -5.929,97.671" style="fill:#fff;fill-rule:nonzero;stroke:#1a171b;stroke-width:6.25px;"/><path d="M5253.33,1172.65c76.858,73.221 155.333,144.742 235.391,214.438c79.734,69.429 161.025,137.062 243.8,202.845c48.883,38.863 98.288,77.096 148.129,114.725c7.796,5.884 22.15,6.534 31.075,4.075c9.363,-2.575 19.5,-9.808 24.117,-18.545c4.946,-9.355 7.421,-20.692 4.063,-31.075c-3.446,-10.634 -9.68,-17.425 -18.534,-24.113c-10.508,-7.929 -20.996,-15.883 -31.462,-23.871c-5.055,-3.862 -10.109,-7.737 -15.163,-11.616c-2.687,-2.071 -5.387,-4.134 -8.083,-6.205c-1.009,-0.783 -2.017,-1.558 -3.021,-2.341c-1.008,-0.775 -2.021,-1.55 -3.029,-2.338c1.387,1.075 2.758,2.134 4.137,3.2c-20.796,-16.15 -41.566,-32.321 -62.225,-48.646c-41.279,-32.662 -82.216,-65.791 -122.77,-99.362c-81.105,-67.154 -160.717,-136.117 -238.755,-206.825c-44.05,-39.913 -87.591,-80.379 -130.633,-121.388c-15.283,-14.566 -42.058,-16.316 -57.037,0c-14.48,15.78 -16.325,41.496 -0,57.042" style="fill:#fff;fill-rule:nonzero;stroke:#1a171b;stroke-width:6.25px;"/><path d="M5126.5,1304.71c94.575,78.354 191.813,153.554 291.475,225.321c97.555,70.254 197.517,137.167 299.646,200.575c57.759,35.862 116.221,70.587 175.321,104.196c18.342,10.441 44.929,4.941 55.179,-14.471c10.113,-19.146 5.129,-44.042 -14.458,-55.183c-104.15,-59.23 -206.283,-121.963 -306.154,-188.142c-99.879,-66.158 -197.488,-135.742 -292.613,-208.563c-3.296,-2.525 -6.591,-5.045 -9.871,-7.57c-1.308,-1.013 -2.625,-2.017 -3.937,-3.034c-7.088,-5.458 7.354,5.7 0.292,0.225c-6.555,-5.079 -13.109,-10.162 -19.642,-15.271c-13.063,-10.208 -26.079,-20.479 -39.054,-30.808c-26.579,-21.179 -52.959,-42.629 -79.134,-64.312c-8.454,-7.005 -17.162,-11.821 -28.525,-11.821c-9.891,-0 -21.708,4.391 -28.525,11.821c-13.641,14.854 -17.345,42.658 0,57.037" style="fill:#fff;fill-rule:nonzero;stroke:#1a171b;stroke-width:6.25px;"/><path d="M5011.19,1472.08c118.687,72.529 238.383,143.404 359.071,212.562c120.679,69.171 242.325,136.65 364.912,202.383c68.946,36.975 138.188,73.4 207.721,109.292c18.733,9.683 44.646,5.483 55.183,-14.471c9.763,-18.491 5.546,-44.85 -14.475,-55.183c-123.596,-63.8 -246.3,-129.325 -368.062,-196.575c-121.759,-67.246 -242.575,-136.204 -362.392,-206.854c-67.4,-39.75 -134.475,-80.021 -201.242,-120.813c-18.02,-11.025 -45.15,-4.533 -55.187,14.463c-10.392,19.658 -4.779,43.437 14.471,55.196" style="fill:#fff;fill-rule:nonzero;stroke:#1a171b;stroke-width:6.25px;"/><path d="M4953.68,1595.7c94.009,73.992 191.296,143.687 292.096,208.133c98.554,63.009 200.213,121.159 304.492,174.142c58.467,29.704 117.75,57.775 177.758,84.204c10.279,4.521 19.796,7.163 31.092,4.058c9.354,-2.57 19.496,-9.808 24.104,-18.533c4.942,-9.362 7.421,-20.704 4.067,-31.083c-3.034,-9.334 -9.154,-19.971 -18.538,-24.109c-106.696,-46.983 -211.066,-99.175 -312.617,-156.42c-100.862,-56.83 -198.929,-118.588 -293.745,-184.992c-26.538,-18.575 -52.796,-37.508 -78.805,-56.8c-13.32,-9.896 -26.574,-19.875 -39.766,-29.946c-3.221,-2.458 -6.429,-4.925 -9.638,-7.392c-1.237,-0.941 -5.62,-4.337 -0.725,-0.554c5.48,4.242 -1.558,-1.2 -2.641,-2.041c-6.717,-5.217 -13.413,-10.455 -20.1,-15.709c-8.75,-6.887 -16.88,-11.812 -28.509,-11.812c-9.9,-0 -21.72,4.387 -28.525,11.812c-7.058,7.692 -12.291,17.779 -11.82,28.521c0.449,9.942 3.612,22.071 11.82,28.521" style="fill:#fff;fill-rule:nonzero;stroke:#1a171b;stroke-width:6.25px;"/><path d="M4878.43,1735.05c79.767,70.638 163.138,137.225 249.5,199.613c83.921,60.612 170.875,117.033 260.408,168.979c50.525,29.308 101.875,57.158 153.971,83.579c18.784,9.542 44.596,5.571 55.188,-14.471c9.696,-18.362 5.612,-44.987 -14.475,-55.175c-91.963,-46.654 -181.609,-97.846 -268.5,-153.375c-43.434,-27.779 -86.188,-56.633 -128.192,-86.521c-21.004,-14.95 -41.825,-30.162 -62.446,-45.62c-10.316,-7.734 -20.579,-15.53 -30.783,-23.392c-1.283,-0.979 -2.563,-1.958 -3.829,-2.95c0.533,0.429 7.721,5.996 2.421,1.875c-2.234,-1.733 -4.455,-3.454 -6.675,-5.196c-5.396,-4.217 -10.78,-8.437 -16.15,-12.687c-45.505,-35.975 -89.98,-73.238 -133.405,-111.7c-15.77,-13.984 -41.679,-16.713 -57.033,-0c-14.042,15.3 -16.871,42.108 0,57.041" style="fill:#fff;fill-rule:nonzero;stroke:#1a171b;stroke-width:6.25px;"/><path d="M6953.53,3604.71l-71.162,252.958l616.687,176.617l260.288,-887.233l52.975,-204.075l-629.363,-177.238l-229.425,838.971Z" style="fill:#fff;fill-rule:nonzero;stroke:#1a171b;stroke-width:6.25px;"/><path d="M7802.8,2940.29c6.608,-0.071 10.329,-0.233 10.329,-0.233c16.6,-92.3 -76.759,-211.125 -76.759,-211.125l-347.729,-97.817c-99.475,-2.921 -186.341,108.454 -205.237,134.75l619.396,174.425Zm-620.175,-173.35c-3.013,4.238 -4.742,6.929 -4.742,6.929c-0,0 0.925,0.346 2.571,0.988l2.171,-7.917Z" style="fill:#fff;fill-rule:nonzero;stroke:#1a171b;stroke-width:6.25px;"/><path d="M7464.49,2655.84c2.858,-10.142 72.833,-247.771 72.833,-247.771l172.104,55.459l-60.192,244.291l-184.745,-51.979Z" style="fill:#fff;fill-rule:nonzero;stroke:#1a171b;stroke-width:6.25px;"/><path d="M7568.88,2571.01c22.071,6.213 44.9,-6.266 50.984,-27.887c6.079,-21.617 -6.892,-44.175 -28.967,-50.383c-22.087,-6.209 -44.917,6.27 -50.996,27.883c-6.083,21.625 6.892,44.179 28.979,50.387" style="fill:#fff;fill-rule:nonzero;stroke:#1a171b;stroke-width:6.25px;"/><path d="M7575.98,2544.08l-678.984,2.17c0.001,0 115.234,313.192 -134.662,325.805c-249.917,12.595 -305.179,-242.275 -305.179,-242.275c-0,-0 -308.063,-37.392 -278.688,-281.771c29.38,-244.35 178.192,-202.484 178.192,-202.484c0,0 -157.725,-259.458 22.171,-370.741c179.908,-111.288 338.275,20.854 338.275,20.854c-0,-0 77.333,-278.583 328.55,-198.521c251.221,80.054 195.2,435.804 195.2,435.804l341.341,481.613l-6.216,29.546Z" style="fill:#fff;fill-rule:nonzero;stroke:#1a171b;stroke-width:6.25px;"/><path d="M7457.56,3082.24c0,-0 -494.012,392.866 -170.766,483.8c425.241,119.633 170.766,-483.8 170.766,-483.8" style="fill:#fff;fill-rule:nonzero;stroke:#1a171b;stroke-width:6.25px;"/><path d="M6901.74,3788.81l-19.721,70.1l617.029,175.371l18.404,-60.837l-615.712,-184.634Z" style="fill:#fff;fill-rule:nonzero;stroke:#1a171b;stroke-width:6.25px;"/><path d="M7811.58,2945.81l-211.475,-62.604l-417.158,-117.475l-17.446,63.841l629.871,178.634l16.208,-62.396Z" style="fill:#fff;fill-rule:nonzero;stroke:#1a171b;stroke-width:6.25px;"/><path d="M7450.95,-177.641l-1253.56,1512.18l-123.805,-109.412l1272.41,-1513.86l104.954,111.096Z" style="fill:#fff;fill-rule:nonzero;stroke:#1a171b;stroke-width:6.25px;"/><path d="M5927.78,1545.49l112.458,-87.987l157.163,-122.971l-123.821,-109.396l-145.8,320.354Z" style="fill:#fff;fill-rule:nonzero;stroke:#1a171b;stroke-width:6.25px;"/><path d="M5927.78,1545.49l112.458,-87.987l-54.191,-40.783l-58.267,128.77Z" style="fill:#fff;fill-rule:nonzero;stroke:#1a171b;stroke-width:6.25px;"/><path d="M1472.47,4576.34l1245.48,-1518.84l124.392,108.754l-1264.32,1520.62l-105.546,-110.537Z" style="fill:#fff;fill-rule:nonzero;stroke:#1a171b;stroke-width:6.25px;"/><path d="M2986.43,2845.12l-111.992,88.583l-156.5,123.805l124.405,108.737l144.087,-321.125Z" style="fill:#fff;fill-rule:nonzero;stroke:#1a171b;stroke-width:6.25px;"/><path d="M2986.43,2845.12l-111.992,88.583l54.413,40.492l57.579,-129.075Z" style="fill:#fff;fill-rule:nonzero;stroke:#1a171b;stroke-width:6.25px;"/><path d="M6000.44,2480.6c-71.037,11.212 -171.754,171.754 -71.562,264.787c100.192,93.034 264.787,50.096 271.95,-85.875c7.154,-135.97 -64.413,-200.383 -200.388,-178.912" style="fill:#fff;fill-rule:nonzero;stroke:#1a171b;stroke-width:6.25px;"/><path d="M6105.52,2230.54c-71.042,11.213 -171.759,171.75 -71.563,264.788c100.188,93.029 264.788,50.091 271.946,-85.88c7.158,-135.97 -64.412,-200.379 -200.383,-178.908" style="fill:#fff;fill-rule:nonzero;stroke:#1a171b;stroke-width:6.25px;"/><path d="M5517.38,2723.93c-71.042,11.212 -171.755,171.758 -71.567,264.791c100.196,93.034 264.792,50.088 271.95,-85.883c7.154,-135.971 -64.413,-200.383 -200.383,-178.908" style="fill:#fff;fill-rule:nonzero;stroke:#1a171b;stroke-width:6.25px;"/><path d="M5735.65,2759.7c-71.038,11.216 -171.75,171.762 -71.567,264.795c100.196,93.03 264.796,50.092 271.95,-85.887c7.162,-135.967 -64.408,-200.375 -200.383,-178.908" style="fill:#fff;fill-rule:nonzero;stroke:#1a171b;stroke-width:6.25px;"/><path d="M6219.68,2603.38c-71.046,11.217 -171.759,171.759 -71.567,264.792c100.192,93.033 264.792,50.092 271.946,-85.879c7.162,-135.971 -64.4,-200.384 -200.379,-178.913" style="fill:#fff;fill-rule:nonzero;stroke:#1a171b;stroke-width:6.25px;"/><path d="M2346.32,2036.88l-53.791,137.3c-0,0 -122.088,5.08 -229.9,-66.65l68.125,-173.862c-0,-0 143.083,17.592 215.566,103.212" style="fill:#fff;fill-rule:nonzero;stroke:#1a171b;stroke-width:6.25px;"/><path d="M2132.78,1934.45l-71.679,172.467c-0,-0 -83.796,-32.838 -156.217,-75.267c-72.421,-42.442 -246.546,-106.379 -301.508,-133.571c-54.959,-27.204 -154.384,-60.504 -154.384,-60.504l38.892,-105.242c0,0 255.458,100.1 332.725,125.688c77.254,25.583 138.842,40.342 185.483,46.904c46.65,6.558 126.688,29.525 126.688,29.525" style="fill:#fff;fill-rule:nonzero;stroke:#1a171b;stroke-width:6.25px;"/><path d="M1485.85,1731.54l-538.692,-204.054l-588.246,-221.121l-677.191,-251.292c-0,0 -89.667,-32.791 -105.592,7.838c-15.917,40.625 104.663,90.225 104.663,90.225l427.512,170.829l588.658,232.029l536.313,210.15l216.046,70.588l36.529,-105.192Z" style="fill:#fff;fill-rule:nonzero;stroke:#1a171b;stroke-width:6.25px;"/><path d="M2349.59,2036.01c0,-0 -75.7,-66.95 -98.733,-67.975c-23.034,-1.029 -39.667,5.541 -35.875,25.779c3.783,20.233 3.429,36.1 -16.059,40.958c-19.475,4.871 -50.462,15.184 -32.791,41.829c17.679,26.65 26.129,28.996 16.104,42.642c-10.029,13.642 -12.513,34.921 -4.788,39.129c7.725,4.192 106.034,22.413 115.688,21.704c9.654,-0.708 56.454,-144.066 56.454,-144.066" style="fill:#fff;fill-rule:nonzero;stroke:#1a171b;stroke-width:6.25px;"/><path d="M2622.13,2138.43c1.767,-11.638 4.442,-4.605 -3.158,3.125c0.562,-1.059 1.133,-2.142 1.683,-3.209c4.038,-6.25 2.421,-4.158 -4.858,6.275c7.646,-8.691 -12.221,6.829 -4.85,3.354c2.308,-1.091 6.333,-2.92 8.221,-4.729c-8.379,8.017 -13.354,5.004 -2.609,2.1c11.255,-3.041 7.505,2.525 -3.366,-0.104c4.371,1.058 16.179,0.717 20.662,-0.1c-13.125,2.379 -13.637,-2.292 -3.471,0.358c1.384,0.359 14.238,3.763 14.263,4.634c-0.046,-1.834 -13.875,-6.146 0.325,0.241c4.225,1.905 8.404,3.892 12.596,5.867c23.012,10.892 46.258,22.488 70.804,29.508c96.958,27.755 210.637,-36.116 226.875,-138.829c5.937,-37.679 -10.754,-80.537 -52.075,-89.487c-35.483,-7.696 -83.092,11.625 -89.475,52.066c-0.754,4.713 -1.854,9.117 -2.896,13.775c-3.004,13.321 8.008,-12.691 0.313,-0.191c-2.025,3.271 -4.08,6.721 -5.892,10.104c-3.996,7.475 10.346,-11.154 1.304,-1.9c-2.171,2.229 -8.646,7.258 -10.021,9.933c8.042,-6.071 9.863,-7.504 5.429,-4.333c-1.908,1.4 -3.862,2.717 -5.866,3.933c-1.346,0.804 -2.704,1.604 -4.05,2.4c-5.613,2.846 -5.517,2.979 0.3,0.417c5.9,-2.392 5.921,-2.429 0.066,-0.154c-1.487,0.5 -2.966,0.996 -4.441,1.487c-8.229,2.534 -14.734,0.15 1.162,1.071c-4.354,-0.254 -9.633,0.517 -14.046,0.608c-12.679,0.238 9.921,2.959 1.288,0.15c-4.258,-1.387 -8.838,-2.029 -13.154,-3.341c-3.475,-1.071 -6.917,-2.25 -10.317,-3.525c2.467,1.046 4.925,2.087 7.388,3.129c-2.205,0.479 -13.055,-5.85 -15.113,-6.817c-9.221,-4.316 -18.342,-8.841 -27.629,-13.029c-45.508,-20.467 -89.829,-31.362 -139.396,-19.087c-45.7,11.329 -90.175,48.395 -97.55,96.883c-5.746,37.683 10.6,80.5 52.058,89.483c35.313,7.65 83.334,-11.596 89.496,-52.066" style="fill:#fff;fill-rule:nonzero;stroke:#1a171b;stroke-width:6.25px;"/><path d="M1742.39,1589.47l-207.737,-622.196l661.866,-239.067l242.929,606.588l-697.058,254.674Z" style="fill:#fff;fill-rule:nonzero;stroke:#1a171b;stroke-width:6.25px;"/><path d="M532.245,-65.897c0,-0 461.442,631.3 448.121,820.541c-13.321,189.229 169.654,662.988 244.696,600.846c75.033,-62.142 -0.8,-376.833 49.479,-363.646c50.287,13.179 216.533,595.684 319.991,593.317c103.455,-2.379 -106.137,-514.188 -65.52,-537.275c40.62,-23.088 331.1,489.2 422.429,437.817c91.321,-51.38 -345.917,-579.217 -266.509,-644.975c79.405,-65.763 332.817,329.645 411.8,264.216c79.005,-65.412 -308.775,-442.321 -284.183,-503.837c24.621,-61.492 274.796,109.866 287.908,29.4c13.13,-80.454 -1024.84,-927.084 -1117.39,-1030.75c-92.538,-103.667 -389.638,310.229 -389.638,310.229" style="fill:#fff;fill-rule:nonzero;stroke:#1a171b;stroke-width:6.25px;"/><path d="M667.033,2145.75c21.508,-13.013 15.3,-9.271 36.812,-22.275c-4.745,2.875 0,-0 0,-0c29.384,26.558 26.825,24.246 56.213,50.808c17.054,15.413 33.892,31.171 51.521,45.925c16.191,13.55 34.991,25.421 55.354,31.475c23.129,6.879 47.367,6.913 70.896,1.996c17,-3.558 33.516,-9.529 49.962,-15.033c39.796,-13.288 79.35,-27.275 118.492,-42.396c19.687,-7.617 39.283,-15.479 58.767,-23.592c17.983,-7.487 35.679,-16.008 54.1,-22.391c-4.038,1.379 -8.071,2.745 -12.1,4.104c8.65,-2.921 17.487,-5.175 26.625,-5.884c-4.25,0.3 -8.496,0.6 -12.738,0.909c5.438,-0.342 10.796,-0.104 16.158,0.879c-4.237,-0.796 -8.487,-1.6 -12.729,-2.408c4.859,1.004 9.438,2.595 13.909,4.712c-4.017,-1.962 -8.034,-3.904 -12.038,-5.858c15.733,7.879 28.95,20.621 42.454,31.721c14.138,11.595 28.271,23.212 42.404,34.816c28.263,23.217 56.534,46.429 84.809,69.646c16.146,13.267 32.3,26.529 48.462,39.796c5.575,4.029 11.717,6.379 18.404,7.071c6.267,1.741 12.63,1.846 19.092,0.3c12.008,-2.425 25.304,-10.65 31.729,-21.321c6.671,-11.075 10.55,-24.567 7.367,-37.492c-1.367,-4.037 -2.729,-8.062 -4.096,-12.1c-3.983,-8.075 -9.725,-14.621 -17.217,-19.633c-60.983,-50.079 -121.958,-100.163 -182.937,-150.229c-17.263,-14.184 -34.538,-28.929 -56.575,-35.229c-21.85,-6.259 -45.279,-5.938 -67.054,0.554c-19.292,5.754 -37.488,13.737 -55.959,21.591c-17.35,7.363 -34.775,14.542 -52.291,21.509c-39.696,15.787 -79.804,30.533 -120.279,44.237c4.037,-1.366 8.066,-2.733 12.1,-4.096c-24.275,8.209 -49.275,18.275 -75.034,20.309c4.246,-0.309 8.5,-0.613 12.742,-0.904c-7.233,0.47 -14.421,0.204 -21.563,-1.092c4.238,0.808 8.48,1.612 12.717,2.412c-7.242,-1.441 -14.121,-3.875 -20.771,-7.083c4.013,1.954 8.034,3.908 12.042,5.871c-13.396,-6.7 -25.117,-16.038 -36.342,-25.858c3.363,2.945 6.717,5.891 10.075,8.837c-41.512,-36.562 -82.154,-74.162 -123.2,-111.25c-3.35,-2.95 -6.708,-5.892 -10.062,-8.837c-5.584,-4.021 -11.717,-6.38 -18.404,-7.067c-9.863,-1.871 -22.292,-1.588 -31.196,3.8c-21.517,13.004 -43.021,26.017 -64.534,39.037c-6.216,2.75 -11.287,6.813 -15.212,12.175c-4.913,4.705 -8.338,10.4 -10.279,17.071c-3.759,11.421 -3.25,26.834 2.587,37.567c6.263,11.517 16.254,21.842 29.263,25.492c11.879,3.333 26.575,4.05 37.554,-2.592" style="fill:#fff;fill-rule:nonzero;stroke:#1a171b;stroke-width:6.25px;"/><path d="M6577.91,3445.77l-731.912,421.138l1035.21,487.133l-303.3,-908.271Z" style="fill:#fff;fill-rule:nonzero;stroke:#1a171b;stroke-width:6.25px;"/><path d="M7700.4,244.958l-155.554,132.413c116.508,144.404 97.441,356.162 -44.7,477.154c-142.138,120.983 -354.229,105.979 -478.163,-32.108l-158.821,135.179c196.796,231.2 543.746,259.087 774.942,62.304c231.192,-196.788 259.083,-543.746 62.296,-774.942" style="fill:#fff;fill-rule:nonzero;stroke:#1a171b;stroke-width:6.25px;"/><path d="M4083.34,2295.11c-13.609,-5.538 -28.355,-3.363 -39.042,5.637c-5.204,-30.212 -37.858,-52.358 -64.767,-34.37c-11.191,-7.213 -24.016,-10.246 -34.725,-6.334c-2.558,-3.312 -5.575,-6.229 -8.796,-8.837c2.234,-4.959 4.475,-9.9 6.709,-14.854c19.271,-42.63 -45.896,-91.18 -71.496,-52.063c-1.946,2.983 -3.783,6.05 -5.7,9.054c-16.733,-9.896 -36.938,-10.604 -48.104,7.413c-19.742,31.796 -39.459,63.604 -59.175,95.4c18.558,-43.759 37.212,-87.434 55.346,-131.459c20.12,-48.825 -51.171,-89.383 -74.821,-46.12c-11.596,-1.417 -23.309,1.875 -31.984,11.958c-77.687,90.475 -150.479,185.629 -218.858,284.558c-89.746,93.929 -160.033,208.713 -206.35,336.559c-11.533,21.312 -23.121,42.566 -34.267,64.133c-3.304,6.392 -3.891,13.8 -2.82,21.267c-19.163,40.845 46.3,86.266 72.379,49.875c26.625,-37.125 52.337,-75.042 77.283,-113.563c0.013,-0.012 0.017,-0.017 0.033,-0.037c-15.354,37.433 -29.7,75.454 -42.77,114.195c-12.834,38.009 31.983,81.188 60.808,62.959c18.896,10.708 43.608,8.804 55.458,-15.513c1.004,-2.046 1.95,-4.133 2.954,-6.171c0.188,3.375 0.792,6.65 1.713,9.842c-4.129,9.883 -8.354,19.708 -12.454,29.6c-17.767,42.788 46.654,92.508 71.483,52.063c3.671,-5.975 7.208,-12.055 10.842,-18.05c1.975,13.558 9.779,26.029 20.162,34.333c-0.837,16.437 7.617,34.304 21.175,43.871c19.179,13.541 38.8,9.954 53.167,-4.988c5.275,-5.487 10.387,-11.133 15.6,-16.683c4.333,-0.346 8.612,-1.492 12.667,-3.692c7.079,6.121 15.591,10.488 24.254,12.146c-5.488,13.163 -10.988,26.325 -16.479,39.483c-18.871,45.217 42.275,85.959 71.495,52.059c32.955,-38.229 64.38,-77.917 94.596,-118.634c10.55,-0.041 20.534,-4.083 26.546,-13.429c81.108,-126.004 153.796,-258.737 217.338,-397.246c24.3,-45.158 47.229,-91.175 68.57,-138.266c2.83,-3.246 5.384,-7.046 7.275,-11.946c4.659,-12.063 9.309,-24.117 13.967,-36.171c12.9,-33.404 -15.217,-62.521 -42.008,-64.579c2.341,-3.883 4.675,-7.779 7.008,-11.667c11.5,-19.137 11.154,-45.35 -8.033,-63.262c-13.221,-12.346 -32.1,-15.446 -46.179,-8.471" style="fill:#fff;fill-rule:nonzero;stroke:#1a171b;stroke-width:6.25px;"/><path d="M3958.79,1245.4c0,0 43.492,-63.721 168.563,-92.383c125.075,-28.654 164.529,-107.775 177.016,-141.071c12.484,-33.3 31.221,-92.008 31.221,-92.008l137.471,51.533c-0,0 -63.796,109.192 -64.55,146.067c-0.75,36.875 21.458,113.391 66.237,165.704c44.767,52.308 51.23,70.646 73.413,115.308c22.187,44.654 -4.254,66.183 -4.254,66.183l-585.117,-219.333Z" style="fill:#fff;fill-rule:nonzero;stroke:#1a171b;stroke-width:6.25px;"/><path d="M4440.55,544.44c-39.554,140.737 -102.1,376.575 -102.1,376.575l137.484,51.537c-0,0 24.196,-55.85 70.125,-156.233c45.929,-100.384 114.875,-306.459 152.458,-406.696c37.571,-100.25 31.829,-223.263 1.279,-234.717c-30.55,-11.446 -69.104,0.638 -107.525,51.563c-38.421,50.933 -112.166,177.233 -151.721,317.971m150.255,-226.917c8.204,-21.883 32.583,-32.971 54.47,-24.767c21.88,8.2 32.975,32.592 24.771,54.471c-8.212,21.888 -32.596,32.975 -54.466,24.767c-21.888,-8.196 -32.98,-32.588 -24.775,-54.471" style="fill:#fff;fill-rule:nonzero;stroke:#1a171b;stroke-width:6.25px;"/><path d="M4476.43,1698.38l-608.854,-228.233l93.808,-224.112l584.271,219.012l-69.225,233.333Z" style="fill:#fff;fill-rule:nonzero;stroke:#1a171b;stroke-width:6.25px;"/><path d="M4475.84,1691.22c-2.879,5.738 -2.033,12.021 -3.375,18.142c-2.721,12.387 -86.183,176.146 -98.137,203.771c-6.759,15.641 -11.917,32.225 -18.021,48.133c-4.713,12.262 -5.025,25.354 -11.121,36.875c-13.129,24.746 -18.462,51.129 -28.325,77.271c-7.675,20.354 -19,31.583 -37.887,44.175c-11.463,7.658 -19.438,9.483 -31.788,2.204c-6.471,-3.813 -16.021,-13.771 -17.258,-21.508c-12.984,4.558 -26,10.091 -40.484,6.362c-3.462,-0.883 -13.441,-3.354 -16.129,-5.846c-3.9,-3.625 -4.829,-11.041 -9.712,-15.483c-5.813,-5.275 -5.179,-5.054 -12.584,-5.067c-5.87,2.109 -11.933,3.417 -18.166,3.929c-5.721,-0.233 -8.159,-2.104 -13.15,-3.829c-9.6,-3.333 -22.975,-5.854 -31.413,-11.175c-6.383,-4.025 -22.875,-22.604 -22.258,-30.491c-14.146,0.795 -28.058,4.92 -42.471,4.379c-8.671,-0.321 -24.4,-1.875 -32.525,-5.571c-11.929,-5.421 -18.108,-19.067 -29.346,-25.804c-15.412,-9.229 -39.575,-4.175 -56.946,-7.521c-17.633,-3.396 -30.454,-10.546 -33.879,-29.25c-13.833,5.379 -32.562,3.071 -46.35,-0.654c-12.137,-3.271 -33.337,-8.846 -40.462,-21.025c-3.796,-6.492 -2.134,-15.309 -6.088,-22.034c-14.891,9.934 -31.025,5.292 -45.691,-3.075c-5.884,-3.35 -21.171,-11.112 -23.7,-17.891c-1.2,-3.234 4.57,-16.184 5.054,-20.434c1.683,-15.195 7.391,-28.695 12.95,-43.512c10.587,-28.254 21.179,-56.5 31.771,-84.758c36.162,-96.467 70.837,-192.95 105.337,-289.655c2.917,-8.212 2.338,-10.533 9.988,-12.945c10.554,-3.321 34.608,6.45 44.491,9.941c24.188,8.529 48.084,18.267 72.096,27.263c16.1,6.033 32.196,12.021 48.25,18.158c13.188,5.042 26.542,6.925 39.854,11.429c19.488,6.592 38.704,14.559 57.929,21.871c20.684,7.867 41.909,12.838 62.738,20.1c31.787,11.075 93.437,35.196 124.954,47.008c31.588,11.838 64.6,22.113 94.396,37.921c21.15,11.217 42.887,20.071 65.462,28.529l-8.004,10.067Z" style="fill:#fff;fill-rule:nonzero;stroke:#1a171b;stroke-width:6.25px;"/><path d="M3668.51,1890.73c-5.204,15.112 -12.725,32.358 -5.35,48.016c6.404,13.655 20.175,20.859 32.967,27.367c15.525,7.896 31.521,14.8 47.591,21.529c33.434,13.984 66.971,27.721 100.525,41.454c66.863,27.359 133.896,54.359 201.063,80.984c33.371,13.229 66.783,26.362 100.225,39.412c30.358,11.838 64.329,30.704 97.5,19.829c14.321,-4.704 26.783,-14.108 37.817,-24.15c11.662,-10.604 22.462,-22.304 32.033,-34.825c18.929,-24.716 33.625,-53.087 42.767,-82.845c4.654,-15.125 7.954,-30.709 9.895,-46.405c0.255,-1.987 0.071,-3.758 -0.375,-5.337c23.246,-15.858 22.821,-50.963 3.159,-70.508c-24.746,-24.588 -60.429,-22.484 -92.684,-22.3c-17.679,0.091 -35.354,0.195 -53.037,0.295c-8.021,0.055 -16.675,0.967 -24.617,-0.5c-6.337,-1.179 -6.971,-3.908 -7.804,-9.808c-2.229,-16.083 -4.229,-31.975 -8.037,-47.796c-3.75,-15.641 -7.475,-32.891 -16.634,-46.375c-21.4,-31.504 -59.012,-8.846 -86.746,-1.479c-15.412,4.088 -31.145,6.954 -47.012,8.546c-12.471,1.237 -25.879,0.987 -33.279,-7.008c-6.663,-7.221 -10.238,-16.95 -14.063,-26.621c-4.275,-10.838 -8.608,-21.563 -15.341,-31.167c-19.488,-27.792 -54.055,-27.296 -83.088,-17.029c-23.967,8.475 -47.987,28.567 -74.604,26.567c-13.692,-1.034 -25.471,-9.625 -39.571,-8.688c-16.571,1.088 -25.667,14.138 -33.946,26.908c-19.137,29.463 -35.916,60.563 -50.075,92.721c-7.116,16.125 -13.541,32.546 -19.279,49.213" style="fill:#fff;fill-rule:nonzero;stroke:#1a171b;stroke-width:6.25px;"/><path d="M5136.56,2916.33l-497.529,842.45l-10.746,24.367l26.504,20.15l-55.762,144.416l32.912,19.359l94.488,-116.105l19.22,12.788l543.225,-846.083l-152.312,-101.342Z" style="fill:#fff;fill-rule:nonzero;stroke:#1a171b;stroke-width:6.25px;"/><path d="M4802.37,2806.27l-736.871,643.646l-17.845,19.758l18.837,27.459l-98.279,119.596l25.162,28.725l126.163,-80.575l14.229,18.179l781.4,-632.754l-112.796,-144.034Z" style="fill:#fff;fill-rule:nonzero;stroke:#1a171b;stroke-width:6.25px;"/><path d="M4172.89,3983.01l904.346,-373.379l23.237,-12.996l-9.037,-32.054l131.433,-81.771l-14.625,-35.279l-145.337,35.871l-7.65,-21.784l-943.029,348.792l60.662,172.6Z" style="fill:#fff;fill-rule:nonzero;stroke:#1a171b;stroke-width:6.25px;"/><path d="M4370.4,4051.42l925.842,316.338l26.033,5.579l14.362,-30.046l152.721,25.308l12.288,-36.15l-132.859,-68.975l8.634,-21.412l-938.684,-360.338l-68.337,169.696Z" style="fill:#fff;fill-rule:nonzero;stroke:#1a171b;stroke-width:6.25px;"/><path d="M3975.38,421.419l-64.691,58.204l160.629,155.913l54.712,-51.813l-150.65,-162.304Z" style="fill:#fff;fill-rule:nonzero;stroke:#1a171b;stroke-width:6.25px;"/><path d="M4228.36,572.526l-112.596,-125.338l-111.329,-114.337l-73.129,66.204l106.667,112.642l118.862,125.508l71.525,-64.679Z" style="fill:#fff;fill-rule:nonzero;stroke:#1a171b;stroke-width:6.25px;"/><path d="M3852.46,468.895l-931.875,749.987l350.004,368.783l789.583,-883.325l-207.712,-235.445Z" style="fill:#fff;fill-rule:nonzero;stroke:#1a171b;stroke-width:6.25px;"/><path d="M3910.69,479.623l-55.904,-5.046l202.425,223.412l17.325,-65.5l-163.846,-152.866Z" style="fill:#fff;fill-rule:nonzero;stroke:#1a171b;stroke-width:6.25px;"/><path d="M3712.26,781.75l78.346,92.405l-334.508,353.425l-135.634,-143.213l350.392,-336.662l41.404,34.045Z" style="fill:#fff;fill-rule:nonzero;stroke:#1a171b;stroke-width:6.25px;"/><path d="M3271.79,1586.53l-352.025,-371.717l-56.35,30.733l390.371,402.546l18.004,-61.562Z" style="fill:#fff;fill-rule:nonzero;stroke:#1a171b;stroke-width:6.25px;"/><path d="M3949.32,-70.056l-77.866,38.858l113.271,193.083l66.541,-35.358l-101.946,-196.583Z" style="fill:#fff;fill-rule:nonzero;stroke:#1a171b;stroke-width:6.25px;"/><path d="M4152.88,143.005l-75.121,-150.812l-76.829,-139.875l-88.129,44.321l72.791,137l81.113,152.646l86.175,-43.28Z" style="fill:#fff;fill-rule:nonzero;stroke:#1a171b;stroke-width:6.25px;"/><path d="M3818.19,-57.057l-1098.05,474.508l239.067,448.721l996.437,-640.942l-137.45,-282.287Z" style="fill:#fff;fill-rule:nonzero;stroke:#1a171b;stroke-width:6.25px;"/><path d="M3871.46,-31.199l-52.533,-19.763l135.558,269.279l34.154,-58.516l-117.179,-191Z" style="fill:#fff;fill-rule:nonzero;stroke:#1a171b;stroke-width:6.25px;"/><path d="M3599.69,207.121l50.887,109.942l-416.604,251.495l-92.558,-174.183l427.441,-231.104l30.834,43.85Z" style="fill:#fff;fill-rule:nonzero;stroke:#1a171b;stroke-width:6.25px;"/><path d="M2960.67,865.408l-240.225,-452.096l-62.504,14.604l268.97,492.025l33.759,-54.533Z" style="fill:#fff;fill-rule:nonzero;stroke:#1a171b;stroke-width:6.25px;"/><path d="M2756.22,3954.91l89.091,69.363c65.113,-79.23 181.867,-92.63 263.271,-29.242c81.4,63.383 97.038,179.862 36.175,262.408l90.954,70.821c103.1,-132.408 79.338,-323.325 -53.066,-426.421c-132.409,-103.096 -323.325,-79.333 -426.425,53.071" style="fill:#fff;fill-rule:nonzero;stroke:#1a171b;stroke-width:6.25px;"/><path d="M520.758,3585.89l79.179,-120.396c-107.417,-74.771 -136.337,-221.938 -63.983,-331.95c72.358,-110.004 218.95,-141.746 330.154,-72.713l80.85,-122.912c-178.942,-117.696 -419.404,-68.046 -537.092,110.887c-117.687,178.93 -68.041,419.392 110.892,537.084" style="fill:#fff;fill-rule:nonzero;stroke:#1a171b;stroke-width:6.25px;"/><path d="M6289.5,395.288c0,-0 -57.762,25.662 -76.854,17.4c-19.092,-8.258 -36.054,-27.592 -46.779,-65.033c-7.742,-26.975 21.85,-65.634 61.554,-75.467l-18.392,-35.021c-72.662,37.667 -112.4,-19.058 -128.787,-67.825c-9.667,-28.767 22.071,-55.75 57.079,-68.758l-18.15,-34.588c-17.804,6.979 -51.767,18.713 -65.546,12.746c-19.092,-8.258 -36.054,-27.592 -46.792,-65.029c-6.804,-23.742 15.305,-56.508 47.75,-70.738l-21.591,-41.125c-18.504,7.005 -48.659,16.709 -61.463,11.167c-18.179,-7.854 -34.404,-25.792 -45.191,-59.787l-64.942,30.954c17.083,15.833 28.837,38.85 36.042,60.325c16.67,49.604 -89.696,93.971 -123.775,70.429c-17.996,-12.442 -30.634,-43.517 -32.646,-73.379l-76.767,36.596c35.6,32.783 13.283,96.158 -5.429,107.495c-0,0 -57.758,25.667 -76.854,17.405c-18.838,-8.146 -35.592,-27.121 -46.342,-63.592l-63.771,30.396c18.809,15.837 31.575,40.341 39.229,63.121c16.671,49.604 -89.708,93.966 -123.787,70.425c-18.842,-13.021 -31.804,-46.484 -32.846,-77.588l-79.812,38.042c40.137,31.837 17.075,98.596 -2.18,110.258c0,0 -1.091,0.488 -2.975,1.279l19.18,42.409c16.383,-4.9 34.695,-4.967 52.933,2.841c60.279,25.817 34.267,106.279 12.95,119.188c-0,-0 -3.483,1.55 -9.008,3.758l16.025,35.421c25.291,-9.379 52.266,-11.463 66.545,-1.6c34.071,23.542 48.984,113.979 8.755,136.3c-4.038,2.229 -7.942,4.121 -11.775,5.804l15.65,34.613c18.058,-7.117 39.012,-8.467 59.883,0.466c60.279,25.817 34.267,106.279 12.95,119.192c-0,-0 -6.492,2.871 -15.825,6.4l16.042,35.492c27.12,-11.625 57.775,-15.075 73.345,-4.325c20.242,14 33.713,51.579 32.892,84.47l84.363,-41.6c-46.425,-30.241 -22.375,-101.495 -2.421,-113.575c-0,0 57.762,-25.666 76.858,-17.404c19.088,8.259 36.046,27.596 46.779,65.034c0.529,1.837 0.834,3.737 1.025,5.675l67.638,-33.359c-21.775,-15.45 -36.196,-42.404 -44.559,-67.283c-16.666,-49.6 89.709,-93.958 123.784,-70.421c19.821,13.7 33.141,50.017 32.912,82.408l82.646,-40.754c-44.058,-30.879 -20.417,-100.441 -0.717,-112.371c0,0 57.763,-25.662 76.859,-17.404c19.091,8.259 36.05,27.596 46.779,65.029c0.35,1.221 0.608,2.471 0.812,3.73l69.375,-34.213c-20.833,-15.621 -34.75,-41.808 -42.895,-66.029c-10.938,-32.575 31.195,-62.892 71.054,-73.192l-18.963,-36.116c-0.616,0.483 -1.237,0.925 -1.854,1.308m-545.987,227.271c10.737,37.441 -50.392,97.375 -110.68,71.562c-60.283,-25.816 -34.27,-106.271 -12.962,-119.183c-0,-0 57.762,-25.675 76.854,-17.408c19.088,8.254 36.063,27.595 46.788,65.029m-73.405,-155.629c16.667,49.604 -89.716,93.97 -123.787,70.429c-34.075,-23.55 -48.992,-113.988 -8.758,-136.309c75.075,-41.633 115.879,16.28 132.545,65.88m-85.62,-178.321c10.729,37.441 -50.392,97.383 -110.684,71.562c-60.279,-25.812 -34.271,-106.283 -12.954,-119.187c0,-0 57.767,-25.667 76.858,-17.404c19.084,8.254 36.055,27.591 46.78,65.029m32.787,-84.879c-10.729,-37.43 50.404,-97.367 110.679,-71.55c60.284,25.816 34.271,106.279 12.963,119.183c-0,-0 -57.767,25.667 -76.854,17.412c-19.096,-8.258 -36.05,-27.595 -46.788,-65.045m282.667,381.583c-0,-0 -57.763,25.675 -76.854,17.412c-19.092,-8.258 -36.059,-27.6 -46.788,-65.033c-10.725,-37.446 50.4,-97.383 110.683,-71.567c60.284,25.817 34.271,106.275 12.959,119.188m-76.721,-160.075c-75.067,41.646 -115.871,-16.267 -132.533,-65.871c-16.671,-49.604 89.704,-93.958 123.783,-70.425c34.075,23.546 48.987,113.983 8.75,136.296m306.65,8.854c10.742,37.438 -50.383,97.375 -110.671,71.558c-60.283,-25.816 -34.271,-106.279 -12.954,-119.191c-0,-0 57.758,-25.663 76.85,-17.4c19.083,8.262 36.05,27.596 46.775,65.033m-73.396,-155.633c16.667,49.604 -89.712,93.962 -123.787,70.416c-34.075,-23.529 -48.992,-113.979 -8.755,-136.291c75.075,-41.638 115.871,16.275 132.542,65.875m-85.617,-178.317c10.73,37.433 -50.395,97.379 -110.687,71.558c-60.283,-25.812 -34.267,-106.283 -12.95,-119.187c-0,-0 57.758,-25.671 76.85,-17.404c19.092,8.258 36.046,27.6 46.787,65.033" style="fill:#fff;fill-rule:nonzero;stroke:#1a171b;stroke-width:6.25px;"/><path d="M2818.67,3544.61l72.1,86.892c80.621,-63.383 197.525,-51.375 263.404,28.029c65.871,79.4 56.104,196.517 -21.079,264.054l73.608,88.713c129.146,-107.15 146.983,-298.713 39.833,-427.858c-107.15,-129.155 -298.716,-146.984 -427.866,-39.83" style="fill:#fff;fill-rule:nonzero;stroke:#1a171b;stroke-width:6.25px;"/><path d="M1212.24,3449.26c-40.688,9.592 -80.642,22.254 -119.226,38.367c-42.962,17.95 -85,39.312 -123.945,64.883c-38.159,25.042 -73.788,54.609 -105.817,87.109c-28.767,29.191 -53.042,61.733 -75.258,96.095c-19.446,30.071 -35.684,62.234 -47.975,95.871c-13.988,38.279 -25.142,77.038 -29.509,117.671c-2.483,23.129 -4.162,46.488 -3.091,69.75c1.091,23.658 5.137,47.108 10.4,70.171c3.987,17.517 9.733,34.625 17.475,50.842c9.904,20.733 20.141,40.616 35.187,58.112c9.238,10.746 18.475,21.517 29.3,30.696c10.113,8.567 21.359,16.121 32.659,22.942c5.975,3.612 12.275,6.666 18.804,9.171c11.183,4.299 22.696,8.508 34.433,11.129c18.604,4.175 38.417,5.604 57.442,4.458c9.625,-0.588 18.966,-2.383 28.433,-4.2c9.629,-1.846 19.079,-3.733 28.363,-6.967c11.487,-4.021 22.458,-9.7 33.229,-15.279c5.779,-2.979 11.329,-6.417 16.52,-10.304c9.38,-7.029 18.4,-14.883 26.442,-23.417c8.109,-8.604 14.575,-18.841 20.808,-28.804c3.426,-5.462 6.117,-11.25 8.355,-17.279c4.504,-12.133 8.937,-24.125 10.329,-37.021c1.542,-14.225 2.85,-28.641 0.875,-42.875c-1.996,-14.25 -4.721,-28.925 -9.654,-42.554c-16.121,-44.542 -46.58,-83.208 -83.013,-113.042c-28.054,-22.962 -59.85,-42.445 -93.6,-55.791c-34.016,-13.463 -69.096,-23.429 -105.379,-28.184c-37.142,-4.862 -74.912,-6.491 -112.312,-4.366c-72.48,4.108 -144.705,20.225 -213.459,43.158c-89.162,29.742 -175.408,69.671 -256.321,117.483c-18.57,10.971 -36.854,22.455 -54.845,34.359c-14.055,9.308 -24.88,25.637 -28.334,42.1c-3.425,16.362 -0.071,37.662 10.029,51.341c10.167,13.767 24.725,25.471 42.096,28.334c17.963,2.954 35.888,0.204 51.338,-10.025c45.146,-29.888 92.171,-56.838 140.766,-80.704c-5.404,2.654 -10.804,5.308 -16.204,7.958c68.021,-33.258 139.334,-61.588 212.692,-80.688c16.529,-4.304 33.192,-8.058 49.967,-11.279c-5.913,1.134 -11.825,2.267 -17.73,3.4c51.921,-9.862 105.03,-14.412 157.813,-10.462c-5.8,-0.442 -11.6,-0.888 -17.404,-1.329c34.208,2.679 68.083,9.004 100.554,20.233c-5.421,-1.888 -10.842,-3.775 -16.267,-5.663c24.604,8.638 48.104,20.034 69.834,34.455c-4.767,-3.196 -9.538,-6.392 -14.296,-9.584c18.9,12.684 36.504,27.467 51.679,44.475c-3.85,-4.366 -7.696,-8.729 -11.538,-13.096c10.83,12.359 20.238,25.788 27.638,40.475c-2.654,-5.404 -5.308,-10.812 -7.958,-16.204c5.425,11.092 9.562,22.659 11.962,34.8c-1.137,-5.916 -2.275,-11.829 -3.404,-17.737c1.637,9.016 2.237,18.05 1.683,27.196c0.442,-5.796 0.884,-11.596 1.325,-17.396c-0.646,8.137 -2.171,16.066 -4.771,23.8c1.88,-5.417 3.767,-10.838 5.65,-16.254c-2.579,7.283 -6.008,14.12 -10.295,20.554c3.191,-4.759 6.379,-9.538 9.579,-14.3c-4.567,6.658 -9.896,12.646 -15.896,18.054c4.358,-3.85 8.725,-7.696 13.083,-11.542c-7.812,6.863 -16.491,12.538 -25.808,17.163c5.4,-2.654 10.808,-5.3 16.208,-7.954c-10.879,5.266 -22.337,9.016 -34.183,11.395c5.912,-1.133 11.825,-2.266 17.742,-3.4c-12.996,2.492 -26.184,3.292 -39.38,2.367c5.805,0.446 11.596,0.888 17.392,1.338c-11.796,-0.942 -23.379,-3.238 -34.592,-7.067c5.421,1.883 10.85,3.779 16.263,5.658c-9.383,-3.312 -18.296,-7.641 -26.621,-13.104c4.763,3.196 9.533,6.392 14.3,9.583c-11.458,-7.704 -21.779,-16.845 -30.979,-27.129c3.846,4.359 7.687,8.729 11.537,13.088c-11.05,-12.609 -20.158,-26.625 -27.6,-41.625c2.655,5.396 5.309,10.804 7.959,16.204c-9.55,-19.683 -16.096,-40.583 -20.263,-62.05c1.134,5.917 2.271,11.825 3.4,17.733c-5.071,-27.029 -6.387,-54.587 -4.421,-82.008c-0.441,5.8 -0.887,11.604 -1.325,17.404c2.817,-36.829 10.621,-73.037 22.684,-107.942c-1.888,5.421 -3.775,10.846 -5.65,16.267c13.587,-38.85 32.304,-75.675 55.187,-109.862c-3.2,4.77 -6.391,9.541 -9.583,14.3c24.862,-36.88 54.387,-70.313 87.667,-99.813c-4.359,3.85 -8.73,7.696 -13.096,11.542c41.071,-36.138 87.133,-66.067 136.204,-90.167c-5.408,2.654 -10.804,5.308 -16.208,7.963c49.925,-24.334 102.604,-42.58 156.645,-55.313c15.871,-3.746 31.855,-19.704 38.875,-33.8c7.359,-14.771 9.63,-35.733 3.592,-51.392c-6.267,-16.258 -17.417,-31.566 -33.804,-38.883c-5.413,-1.879 -10.833,-3.762 -16.254,-5.654c-11.888,-2.45 -23.588,-1.75 -35.129,2.062" style="fill:#fff;fill-rule:nonzero;stroke:#1a171b;stroke-width:6.25px;"/></svg>