<?xml version="1.0" encoding="UTF-8" standalone="no"?><!DOCTYPE svg PUBLIC "-//W3C//DTD SVG 1.1//EN" "http://www.w3.org/Graphics/SVG/1.1/DTD/svg11.dtd"><svg width="100%" height="100%" viewBox="0 0 4342 3475" version="1.1" xmlns="http://www.w3.org/2000/svg" xmlns:xlink="http://www.w3.org/1999/xlink" xml:space="preserve" xmlns:serif="http://www.serif.com/" style="fill-rule:evenodd;clip-rule:evenodd;stroke-miterlimit:10;"><rect x="403.867" y="973.029" width="964.246" height="1785.1" style="fill:#fff;stroke:#231f20;stroke-width:8.67px;"/><path d="M1368.11,973.029l-964.246,0l475.233,-150.371l489.012,150.371Z" style="fill:#fff;fill-rule:nonzero;stroke:#231f20;stroke-width:8.67px;stroke-linecap:round;stroke-linejoin:round;"/><rect x="1368.11" y="2145.84" width="2585.3" height="612.283" style="fill:#fff;stroke:#231f20;stroke-width:6.54px;"/><rect x="1368.11" y="1558.28" width="2585.3" height="558.013" style="fill:#fff;stroke:#231f20;stroke-width:6.46px;"/><rect x="1368.11" y="1077.73" width="2585.3" height="451" style="fill:#fff;stroke:#231f20;stroke-width:6.38px;"/><rect x="3722.22" y="1197.38" width="135.375" height="211.7" style="fill:#fff;stroke:#231f20;stroke-width:8.67px;"/><rect x="1368.11" y="1528.73" width="2585.3" height="29.55" style="fill:#fff;stroke:#231f20;stroke-width:8.67px;"/><rect x="1368.11" y="2116.29" width="2585.3" height="29.55" style="fill:#fff;stroke:#231f20;stroke-width:8.67px;"/><rect x="403.867" y="1528.73" width="964.246" height="29.55" style="fill:#fff;stroke:#231f20;stroke-width:8.67px;"/><rect x="403.867" y="2116.29" width="964.246" height="29.55" style="fill:#fff;stroke:#231f20;stroke-width:8.67px;"/><rect x="403.867" y="2510.88" width="964.246" height="29.55" style="fill:#fff;stroke:#231f20;stroke-width:8.67px;"/><rect x="1368.11" y="812.996" width="2585.3" height="264.742" style="fill:#fff;stroke:#231f20;stroke-width:8.67px;"/><rect x="2340.8" y="2212.33" width="290.904" height="544.358" style="fill:#fff;stroke:#231f20;stroke-width:8.67px;"/><rect x="2327.14" y="2212.35" width="318.204" height="40.771" style="fill:#fff;stroke:#231f20;stroke-width:8.67px;"/><rect x="2340.8" y="2713.56" width="290.904" height="43.133" style="fill:#fff;stroke:#231f20;stroke-width:8.67px;"/><rect x="2394" y="2393.15" width="184.488" height="363.542" style="fill:#fff;stroke:#231f20;stroke-width:8.67px;"/><path d="M2487.41,2346.27l0,-60.259" style="fill:none;fill-rule:nonzero;stroke:#231f20;stroke-width:8.67px;"/><path d="M2576.62,2372.19c-1.696,-47.875 -40.929,-86.188 -89.213,-86.188c-48.279,0 -87.516,38.313 -89.216,86.188l178.429,-0Z" style="fill:#fff;fill-rule:nonzero;stroke:#231f20;stroke-width:8.67px;"/><path d="M2514.62,2372.19c-0.763,-14.425 -12.596,-25.921 -27.221,-25.921c-14.608,-0 -26.45,11.495 -27.212,25.921l54.433,-0Z" style="fill:#fff;fill-rule:nonzero;stroke:#231f20;stroke-width:8.67px;"/><path d="M2463.89,2356.83l-47.525,-34.566" style="fill:none;fill-rule:nonzero;stroke:#231f20;stroke-width:8.67px;"/><path d="M2510.93,2356.83l47.525,-34.566" style="fill:none;fill-rule:nonzero;stroke:#231f20;stroke-width:8.67px;"/><rect x="1370.17" y="2212.33" width="290.904" height="544.358" style="fill:#fff;stroke:#231f20;stroke-width:8.67px;"/><rect x="1370.17" y="2713.56" width="290.904" height="43.133" style="fill:#fff;stroke:#231f20;stroke-width:8.67px;"/><rect x="1423.37" y="2393.15" width="184.487" height="363.542" style="fill:#fff;stroke:#231f20;stroke-width:8.67px;"/><path d="M1516.78,2346.27l0,-60.259" style="fill:none;fill-rule:nonzero;stroke:#231f20;stroke-width:8.67px;"/><path d="M1606,2372.19c-1.704,-47.875 -40.937,-86.188 -89.212,-86.188c-48.288,0 -87.525,38.313 -89.225,86.188l178.437,-0Z" style="fill:#fff;fill-rule:nonzero;stroke:#231f20;stroke-width:8.67px;"/><path d="M1544,2372.19c-0.762,-14.425 -12.591,-25.921 -27.212,-25.921c-14.617,-0 -26.459,11.495 -27.221,25.921l54.433,-0Z" style="fill:#fff;fill-rule:nonzero;stroke:#231f20;stroke-width:8.67px;"/><path d="M1493.27,2356.83l-47.525,-34.566" style="fill:none;fill-rule:nonzero;stroke:#231f20;stroke-width:8.67px;"/><path d="M1540.31,2356.83l47.525,-34.566" style="fill:none;fill-rule:nonzero;stroke:#231f20;stroke-width:8.67px;"/><rect x="3211.49" y="2230.07" width="186.546" height="353.942" style="fill:#fff;stroke:#231f20;stroke-width:8.67px;"/><path d="M3271.47,2229.21l-0,355.671" style="fill:none;fill-rule:nonzero;stroke:#231f20;stroke-width:8.67px;"/><path d="M3338.05,2229.21l0,355.671" style="fill:none;fill-rule:nonzero;stroke:#231f20;stroke-width:8.67px;"/><path d="M3399.98,2315.16l-190.425,0" style="fill:none;fill-rule:nonzero;stroke:#231f20;stroke-width:8.67px;"/><path d="M3399.98,2407.04l-190.425,-0" style="fill:none;fill-rule:nonzero;stroke:#231f20;stroke-width:8.67px;"/><path d="M3399.98,2498.92l-190.425,-0" style="fill:none;fill-rule:nonzero;stroke:#231f20;stroke-width:8.67px;"/><rect x="3052.92" y="2230.07" width="110.762" height="353.942" style="fill:#fff;stroke:#231f20;stroke-width:8.67px;"/><path d="M3166.33,2315.16l-112.458,0" style="fill:none;fill-rule:nonzero;stroke:#231f20;stroke-width:8.67px;"/><path d="M3166.33,2407.04l-112.458,-0" style="fill:none;fill-rule:nonzero;stroke:#231f20;stroke-width:8.67px;"/><path d="M3166.33,2498.92l-112.458,-0" style="fill:none;fill-rule:nonzero;stroke:#231f20;stroke-width:8.67px;"/><path d="M3110.1,2229.21l0,355.671" style="fill:none;fill-rule:nonzero;stroke:#231f20;stroke-width:8.67px;"/><rect x="3443.19" y="2230.07" width="110.762" height="353.942" style="fill:#fff;stroke:#231f20;stroke-width:8.67px;"/><path d="M3556.59,2315.16l-112.454,0" style="fill:none;fill-rule:nonzero;stroke:#231f20;stroke-width:8.67px;"/><path d="M3556.59,2407.04l-112.454,-0" style="fill:none;fill-rule:nonzero;stroke:#231f20;stroke-width:8.67px;"/><path d="M3556.59,2498.92l-112.454,-0" style="fill:none;fill-rule:nonzero;stroke:#231f20;stroke-width:8.67px;"/><path d="M3500.37,2229.21l-0,355.671" style="fill:none;fill-rule:nonzero;stroke:#231f20;stroke-width:8.67px;"/><rect x="3211.49" y="1211.63" width="186.546" height="169.775" style="fill:#fff;stroke:#231f20;stroke-width:8.67px;"/><path d="M3271.47,1210.77l-0,164.829" style="fill:none;fill-rule:nonzero;stroke:#231f20;stroke-width:8.67px;"/><path d="M3338.05,1210.77l0,164.829" style="fill:none;fill-rule:nonzero;stroke:#231f20;stroke-width:8.67px;"/><path d="M3399.98,1296.73l-190.425,0" style="fill:none;fill-rule:nonzero;stroke:#231f20;stroke-width:8.67px;"/><rect x="3052.92" y="1211.63" width="110.762" height="169.775" style="fill:#fff;stroke:#231f20;stroke-width:8.67px;"/><path d="M3166.33,1296.73l-112.458,0" style="fill:none;fill-rule:nonzero;stroke:#231f20;stroke-width:8.67px;"/><path d="M3110.1,1210.77l0,164.829" style="fill:none;fill-rule:nonzero;stroke:#231f20;stroke-width:8.67px;"/><rect x="2405.85" y="1211.63" width="110.762" height="169.775" style="fill:#fff;stroke:#231f20;stroke-width:8.67px;"/><path d="M2519.26,1296.73l-112.466,0" style="fill:none;fill-rule:nonzero;stroke:#231f20;stroke-width:8.67px;"/><path d="M2463.03,1210.77l0,173.508" style="fill:none;fill-rule:nonzero;stroke:#231f20;stroke-width:8.67px;"/><rect x="3443.19" y="1211.63" width="110.762" height="169.775" style="fill:#fff;stroke:#231f20;stroke-width:8.67px;"/><path d="M3556.59,1296.73l-112.454,0" style="fill:none;fill-rule:nonzero;stroke:#231f20;stroke-width:8.67px;"/><path d="M3500.37,1210.77l-0,164.829" style="fill:none;fill-rule:nonzero;stroke:#231f20;stroke-width:8.67px;"/><rect x="1825.85" y="1211.63" width="186.554" height="169.775" style="fill:#fff;stroke:#231f20;stroke-width:8.67px;"/><path d="M1885.85,1210.77l-0,164.829" style="fill:none;fill-rule:nonzero;stroke:#231f20;stroke-width:8.67px;"/><path d="M1952.42,1210.77l-0,164.829" style="fill:none;fill-rule:nonzero;stroke:#231f20;stroke-width:8.67px;"/><path d="M2014.35,1296.73l-190.425,0" style="fill:none;fill-rule:nonzero;stroke:#231f20;stroke-width:8.67px;"/><rect x="1732.99" y="1211.63" width="53.596" height="169.775" style="fill:#fff;stroke:#231f20;stroke-width:8.67px;"/><path d="M1789.23,1296.73l-57.016,0" style="fill:none;fill-rule:nonzero;stroke:#231f20;stroke-width:8.67px;"/><rect x="2049.81" y="1211.63" width="53.583" height="169.775" style="fill:#fff;stroke:#231f20;stroke-width:8.67px;"/><path d="M2106.05,1296.73l-57.004,0" style="fill:none;fill-rule:nonzero;stroke:#231f20;stroke-width:8.67px;"/><rect x="3211.49" y="1659.39" width="186.546" height="423.75" style="fill:#fff;stroke:#231f20;stroke-width:8.67px;"/><path d="M3271.47,1658.36l-0,425.817" style="fill:none;fill-rule:nonzero;stroke:#231f20;stroke-width:8.67px;"/><path d="M3338.05,1658.36l0,425.817" style="fill:none;fill-rule:nonzero;stroke:#231f20;stroke-width:8.67px;"/><path d="M3399.98,1761.27l-190.425,-0" style="fill:none;fill-rule:nonzero;stroke:#231f20;stroke-width:8.67px;"/><path d="M3399.98,1871.26l-190.425,0" style="fill:none;fill-rule:nonzero;stroke:#231f20;stroke-width:8.67px;"/><path d="M3399.98,1981.26l-190.425,0" style="fill:none;fill-rule:nonzero;stroke:#231f20;stroke-width:8.67px;"/><rect x="3052.92" y="1659.39" width="110.762" height="423.75" style="fill:#fff;stroke:#231f20;stroke-width:8.67px;"/><path d="M3166.33,1761.27l-112.458,-0" style="fill:none;fill-rule:nonzero;stroke:#231f20;stroke-width:8.67px;"/><path d="M3166.33,1871.26l-112.458,0" style="fill:none;fill-rule:nonzero;stroke:#231f20;stroke-width:8.67px;"/><path d="M3166.33,1981.26l-112.458,0" style="fill:none;fill-rule:nonzero;stroke:#231f20;stroke-width:8.67px;"/><path d="M3110.1,1658.36l0,425.817" style="fill:none;fill-rule:nonzero;stroke:#231f20;stroke-width:8.67px;"/><rect x="3443.19" y="1659.39" width="110.762" height="423.75" style="fill:#fff;stroke:#231f20;stroke-width:8.67px;"/><path d="M3556.59,1761.27l-112.454,-0" style="fill:none;fill-rule:nonzero;stroke:#231f20;stroke-width:8.67px;"/><path d="M3556.59,1871.26l-112.454,0" style="fill:none;fill-rule:nonzero;stroke:#231f20;stroke-width:8.67px;"/><path d="M3556.59,1981.26l-112.454,0" style="fill:none;fill-rule:nonzero;stroke:#231f20;stroke-width:8.67px;"/><path d="M3500.37,1658.36l-0,425.817" style="fill:none;fill-rule:nonzero;stroke:#231f20;stroke-width:8.67px;"/><rect x="2407.01" y="1659.38" width="126.275" height="321.875" style="fill:#fff;stroke:#231f20;stroke-width:8.67px;"/><path d="M2467,1658.36l0,325" style="fill:none;fill-rule:nonzero;stroke:#231f20;stroke-width:8.67px;"/><path d="M2535.21,1761.27l-130.13,-0" style="fill:none;fill-rule:nonzero;stroke:#231f20;stroke-width:8.67px;"/><path d="M2535.21,1871.26l-130.13,0" style="fill:none;fill-rule:nonzero;stroke:#231f20;stroke-width:8.67px;"/><rect x="1825.85" y="2248.39" width="186.554" height="321.875" style="fill:#fff;stroke:#231f20;stroke-width:8.67px;"/><path d="M1885.85,2247.36l-0,325" style="fill:none;fill-rule:nonzero;stroke:#231f20;stroke-width:8.67px;"/><path d="M1952.42,2247.36l-0,325" style="fill:none;fill-rule:nonzero;stroke:#231f20;stroke-width:8.67px;"/><path d="M2014.35,2350.26l-190.425,-0" style="fill:none;fill-rule:nonzero;stroke:#231f20;stroke-width:8.67px;"/><path d="M2014.35,2460.26l-190.425,0" style="fill:none;fill-rule:nonzero;stroke:#231f20;stroke-width:8.67px;"/><rect x="1727.42" y="2248.38" width="54.375" height="322.058" style="fill:#fff;stroke:#231f20;stroke-width:8.67px;"/><path d="M1784.42,2350.26l-57.004,-0" style="fill:none;fill-rule:nonzero;stroke:#231f20;stroke-width:8.67px;"/><path d="M1784.42,2460.26l-57.004,0" style="fill:none;fill-rule:nonzero;stroke:#231f20;stroke-width:8.67px;"/><rect x="2053.83" y="2248.38" width="54.375" height="322.058" style="fill:#fff;stroke:#231f20;stroke-width:8.67px;"/><path d="M2110.85,2350.26l-57.012,-0" style="fill:none;fill-rule:nonzero;stroke:#231f20;stroke-width:8.67px;"/><path d="M2110.85,2460.26l-57.012,0" style="fill:none;fill-rule:nonzero;stroke:#231f20;stroke-width:8.67px;"/><rect x="1825.85" y="1659.38" width="186.554" height="321.875" style="fill:#fff;stroke:#231f20;stroke-width:8.67px;"/><path d="M1885.85,1658.36l-0,325" style="fill:none;fill-rule:nonzero;stroke:#231f20;stroke-width:8.67px;"/><path d="M1952.42,1658.36l-0,325" style="fill:none;fill-rule:nonzero;stroke:#231f20;stroke-width:8.67px;"/><path d="M2014.35,1761.27l-190.425,-0" style="fill:none;fill-rule:nonzero;stroke:#231f20;stroke-width:8.67px;"/><path d="M2014.35,1871.26l-190.425,0" style="fill:none;fill-rule:nonzero;stroke:#231f20;stroke-width:8.67px;"/><rect x="1727.42" y="1659.38" width="54.375" height="322.067" style="fill:#fff;stroke:#231f20;stroke-width:8.67px;"/><path d="M1775.74,1761.27l-48.325,-0" style="fill:none;fill-rule:nonzero;stroke:#231f20;stroke-width:8.67px;"/><path d="M1775.74,1871.26l-48.325,0" style="fill:none;fill-rule:nonzero;stroke:#231f20;stroke-width:8.67px;"/><rect x="2053.83" y="1659.38" width="54.375" height="322.067" style="fill:#fff;stroke:#231f20;stroke-width:8.67px;"/><path d="M2110.85,1761.27l-57.012,-0" style="fill:none;fill-rule:nonzero;stroke:#231f20;stroke-width:8.67px;"/><path d="M2110.85,1871.26l-57.012,0" style="fill:none;fill-rule:nonzero;stroke:#231f20;stroke-width:8.67px;"/><path d="M3789.53,1657.9c-37.383,0 -67.679,30.304 -67.679,67.692l-0,300.971l135.362,-0l0,-300.971c0,-37.388 -30.296,-67.692 -67.683,-67.692" style="fill:#fff;fill-rule:nonzero;"/><path d="M3789.53,1657.9c-37.383,0 -67.679,30.304 -67.679,67.692l-0,300.971l135.362,-0l0,-300.971c0,-37.388 -30.296,-67.692 -67.683,-67.692Z" style="fill:none;fill-rule:nonzero;stroke:#231f20;stroke-width:8.67px;"/><path d="M2778.58,1657.9c-37.375,0 -67.679,30.304 -67.679,67.692l0,300.971l135.371,-0l-0,-300.971c-0,-37.388 -30.304,-67.692 -67.692,-67.692" style="fill:#fff;fill-rule:nonzero;"/><path d="M2778.58,1657.9c-37.375,0 -67.679,30.304 -67.679,67.692l0,300.971l135.371,-0l-0,-300.971c-0,-37.388 -30.304,-67.692 -67.692,-67.692Z" style="fill:none;fill-rule:nonzero;stroke:#231f20;stroke-width:8.67px;"/><rect x="3721.84" y="2223.85" width="135.363" height="368.663" style="fill:#fff;stroke:#231f20;stroke-width:8.67px;"/><rect x="2710.89" y="2223.85" width="135.375" height="368.663" style="fill:#fff;stroke:#231f20;stroke-width:8.67px;"/><rect x="2710.89" y="1202.83" width="135.375" height="211.7" style="fill:#fff;stroke:#231f20;stroke-width:8.67px;"/><rect x="403.867" y="973.029" width="964.246" height="555.704" style="fill:#fff;stroke:#231f20;stroke-width:8.75px;"/><rect x="403.867" y="1558.28" width="964.246" height="558.008" style="fill:#fff;stroke:#231f20;stroke-width:8.75px;"/><rect x="403.867" y="2145.84" width="964.246" height="365.033" style="fill:#fff;stroke:#231f20;stroke-width:8.45px;"/><rect x="783.129" y="2169.14" width="186.554" height="321.875" style="fill:#fff;stroke:#231f20;stroke-width:8.67px;"/><path d="M843.121,2168.11l-0,325" style="fill:none;fill-rule:nonzero;stroke:#231f20;stroke-width:8.67px;"/><path d="M909.692,2168.11l-0,325" style="fill:none;fill-rule:nonzero;stroke:#231f20;stroke-width:8.67px;"/><path d="M971.621,2271.01l-190.429,0" style="fill:none;fill-rule:nonzero;stroke:#231f20;stroke-width:8.67px;"/><path d="M971.621,2381.02l-190.429,-0" style="fill:none;fill-rule:nonzero;stroke:#231f20;stroke-width:8.67px;"/><rect x="684.683" y="2169.13" width="54.367" height="322.058" style="fill:#fff;stroke:#231f20;stroke-width:8.67px;"/><path d="M741.696,2271.01l-57.004,0" style="fill:none;fill-rule:nonzero;stroke:#231f20;stroke-width:8.67px;"/><path d="M741.696,2381.01l-57.004,0" style="fill:none;fill-rule:nonzero;stroke:#231f20;stroke-width:8.67px;"/><rect x="1011.11" y="2169.13" width="54.367" height="322.058" style="fill:#fff;stroke:#231f20;stroke-width:8.67px;"/><path d="M1068.12,2271.01l-57.004,0" style="fill:none;fill-rule:nonzero;stroke:#231f20;stroke-width:8.67px;"/><path d="M1068.12,2381.01l-57.004,0" style="fill:none;fill-rule:nonzero;stroke:#231f20;stroke-width:8.67px;"/><rect x="783.129" y="1613.38" width="186.554" height="321.875" style="fill:#fff;stroke:#231f20;stroke-width:8.67px;"/><path d="M843.121,1612.35l-0,325" style="fill:none;fill-rule:nonzero;stroke:#231f20;stroke-width:8.67px;"/><path d="M909.692,1612.35l-0,325" style="fill:none;fill-rule:nonzero;stroke:#231f20;stroke-width:8.67px;"/><path d="M971.621,1715.26l-190.429,-0" style="fill:none;fill-rule:nonzero;stroke:#231f20;stroke-width:8.67px;"/><path d="M971.621,1825.26l-190.429,0" style="fill:none;fill-rule:nonzero;stroke:#231f20;stroke-width:8.67px;"/><rect x="684.683" y="1613.38" width="54.367" height="322.067" style="fill:#fff;stroke:#231f20;stroke-width:8.67px;"/><path d="M741.696,1715.26l-57.004,-0" style="fill:none;fill-rule:nonzero;stroke:#231f20;stroke-width:8.67px;"/><path d="M741.696,1825.26l-57.004,0" style="fill:none;fill-rule:nonzero;stroke:#231f20;stroke-width:8.67px;"/><rect x="1011.11" y="1613.38" width="54.367" height="322.067" style="fill:#fff;stroke:#231f20;stroke-width:8.67px;"/><path d="M1068.12,1715.26l-57.004,-0" style="fill:none;fill-rule:nonzero;stroke:#231f20;stroke-width:8.67px;"/><path d="M1068.12,1825.26l-57.004,0" style="fill:none;fill-rule:nonzero;stroke:#231f20;stroke-width:8.67px;"/><rect x="607.175" y="1936.7" width="535.713" height="113.767" style="fill:#fff;stroke:#231f20;stroke-width:8.67px;"/><path d="M636.629,2050.47l0,-113.771" style="fill:none;fill-rule:nonzero;stroke:#231f20;stroke-width:8.67px;"/><path d="M668.417,2050.47l-0,-113.771" style="fill:none;fill-rule:nonzero;stroke:#231f20;stroke-width:8.67px;"/><path d="M700.204,2050.47l0,-113.771" style="fill:none;fill-rule:nonzero;stroke:#231f20;stroke-width:8.67px;"/><path d="M731.983,2050.47l0,-113.771" style="fill:none;fill-rule:nonzero;stroke:#231f20;stroke-width:8.67px;"/><path d="M763.771,2050.47l-0,-113.771" style="fill:none;fill-rule:nonzero;stroke:#231f20;stroke-width:8.67px;"/><path d="M795.558,2050.47l0,-113.771" style="fill:none;fill-rule:nonzero;stroke:#231f20;stroke-width:8.67px;"/><path d="M827.35,2050.47l0,-113.771" style="fill:none;fill-rule:nonzero;stroke:#231f20;stroke-width:8.67px;"/><path d="M859.146,2050.47l-0,-113.771" style="fill:none;fill-rule:nonzero;stroke:#231f20;stroke-width:8.67px;"/><path d="M890.933,2050.47l0,-113.771" style="fill:none;fill-rule:nonzero;stroke:#231f20;stroke-width:8.67px;"/><path d="M922.721,2050.47l-0,-113.771" style="fill:none;fill-rule:nonzero;stroke:#231f20;stroke-width:8.67px;"/><path d="M954.5,2050.47l0,-113.771" style="fill:none;fill-rule:nonzero;stroke:#231f20;stroke-width:8.67px;"/><path d="M986.288,2050.47l-0,-113.771" style="fill:none;fill-rule:nonzero;stroke:#231f20;stroke-width:8.67px;"/><path d="M1018.08,2050.47l0,-113.771" style="fill:none;fill-rule:nonzero;stroke:#231f20;stroke-width:8.67px;"/><path d="M1049.87,2050.47l-0,-113.771" style="fill:none;fill-rule:nonzero;stroke:#231f20;stroke-width:8.67px;"/><path d="M1081.65,2050.47l0,-113.771" style="fill:none;fill-rule:nonzero;stroke:#231f20;stroke-width:8.67px;"/><path d="M1113.43,2050.47l0,-113.771" style="fill:none;fill-rule:nonzero;stroke:#231f20;stroke-width:8.67px;"/><rect x="811.75" y="1091.3" width="186.554" height="169.775" style="fill:#fff;stroke:#231f20;stroke-width:8.67px;"/><path d="M871.742,1090.44l-0,164.829" style="fill:none;fill-rule:nonzero;stroke:#231f20;stroke-width:8.67px;"/><path d="M938.313,1090.44l-0,164.829" style="fill:none;fill-rule:nonzero;stroke:#231f20;stroke-width:8.67px;"/><path d="M1000.23,1176.41l-190.425,0" style="fill:none;fill-rule:nonzero;stroke:#231f20;stroke-width:8.67px;"/><rect x="352.025" y="2644.37" width="535.713" height="113.758" style="fill:#fff;stroke:#231f20;stroke-width:8.67px;"/><path d="M381.479,2758.12l0,-113.758" style="fill:none;fill-rule:nonzero;stroke:#231f20;stroke-width:8.67px;"/><path d="M413.267,2758.12l-0,-113.758" style="fill:none;fill-rule:nonzero;stroke:#231f20;stroke-width:8.67px;"/><path d="M445.046,2758.12l-0,-113.758" style="fill:none;fill-rule:nonzero;stroke:#231f20;stroke-width:8.67px;"/><path d="M476.838,2758.12l-0,-113.758" style="fill:none;fill-rule:nonzero;stroke:#231f20;stroke-width:8.67px;"/><path d="M508.625,2758.12l0,-113.758" style="fill:none;fill-rule:nonzero;stroke:#231f20;stroke-width:8.67px;"/><path d="M540.421,2758.12l-0,-113.758" style="fill:none;fill-rule:nonzero;stroke:#231f20;stroke-width:8.67px;"/><path d="M572.208,2758.12l0,-113.758" style="fill:none;fill-rule:nonzero;stroke:#231f20;stroke-width:8.67px;"/><path d="M603.996,2758.12l-0,-113.758" style="fill:none;fill-rule:nonzero;stroke:#231f20;stroke-width:8.67px;"/><path d="M635.775,2758.12l0,-113.758" style="fill:none;fill-rule:nonzero;stroke:#231f20;stroke-width:8.67px;"/><path d="M667.567,2758.12l-0,-113.758" style="fill:none;fill-rule:nonzero;stroke:#231f20;stroke-width:8.67px;"/><path d="M699.354,2758.12l0,-113.758" style="fill:none;fill-rule:nonzero;stroke:#231f20;stroke-width:8.67px;"/><path d="M731.142,2758.12l-0,-113.758" style="fill:none;fill-rule:nonzero;stroke:#231f20;stroke-width:8.67px;"/><path d="M762.929,2758.12l0,-113.758" style="fill:none;fill-rule:nonzero;stroke:#231f20;stroke-width:8.67px;"/><path d="M794.717,2758.12l-0,-113.758" style="fill:none;fill-rule:nonzero;stroke:#231f20;stroke-width:8.67px;"/><path d="M826.504,2758.12l0,-113.758" style="fill:none;fill-rule:nonzero;stroke:#231f20;stroke-width:8.67px;"/><path d="M858.296,2758.12l-0,-113.758" style="fill:none;fill-rule:nonzero;stroke:#231f20;stroke-width:8.67px;"/><rect x="887.738" y="2644.37" width="535.713" height="113.758" style="fill:#fff;stroke:#231f20;stroke-width:8.67px;"/><path d="M917.192,2758.12l-0,-113.758" style="fill:none;fill-rule:nonzero;stroke:#231f20;stroke-width:8.67px;"/><path d="M948.979,2758.12l0,-113.758" style="fill:none;fill-rule:nonzero;stroke:#231f20;stroke-width:8.67px;"/><path d="M980.767,2758.12l-0,-113.758" style="fill:none;fill-rule:nonzero;stroke:#231f20;stroke-width:8.67px;"/><path d="M1012.56,2758.12l0,-113.758" style="fill:none;fill-rule:nonzero;stroke:#231f20;stroke-width:8.67px;"/><path d="M1044.34,2758.12l-0,-113.758" style="fill:none;fill-rule:nonzero;stroke:#231f20;stroke-width:8.67px;"/><path d="M1076.13,2758.12l-0.008,-113.758" style="fill:none;fill-rule:nonzero;stroke:#231f20;stroke-width:8.67px;"/><path d="M1107.92,2758.12l-0,-113.758" style="fill:none;fill-rule:nonzero;stroke:#231f20;stroke-width:8.67px;"/><path d="M1139.71,2758.12l0,-113.758" style="fill:none;fill-rule:nonzero;stroke:#231f20;stroke-width:8.67px;"/><path d="M1171.5,2758.12l-0,-113.758" style="fill:none;fill-rule:nonzero;stroke:#231f20;stroke-width:8.67px;"/><path d="M1203.28,2758.12l0,-113.758" style="fill:none;fill-rule:nonzero;stroke:#231f20;stroke-width:8.67px;"/><path d="M1235.07,2758.12l-0,-113.758" style="fill:none;fill-rule:nonzero;stroke:#231f20;stroke-width:8.67px;"/><path d="M1266.85,2758.12l0,-113.758" style="fill:none;fill-rule:nonzero;stroke:#231f20;stroke-width:8.67px;"/><path d="M1298.64,2758.12l-0,-113.758" style="fill:none;fill-rule:nonzero;stroke:#231f20;stroke-width:8.67px;"/><path d="M1330.43,2758.12l0,-113.758" style="fill:none;fill-rule:nonzero;stroke:#231f20;stroke-width:8.67px;"/><path d="M1362.23,2758.12l-0.008,-113.758" style="fill:none;fill-rule:nonzero;stroke:#231f20;stroke-width:8.67px;"/><path d="M1394,2758.12l0,-113.758" style="fill:none;fill-rule:nonzero;stroke:#231f20;stroke-width:8.67px;"/><rect x="1609.23" y="2644.37" width="539.975" height="113.758" style="fill:#fff;stroke:#231f20;stroke-width:8.67px;"/><path d="M1638.92,2758.12l-0,-113.758" style="fill:none;fill-rule:nonzero;stroke:#231f20;stroke-width:8.67px;"/><path d="M1670.95,2758.12l0,-113.758" style="fill:none;fill-rule:nonzero;stroke:#231f20;stroke-width:8.67px;"/><path d="M1702.99,2758.12l-0,-113.758" style="fill:none;fill-rule:nonzero;stroke:#231f20;stroke-width:8.67px;"/><path d="M1735.03,2758.12l0,-113.758" style="fill:none;fill-rule:nonzero;stroke:#231f20;stroke-width:8.67px;"/><path d="M1767.07,2758.12l-0,-113.758" style="fill:none;fill-rule:nonzero;stroke:#231f20;stroke-width:8.67px;"/><path d="M1799.12,2758.12l-0,-113.758" style="fill:none;fill-rule:nonzero;stroke:#231f20;stroke-width:8.67px;"/><path d="M1831.15,2758.12l0,-113.758" style="fill:none;fill-rule:nonzero;stroke:#231f20;stroke-width:8.67px;"/><path d="M1863.19,2758.12l-0,-113.758" style="fill:none;fill-rule:nonzero;stroke:#231f20;stroke-width:8.67px;"/><path d="M1895.24,2758.12l-0,-113.758" style="fill:none;fill-rule:nonzero;stroke:#231f20;stroke-width:8.67px;"/><path d="M1927.27,2758.12l-0,-113.758" style="fill:none;fill-rule:nonzero;stroke:#231f20;stroke-width:8.67px;"/><path d="M1959.32,2758.12l-0,-113.758" style="fill:none;fill-rule:nonzero;stroke:#231f20;stroke-width:8.67px;"/><path d="M1991.36,2758.12l0,-113.758" style="fill:none;fill-rule:nonzero;stroke:#231f20;stroke-width:8.67px;"/><path d="M2023.4,2758.12l0,-113.758" style="fill:none;fill-rule:nonzero;stroke:#231f20;stroke-width:8.67px;"/><path d="M2055.44,2758.12l-0.001,-113.758" style="fill:none;fill-rule:nonzero;stroke:#231f20;stroke-width:8.67px;"/><path d="M2087.47,2758.12l-0,-113.758" style="fill:none;fill-rule:nonzero;stroke:#231f20;stroke-width:8.67px;"/><path d="M2119.52,2758.12l-0,-113.758" style="fill:none;fill-rule:nonzero;stroke:#231f20;stroke-width:8.67px;"/><rect x="2149.2" y="2644.37" width="190.146" height="113.758" style="fill:#fff;stroke:#231f20;stroke-width:8.67px;"/><path d="M2178.88,2758.12l0,-113.758" style="fill:none;fill-rule:nonzero;stroke:#231f20;stroke-width:8.67px;"/><path d="M2210.93,2758.12l0,-113.758" style="fill:none;fill-rule:nonzero;stroke:#231f20;stroke-width:8.67px;"/><path d="M2242.96,2758.12l-0.001,-113.758" style="fill:none;fill-rule:nonzero;stroke:#231f20;stroke-width:8.67px;"/><path d="M2275,2758.12l0,-113.758" style="fill:none;fill-rule:nonzero;stroke:#231f20;stroke-width:8.67px;"/><path d="M2307.05,2758.12l-0,-113.758" style="fill:none;fill-rule:nonzero;stroke:#231f20;stroke-width:8.67px;"/><path d="M2339.09,2758.12l-0,-113.758" style="fill:none;fill-rule:nonzero;stroke:#231f20;stroke-width:8.67px;"/><rect x="2633.13" y="2644.37" width="535.721" height="113.758" style="fill:#fff;stroke:#231f20;stroke-width:8.67px;"/><path d="M2662.58,2758.12l0,-113.758" style="fill:none;fill-rule:nonzero;stroke:#231f20;stroke-width:8.67px;"/><path d="M2694.36,2758.12l-0,-113.758" style="fill:none;fill-rule:nonzero;stroke:#231f20;stroke-width:8.67px;"/><path d="M2726.16,2758.12l0,-113.758" style="fill:none;fill-rule:nonzero;stroke:#231f20;stroke-width:8.67px;"/><path d="M2757.95,2758.12l-0,-113.758" style="fill:none;fill-rule:nonzero;stroke:#231f20;stroke-width:8.67px;"/><path d="M2789.73,2758.12l0,-113.758" style="fill:none;fill-rule:nonzero;stroke:#231f20;stroke-width:8.67px;"/><path d="M2821.53,2758.12l0,-113.758" style="fill:none;fill-rule:nonzero;stroke:#231f20;stroke-width:8.67px;"/><path d="M2853.3,2758.12l0,-113.758" style="fill:none;fill-rule:nonzero;stroke:#231f20;stroke-width:8.67px;"/><path d="M2885.09,2758.12l-0,-113.758" style="fill:none;fill-rule:nonzero;stroke:#231f20;stroke-width:8.67px;"/><path d="M2916.88,2758.12l0,-113.758" style="fill:none;fill-rule:nonzero;stroke:#231f20;stroke-width:8.67px;"/><path d="M2948.67,2758.12l-0,-113.758" style="fill:none;fill-rule:nonzero;stroke:#231f20;stroke-width:8.67px;"/><path d="M2980.45,2758.12l0,-113.758" style="fill:none;fill-rule:nonzero;stroke:#231f20;stroke-width:8.67px;"/><path d="M3012.25,2758.12l-0,-113.758" style="fill:none;fill-rule:nonzero;stroke:#231f20;stroke-width:8.67px;"/><path d="M3044.03,2758.12l0,-113.758" style="fill:none;fill-rule:nonzero;stroke:#231f20;stroke-width:8.67px;"/><path d="M3075.82,2758.12l-0,-113.758" style="fill:none;fill-rule:nonzero;stroke:#231f20;stroke-width:8.67px;"/><path d="M3107.61,2758.12l0,-113.758" style="fill:none;fill-rule:nonzero;stroke:#231f20;stroke-width:8.67px;"/><path d="M3139.4,2758.12l-0,-113.758" style="fill:none;fill-rule:nonzero;stroke:#231f20;stroke-width:8.67px;"/><rect x="3168.85" y="2644.37" width="188.646" height="113.758" style="fill:#fff;stroke:#231f20;stroke-width:8.67px;"/><path d="M3198.3,2758.12l-0,-113.758" style="fill:none;fill-rule:nonzero;stroke:#231f20;stroke-width:8.67px;"/><path d="M3230.08,2758.12l0,-113.758" style="fill:none;fill-rule:nonzero;stroke:#231f20;stroke-width:8.67px;"/><path d="M3261.86,2758.12l-0.001,-113.758" style="fill:none;fill-rule:nonzero;stroke:#231f20;stroke-width:8.67px;"/><path d="M3293.65,2758.12l0,-113.758" style="fill:none;fill-rule:nonzero;stroke:#231f20;stroke-width:8.67px;"/><path d="M3325.45,2758.12l-0,-113.758" style="fill:none;fill-rule:nonzero;stroke:#231f20;stroke-width:8.67px;"/><path d="M3357.23,2758.12l0,-113.758" style="fill:none;fill-rule:nonzero;stroke:#231f20;stroke-width:8.67px;"/><rect x="3356.05" y="2644.37" width="535.713" height="113.758" style="fill:#fff;stroke:#231f20;stroke-width:8.67px;"/><path d="M3385.51,2758.12l0,-113.758" style="fill:none;fill-rule:nonzero;stroke:#231f20;stroke-width:8.67px;"/><path d="M3417.3,2758.12l-0,-113.758" style="fill:none;fill-rule:nonzero;stroke:#231f20;stroke-width:8.67px;"/><path d="M3449.08,2758.12l0,-113.758" style="fill:none;fill-rule:nonzero;stroke:#231f20;stroke-width:8.67px;"/><path d="M3480.87,2758.12l-0,-113.758" style="fill:none;fill-rule:nonzero;stroke:#231f20;stroke-width:8.67px;"/><path d="M3512.65,2758.12l0,-113.758" style="fill:none;fill-rule:nonzero;stroke:#231f20;stroke-width:8.67px;"/><path d="M3544.44,2758.12l-0,-113.758" style="fill:none;fill-rule:nonzero;stroke:#231f20;stroke-width:8.67px;"/><path d="M3576.23,2758.12l0,-113.758" style="fill:none;fill-rule:nonzero;stroke:#231f20;stroke-width:8.67px;"/><path d="M3608.02,2758.12l-0,-113.758" style="fill:none;fill-rule:nonzero;stroke:#231f20;stroke-width:8.67px;"/><path d="M3639.8,2758.12l0,-113.758" style="fill:none;fill-rule:nonzero;stroke:#231f20;stroke-width:8.67px;"/><path d="M3671.59,2758.12l-0,-113.758" style="fill:none;fill-rule:nonzero;stroke:#231f20;stroke-width:8.67px;"/><path d="M3703.38,2758.12l0,-113.758" style="fill:none;fill-rule:nonzero;stroke:#231f20;stroke-width:8.67px;"/><path d="M3735.17,2758.12l-0,-113.758" style="fill:none;fill-rule:nonzero;stroke:#231f20;stroke-width:8.67px;"/><path d="M3766.96,2758.12l0,-113.758" style="fill:none;fill-rule:nonzero;stroke:#231f20;stroke-width:8.67px;"/><path d="M3798.75,2758.12l-0,-113.758" style="fill:none;fill-rule:nonzero;stroke:#231f20;stroke-width:8.67px;"/><path d="M3830.53,2758.12l0,-113.758" style="fill:none;fill-rule:nonzero;stroke:#231f20;stroke-width:8.67px;"/><path d="M3862.32,2758.12l-0,-113.758" style="fill:none;fill-rule:nonzero;stroke:#231f20;stroke-width:8.67px;"/><rect x="3891.77" y="2644.37" width="96.483" height="113.758" style="fill:#fff;stroke:#231f20;stroke-width:8.67px;"/><path d="M3921.21,2758.12l-0.001,-113.758" style="fill:none;fill-rule:nonzero;stroke:#231f20;stroke-width:8.67px;"/><path d="M3953,2758.12l0,-113.758" style="fill:none;fill-rule:nonzero;stroke:#231f20;stroke-width:8.67px;"/><path d="M3984.8,2758.12l-0,-113.758" style="fill:none;fill-rule:nonzero;stroke:#231f20;stroke-width:8.67px;"/><g><rect x="2460.19" y="714.092" width="210.946" height="284.175" style="fill:#fff;stroke:#231f20;stroke-width:8.67px;stroke-linecap:square;stroke-miterlimit:1.5;"/><rect x="2502.05" y="752.346" width="127.221" height="203.196" style="fill:#fff;stroke:#231f20;stroke-width:8.67px;"/><path d="M2565.66,753.375l0,202.163" style="fill:none;fill-rule:nonzero;stroke:#231f20;stroke-width:8.58px;"/><path d="M2631.23,857.213l-129.183,-0" style="fill:none;fill-rule:nonzero;stroke:#231f20;stroke-width:8.67px;"/></g><g><rect x="3421.07" y="714.408" width="210.946" height="284.175" style="fill:#fff;stroke:#231f20;stroke-width:8.67px;stroke-linecap:square;stroke-miterlimit:1.5;"/><rect x="3462.93" y="752.663" width="127.221" height="203.196" style="fill:#fff;stroke:#231f20;stroke-width:8.67px;"/><path d="M3526.54,753.692l-0,202.162" style="fill:none;fill-rule:nonzero;stroke:#231f20;stroke-width:8.58px;"/><path d="M3592.11,857.529l-129.184,0" style="fill:none;fill-rule:nonzero;stroke:#231f20;stroke-width:8.67px;"/></g><rect x="1356.53" y="2212.35" width="318.204" height="40.771" style="fill:#fff;stroke:#231f20;stroke-width:8.67px;"/></svg>