<svg viewBox="0 0 18092 14480" xmlns="http://www.w3.org/2000/svg" xml:space="preserve" style="fill-rule:evenodd;clip-rule:evenodd;stroke-linecap:square;stroke-miterlimit:1.5">
  <path style="fill:#fff;stroke:#000;stroke-width:36.67px" d="M49.162 18.316h18024.2v14443.5H49.162z"/>
  <path style="fill:#fff;stroke:#000;stroke-width:36.67px" d="M49.162 9651.94h18024.2v4809.9H49.162z"/>
  <path style="fill:#fff;stroke:#231f20;stroke-width:36.13px;stroke-linecap:butt;stroke-miterlimit:10" d="M1682.78 4054.29h4017.69v7437.92H1682.78z"/>
  <path d="M5700.46 4054.29H1682.77l1980.14-626.546 2037.55 626.546.004-.001Z" style="fill:#fff;fill-rule:nonzero;stroke:#231f20;stroke-width:36.13px;stroke-linecap:round;stroke-linejoin:round;stroke-miterlimit:10"/>
  <path style="fill:#fff;stroke:#231f20;stroke-width:27.25px;stroke-linecap:butt;stroke-miterlimit:10" d="M5700.46 8941h10772.1v2551.18H5700.46z"/>
  <path style="fill:#fff;stroke:#231f20;stroke-width:26.92px;stroke-linecap:butt;stroke-miterlimit:10" d="M5700.46 6492.83h10772.1v2325.05H5700.46z"/>
  <path style="fill:#fff;stroke:#231f20;stroke-width:26.58px;stroke-linecap:butt;stroke-miterlimit:10" d="M5700.46 4490.54h10772.1v1879.17H5700.46z"/>
  <path style="fill:#fff;stroke:#231f20;stroke-width:36.13px;stroke-linecap:butt;stroke-miterlimit:10" d="M15509.2 4989.08h564.063v882.083H15509.2z"/>
  <path style="fill:#fff;stroke:#231f20;stroke-width:36.13px;stroke-linecap:butt;stroke-miterlimit:10" d="M5700.46 6369.71h10772.1v123.125H5700.46z"/>
  <path style="fill:#fff;stroke:#231f20;stroke-width:36.13px;stroke-linecap:butt;stroke-miterlimit:10" d="M5700.46 8817.88h10772.1v123.125H5700.46z"/>
  <path style="fill:#fff;stroke:#231f20;stroke-width:36.13px;stroke-linecap:butt;stroke-miterlimit:10" d="M1682.78 6369.71h4017.69v123.125H1682.78z"/>
  <path style="fill:#fff;stroke:#231f20;stroke-width:36.13px;stroke-linecap:butt;stroke-miterlimit:10" d="M1682.78 8817.88h4017.69v123.125H1682.78z"/>
  <path style="fill:#fff;stroke:#231f20;stroke-width:36.13px;stroke-linecap:butt;stroke-miterlimit:10" d="M1682.78 10462h4017.69v123.125H1682.78z"/>
  <path style="fill:#fff;stroke:#231f20;stroke-width:36.13px;stroke-linecap:butt;stroke-miterlimit:10" d="M5700.46 3387.48h10772.1v1103.09H5700.46z"/>
  <path style="fill:#fff;stroke:#231f20;stroke-width:36.13px;stroke-linecap:butt;stroke-miterlimit:10" d="M9753.33 9218.04h1212.1v2268.16h-1212.1z"/>
  <path style="fill:#fff;stroke:#231f20;stroke-width:36.13px;stroke-linecap:butt;stroke-miterlimit:10" d="M9696.42 9218.12h1325.85v169.879H9696.42z"/>
  <path style="fill:#fff;stroke:#231f20;stroke-width:36.13px;stroke-linecap:butt;stroke-miterlimit:10" d="M9753.33 11306.5h1212.1v179.721h-1212.1z"/>
  <path style="fill:#fff;stroke:#231f20;stroke-width:36.13px;stroke-linecap:butt;stroke-miterlimit:10" d="M9975 9971.46h768.7v1514.76H9975z"/>
  <path d="M10364.2 9776.12v-251.079" style="fill:none;fill-rule:nonzero;stroke:#231f20;stroke-width:36.13px;stroke-linecap:butt;stroke-miterlimit:10"/>
  <path d="M10735.9 9884.12c-7.067-199.479-170.538-359.117-371.721-359.117-201.163 0-364.65 159.638-371.734 359.117h743.455Z" style="fill:#fff;fill-rule:nonzero;stroke:#231f20;stroke-width:36.13px;stroke-linecap:butt;stroke-miterlimit:10"/>
  <path d="M10477.6 9884.12c-3.179-60.104-52.483-108.004-113.421-108.004-60.866 0-110.208 47.896-113.383 108.004h226.804Z" style="fill:#fff;fill-rule:nonzero;stroke:#231f20;stroke-width:36.13px;stroke-linecap:butt;stroke-miterlimit:10"/>
  <path d="m10266.2 9820.12-198.021-144.025" style="fill:none;fill-rule:nonzero;stroke:#231f20;stroke-width:36.13px;stroke-linecap:butt;stroke-miterlimit:10"/>
  <path d="m10462.2 9820.12 198.021-144.025" style="fill:none;fill-rule:nonzero;stroke:#231f20;stroke-width:36.13px;stroke-linecap:butt;stroke-miterlimit:10"/>
  <path style="fill:#fff;stroke:#231f20;stroke-width:36.13px;stroke-linecap:butt;stroke-miterlimit:10" d="M5709.04 9218.04h1212.1v2268.16h-1212.1z"/>
  <path style="fill:#fff;stroke:#231f20;stroke-width:36.13px;stroke-linecap:butt;stroke-miterlimit:10" d="M5709.04 11306.5h1212.1v179.721h-1212.1z"/>
  <path style="fill:#fff;stroke:#231f20;stroke-width:36.13px;stroke-linecap:butt;stroke-miterlimit:10" d="M5930.71 9971.46h768.696v1514.76H5930.71z"/>
  <path d="M6319.92 9776.12v-251.079" style="fill:none;fill-rule:nonzero;stroke:#231f20;stroke-width:36.13px;stroke-linecap:butt;stroke-miterlimit:10"/>
  <path d="M6691.67 9884.12c-7.1-199.479-170.571-359.117-371.717-359.117-201.2 0-364.688 159.638-371.771 359.117h743.488Z" style="fill:#fff;fill-rule:nonzero;stroke:#231f20;stroke-width:36.13px;stroke-linecap:butt;stroke-miterlimit:10"/>
  <path d="M6433.33 9884.12c-3.175-60.104-52.462-108.004-113.383-108.004-60.904 0-110.246 47.896-113.421 108.004h226.804Z" style="fill:#fff;fill-rule:nonzero;stroke:#231f20;stroke-width:36.13px;stroke-linecap:butt;stroke-miterlimit:10"/>
  <path d="m6221.96 9820.12-198.021-144.025" style="fill:none;fill-rule:nonzero;stroke:#231f20;stroke-width:36.13px;stroke-linecap:butt;stroke-miterlimit:10"/>
  <path d="m6417.96 9820.12 198.021-144.025" style="fill:none;fill-rule:nonzero;stroke:#231f20;stroke-width:36.13px;stroke-linecap:butt;stroke-miterlimit:10"/>
  <path style="fill:#fff;stroke:#231f20;stroke-width:36.13px;stroke-linecap:butt;stroke-miterlimit:10" d="M13381.2 9291.96h777.275v1474.76H13381.2z"/>
  <path d="M13631.1 9288.38v1481.96" style="fill:none;fill-rule:nonzero;stroke:#231f20;stroke-width:36.13px;stroke-linecap:butt;stroke-miterlimit:10"/>
  <path d="M13908.5 9288.38v1481.96" style="fill:none;fill-rule:nonzero;stroke:#231f20;stroke-width:36.13px;stroke-linecap:butt;stroke-miterlimit:10"/>
  <path d="M14166.6 9646.5h-793.437" style="fill:none;fill-rule:nonzero;stroke:#231f20;stroke-width:36.13px;stroke-linecap:butt;stroke-miterlimit:10"/>
  <path d="M14166.6 10029.3h-793.437" style="fill:none;fill-rule:nonzero;stroke:#231f20;stroke-width:36.13px;stroke-linecap:butt;stroke-miterlimit:10"/>
  <path d="M14166.6 10412.2h-793.437" style="fill:none;fill-rule:nonzero;stroke:#231f20;stroke-width:36.13px;stroke-linecap:butt;stroke-miterlimit:10"/>
  <path style="fill:#fff;stroke:#231f20;stroke-width:36.13px;stroke-linecap:butt;stroke-miterlimit:10" d="M12720.5 9291.96h461.508v1474.76H12720.5z"/>
  <path d="M13193 9646.5h-468.575" style="fill:none;fill-rule:nonzero;stroke:#231f20;stroke-width:36.13px;stroke-linecap:butt;stroke-miterlimit:10"/>
  <path d="M13193 10029.3h-468.575" style="fill:none;fill-rule:nonzero;stroke:#231f20;stroke-width:36.13px;stroke-linecap:butt;stroke-miterlimit:10"/>
  <path d="M13193 10412.2h-468.575" style="fill:none;fill-rule:nonzero;stroke:#231f20;stroke-width:36.13px;stroke-linecap:butt;stroke-miterlimit:10"/>
  <path d="M12958.8 9288.38v1481.96" style="fill:none;fill-rule:nonzero;stroke:#231f20;stroke-width:36.13px;stroke-linecap:butt;stroke-miterlimit:10"/>
  <path style="fill:#fff;stroke:#231f20;stroke-width:36.13px;stroke-linecap:butt;stroke-miterlimit:10" d="M14346.6 9291.96h461.508v1474.76H14346.6z"/>
  <path d="M14819.1 9646.5h-468.558" style="fill:none;fill-rule:nonzero;stroke:#231f20;stroke-width:36.13px;stroke-linecap:butt;stroke-miterlimit:10"/>
  <path d="M14819.1 10029.3h-468.558" style="fill:none;fill-rule:nonzero;stroke:#231f20;stroke-width:36.13px;stroke-linecap:butt;stroke-miterlimit:10"/>
  <path d="M14819.1 10412.2h-468.558" style="fill:none;fill-rule:nonzero;stroke:#231f20;stroke-width:36.13px;stroke-linecap:butt;stroke-miterlimit:10"/>
  <path d="M14584.9 9288.38v1481.96" style="fill:none;fill-rule:nonzero;stroke:#231f20;stroke-width:36.13px;stroke-linecap:butt;stroke-miterlimit:10"/>
  <path style="fill:#fff;stroke:#231f20;stroke-width:36.13px;stroke-linecap:butt;stroke-miterlimit:10" d="M13381.2 5048.46h777.275v707.396H13381.2z"/>
  <path d="M13631.1 5044.88v686.788" style="fill:none;fill-rule:nonzero;stroke:#231f20;stroke-width:36.13px;stroke-linecap:butt;stroke-miterlimit:10"/>
  <path d="M13908.5 5044.88v686.788" style="fill:none;fill-rule:nonzero;stroke:#231f20;stroke-width:36.13px;stroke-linecap:butt;stroke-miterlimit:10"/>
  <path d="M14166.6 5403.04h-793.437" style="fill:none;fill-rule:nonzero;stroke:#231f20;stroke-width:36.13px;stroke-linecap:butt;stroke-miterlimit:10"/>
  <path style="fill:#fff;stroke:#231f20;stroke-width:36.13px;stroke-linecap:butt;stroke-miterlimit:10" d="M12720.5 5048.46h461.508v707.396H12720.5z"/>
  <path d="M13193 5403.04h-468.575" style="fill:none;fill-rule:nonzero;stroke:#231f20;stroke-width:36.13px;stroke-linecap:butt;stroke-miterlimit:10"/>
  <path d="M12958.8 5044.88v686.788" style="fill:none;fill-rule:nonzero;stroke:#231f20;stroke-width:36.13px;stroke-linecap:butt;stroke-miterlimit:10"/>
  <path style="fill:#fff;stroke:#231f20;stroke-width:36.13px;stroke-linecap:butt;stroke-miterlimit:10" d="M10024.4 5048.46h461.508v707.396H10024.4z"/>
  <path d="M10496.9 5403.04h-468.609" style="fill:none;fill-rule:nonzero;stroke:#231f20;stroke-width:36.13px;stroke-linecap:butt;stroke-miterlimit:10"/>
  <path d="M10262.6 5044.88v722.95" style="fill:none;fill-rule:nonzero;stroke:#231f20;stroke-width:36.13px;stroke-linecap:butt;stroke-miterlimit:10"/>
  <path style="fill:#fff;stroke:#231f20;stroke-width:36.13px;stroke-linecap:butt;stroke-miterlimit:10" d="M14346.6 5048.46h461.508v707.396H14346.6z"/>
  <path d="M14819.1 5403.04h-468.558" style="fill:none;fill-rule:nonzero;stroke:#231f20;stroke-width:36.13px;stroke-linecap:butt;stroke-miterlimit:10"/>
  <path d="M14584.9 5044.88v686.788" style="fill:none;fill-rule:nonzero;stroke:#231f20;stroke-width:36.13px;stroke-linecap:butt;stroke-miterlimit:10"/>
  <path style="fill:#fff;stroke:#231f20;stroke-width:36.13px;stroke-linecap:butt;stroke-miterlimit:10" d="M7607.71 5048.46h777.308v707.396H7607.71z"/>
  <path d="M7857.71 5044.88v686.788" style="fill:none;fill-rule:nonzero;stroke:#231f20;stroke-width:36.13px;stroke-linecap:butt;stroke-miterlimit:10"/>
  <path d="M8135.08 5044.88v686.788" style="fill:none;fill-rule:nonzero;stroke:#231f20;stroke-width:36.13px;stroke-linecap:butt;stroke-miterlimit:10"/>
  <path d="M8393.12 5403.04h-793.438" style="fill:none;fill-rule:nonzero;stroke:#231f20;stroke-width:36.13px;stroke-linecap:butt;stroke-miterlimit:10"/>
  <path style="fill:#fff;stroke:#231f20;stroke-width:36.13px;stroke-linecap:butt;stroke-miterlimit:10" d="M7220.79 5048.46h223.317v707.396H7220.79z"/>
  <path d="M7455.12 5403.04h-237.567" style="fill:none;fill-rule:nonzero;stroke:#231f20;stroke-width:36.13px;stroke-linecap:butt;stroke-miterlimit:10"/>
  <path style="fill:#fff;stroke:#231f20;stroke-width:36.13px;stroke-linecap:butt;stroke-miterlimit:10" d="M8540.88 5048.46h223.263v707.396H8540.88z"/>
  <path d="M8775.21 5403.04h-237.516" style="fill:none;fill-rule:nonzero;stroke:#231f20;stroke-width:36.13px;stroke-linecap:butt;stroke-miterlimit:10"/>
  <path style="fill:#fff;stroke:#231f20;stroke-width:36.13px;stroke-linecap:butt;stroke-miterlimit:10" d="M13381.2 6914.12h777.275v1765.62H13381.2z"/>
  <path d="M13631.1 6909.83v1774.24" style="fill:none;fill-rule:nonzero;stroke:#231f20;stroke-width:36.13px;stroke-linecap:butt;stroke-miterlimit:10"/>
  <path d="M13908.5 6909.83v1774.24" style="fill:none;fill-rule:nonzero;stroke:#231f20;stroke-width:36.13px;stroke-linecap:butt;stroke-miterlimit:10"/>
  <path d="M14166.6 7338.62h-793.437" style="fill:none;fill-rule:nonzero;stroke:#231f20;stroke-width:36.13px;stroke-linecap:butt;stroke-miterlimit:10"/>
  <path d="M14166.6 7796.92h-793.437" style="fill:none;fill-rule:nonzero;stroke:#231f20;stroke-width:36.13px;stroke-linecap:butt;stroke-miterlimit:10"/>
  <path d="M14166.6 8255.25h-793.437" style="fill:none;fill-rule:nonzero;stroke:#231f20;stroke-width:36.13px;stroke-linecap:butt;stroke-miterlimit:10"/>
  <path style="fill:#fff;stroke:#231f20;stroke-width:36.13px;stroke-linecap:butt;stroke-miterlimit:10" d="M12720.5 6914.12h461.508v1765.62H12720.5z"/>
  <path d="M13193 7338.62h-468.575" style="fill:none;fill-rule:nonzero;stroke:#231f20;stroke-width:36.13px;stroke-linecap:butt;stroke-miterlimit:10"/>
  <path d="M13193 7796.92h-468.575" style="fill:none;fill-rule:nonzero;stroke:#231f20;stroke-width:36.13px;stroke-linecap:butt;stroke-miterlimit:10"/>
  <path d="M13193 8255.25h-468.575" style="fill:none;fill-rule:nonzero;stroke:#231f20;stroke-width:36.13px;stroke-linecap:butt;stroke-miterlimit:10"/>
  <path d="M12958.8 6909.83v1774.24" style="fill:none;fill-rule:nonzero;stroke:#231f20;stroke-width:36.13px;stroke-linecap:butt;stroke-miterlimit:10"/>
  <path style="fill:#fff;stroke:#231f20;stroke-width:36.13px;stroke-linecap:butt;stroke-miterlimit:10" d="M14346.6 6914.12h461.508v1765.62H14346.6z"/>
  <path d="M14819.1 7338.62h-468.558" style="fill:none;fill-rule:nonzero;stroke:#231f20;stroke-width:36.13px;stroke-linecap:butt;stroke-miterlimit:10"/>
  <path d="M14819.1 7796.92h-468.558" style="fill:none;fill-rule:nonzero;stroke:#231f20;stroke-width:36.13px;stroke-linecap:butt;stroke-miterlimit:10"/>
  <path d="M14819.1 8255.25h-468.558" style="fill:none;fill-rule:nonzero;stroke:#231f20;stroke-width:36.13px;stroke-linecap:butt;stroke-miterlimit:10"/>
  <path d="M14584.9 6909.83v1774.24" style="fill:none;fill-rule:nonzero;stroke:#231f20;stroke-width:36.13px;stroke-linecap:butt;stroke-miterlimit:10"/>
  <path style="fill:#fff;stroke:#231f20;stroke-width:36.13px;stroke-linecap:butt;stroke-miterlimit:10" d="M10029.2 6914.08h526.146v1341.15H10029.2z"/>
  <path d="M10279.2 6909.83V8264" style="fill:none;fill-rule:nonzero;stroke:#231f20;stroke-width:36.13px;stroke-linecap:butt;stroke-miterlimit:10"/>
  <path d="M10563.4 7338.62h-542.208" style="fill:none;fill-rule:nonzero;stroke:#231f20;stroke-width:36.13px;stroke-linecap:butt;stroke-miterlimit:10"/>
  <path d="M10563.4 7796.92h-542.208" style="fill:none;fill-rule:nonzero;stroke:#231f20;stroke-width:36.13px;stroke-linecap:butt;stroke-miterlimit:10"/>
  <path style="fill:#fff;stroke:#231f20;stroke-width:36.13px;stroke-linecap:butt;stroke-miterlimit:10" d="M7607.71 9368.29h777.308v1341.15H7607.71z"/>
  <path d="M7857.71 9364v1354.17" style="fill:none;fill-rule:nonzero;stroke:#231f20;stroke-width:36.13px;stroke-linecap:butt;stroke-miterlimit:10"/>
  <path d="M8135.08 9364v1354.17" style="fill:none;fill-rule:nonzero;stroke:#231f20;stroke-width:36.13px;stroke-linecap:butt;stroke-miterlimit:10"/>
  <path d="M8393.12 9792.75h-793.438" style="fill:none;fill-rule:nonzero;stroke:#231f20;stroke-width:36.13px;stroke-linecap:butt;stroke-miterlimit:10"/>
  <path d="M8393.12 10251.1h-793.438" style="fill:none;fill-rule:nonzero;stroke:#231f20;stroke-width:36.13px;stroke-linecap:butt;stroke-miterlimit:10"/>
  <path style="fill:#fff;stroke:#231f20;stroke-width:36.13px;stroke-linecap:butt;stroke-miterlimit:10" d="M7197.58 9368.25h226.563v1341.91H7197.58z"/>
  <path d="M7435.08 9792.75h-237.516" style="fill:none;fill-rule:nonzero;stroke:#231f20;stroke-width:36.13px;stroke-linecap:butt;stroke-miterlimit:10"/>
  <path d="M7435.08 10251.1h-237.516" style="fill:none;fill-rule:nonzero;stroke:#231f20;stroke-width:36.13px;stroke-linecap:butt;stroke-miterlimit:10"/>
  <path style="fill:#fff;stroke:#231f20;stroke-width:36.13px;stroke-linecap:butt;stroke-miterlimit:10" d="M8557.62 9368.25h226.563v1341.91H8557.62z"/>
  <path d="M8795.21 9792.75h-237.55" style="fill:none;fill-rule:nonzero;stroke:#231f20;stroke-width:36.13px;stroke-linecap:butt;stroke-miterlimit:10"/>
  <path d="M8795.21 10251.1h-237.55" style="fill:none;fill-rule:nonzero;stroke:#231f20;stroke-width:36.13px;stroke-linecap:butt;stroke-miterlimit:10"/>
  <path style="fill:#fff;stroke:#231f20;stroke-width:36.13px;stroke-linecap:butt;stroke-miterlimit:10" d="M7607.71 6914.08h777.308v1341.15H7607.71z"/>
  <path d="M7857.71 6909.83V8264" style="fill:none;fill-rule:nonzero;stroke:#231f20;stroke-width:36.13px;stroke-linecap:butt;stroke-miterlimit:10"/>
  <path d="M8135.08 6909.83V8264" style="fill:none;fill-rule:nonzero;stroke:#231f20;stroke-width:36.13px;stroke-linecap:butt;stroke-miterlimit:10"/>
  <path d="M8393.12 7338.62h-793.438" style="fill:none;fill-rule:nonzero;stroke:#231f20;stroke-width:36.13px;stroke-linecap:butt;stroke-miterlimit:10"/>
  <path d="M8393.12 7796.92h-793.438" style="fill:none;fill-rule:nonzero;stroke:#231f20;stroke-width:36.13px;stroke-linecap:butt;stroke-miterlimit:10"/>
  <path style="fill:#fff;stroke:#231f20;stroke-width:36.13px;stroke-linecap:butt;stroke-miterlimit:10" d="M7197.58 6914.08h226.563v1341.95H7197.58z"/>
  <path d="M7398.92 7338.62h-201.355" style="fill:none;fill-rule:nonzero;stroke:#231f20;stroke-width:36.13px;stroke-linecap:butt;stroke-miterlimit:10"/>
  <path d="M7398.92 7796.92h-201.355" style="fill:none;fill-rule:nonzero;stroke:#231f20;stroke-width:36.13px;stroke-linecap:butt;stroke-miterlimit:10"/>
  <path style="fill:#fff;stroke:#231f20;stroke-width:36.13px;stroke-linecap:butt;stroke-miterlimit:10" d="M8557.62 6914.08h226.563v1341.95H8557.62z"/>
  <path d="M8795.21 7338.62h-237.55" style="fill:none;fill-rule:nonzero;stroke:#231f20;stroke-width:36.13px;stroke-linecap:butt;stroke-miterlimit:10"/>
  <path d="M8795.21 7796.92h-237.55" style="fill:none;fill-rule:nonzero;stroke:#231f20;stroke-width:36.13px;stroke-linecap:butt;stroke-miterlimit:10"/>
  <path d="M15789.7 6907.92c-155.762 0-281.995 126.266-281.995 282.05v1254.05l564.008-.001v-1254.05c0-155.784-126.233-282.05-282.013-282.05" style="fill:#fff;fill-rule:nonzero"/>
  <path d="M15789.7 6907.92c-155.762 0-281.995 126.266-281.995 282.05v1254.05l564.008-.001v-1254.05c0-155.784-126.233-282.05-282.013-282.05Z" style="fill:none;fill-rule:nonzero;stroke:#231f20;stroke-width:36.13px;stroke-linecap:butt;stroke-miterlimit:10"/>
  <path d="M11577.4 6907.92c-155.729 0-281.996 126.266-281.996 282.05v1254.05l564.046-.001v-1254.05c0-155.784-126.267-282.05-282.05-282.05" style="fill:#fff;fill-rule:nonzero"/>
  <path d="M11577.4 6907.92c-155.729 0-281.996 126.266-281.996 282.05v1254.05l564.046-.001v-1254.05c0-155.784-126.267-282.05-282.05-282.05Z" style="fill:none;fill-rule:nonzero;stroke:#231f20;stroke-width:36.13px;stroke-linecap:butt;stroke-miterlimit:10"/>
  <path style="fill:#fff;stroke:#231f20;stroke-width:36.13px;stroke-linecap:butt;stroke-miterlimit:10" d="M15507.7 9266.04h564.013v1536.1H15507.7z"/>
  <path style="fill:#fff;stroke:#231f20;stroke-width:36.13px;stroke-linecap:butt;stroke-miterlimit:10" d="M11295.4 9266.04h564.063v1536.1H11295.4z"/>
  <path style="fill:#fff;stroke:#231f20;stroke-width:36.13px;stroke-linecap:butt;stroke-miterlimit:10" d="M11295.4 5011.79h564.063v882.083H11295.4z"/>
  <path style="fill:#fff;stroke:#231f20;stroke-width:36.46px;stroke-linecap:butt;stroke-miterlimit:10" d="M1682.78 4054.29h4017.69v2315.43H1682.78z"/>
  <path style="fill:#fff;stroke:#231f20;stroke-width:36.46px;stroke-linecap:butt;stroke-miterlimit:10" d="M1682.78 6492.83h4017.69v2325.03H1682.78z"/>
  <path style="fill:#fff;stroke:#231f20;stroke-width:35.21px;stroke-linecap:butt;stroke-miterlimit:10" d="M1682.78 8941h4017.69v1520.97H1682.78z"/>
  <path style="fill:#fff;stroke:#231f20;stroke-width:36.13px;stroke-linecap:butt;stroke-miterlimit:10" d="M3263.04 9038.08h777.308v1341.15H3263.04z"/>
  <path d="M3513 9033.79v1354.17" style="fill:none;fill-rule:nonzero;stroke:#231f20;stroke-width:36.13px;stroke-linecap:butt;stroke-miterlimit:10"/>
  <path d="M3790.38 9033.79v1354.17" style="fill:none;fill-rule:nonzero;stroke:#231f20;stroke-width:36.13px;stroke-linecap:butt;stroke-miterlimit:10"/>
  <path d="M4048.42 9462.54h-793.454" style="fill:none;fill-rule:nonzero;stroke:#231f20;stroke-width:36.13px;stroke-linecap:butt;stroke-miterlimit:10"/>
  <path d="M4048.42 9920.92h-793.454" style="fill:none;fill-rule:nonzero;stroke:#231f20;stroke-width:36.13px;stroke-linecap:butt;stroke-miterlimit:10"/>
  <path style="fill:#fff;stroke:#231f20;stroke-width:36.13px;stroke-linecap:butt;stroke-miterlimit:10" d="M2852.85 9038.04h226.529v1341.91H2852.85z"/>
  <path d="M3090.4 9462.54h-237.517" style="fill:none;fill-rule:nonzero;stroke:#231f20;stroke-width:36.13px;stroke-linecap:butt;stroke-miterlimit:10"/>
  <path d="M3090.4 9920.88h-237.517" style="fill:none;fill-rule:nonzero;stroke:#231f20;stroke-width:36.13px;stroke-linecap:butt;stroke-miterlimit:10"/>
  <path style="fill:#fff;stroke:#231f20;stroke-width:36.13px;stroke-linecap:butt;stroke-miterlimit:10" d="M4212.96 9038.04h226.529v1341.91H4212.96z"/>
  <path d="M4450.5 9462.54h-237.517" style="fill:none;fill-rule:nonzero;stroke:#231f20;stroke-width:36.13px;stroke-linecap:butt;stroke-miterlimit:10"/>
  <path d="M4450.5 9920.88h-237.517" style="fill:none;fill-rule:nonzero;stroke:#231f20;stroke-width:36.13px;stroke-linecap:butt;stroke-miterlimit:10"/>
  <path style="fill:#fff;stroke:#231f20;stroke-width:36.13px;stroke-linecap:butt;stroke-miterlimit:10" d="M3263.04 6722.42h777.308v1341.15H3263.04z"/>
  <path d="M3513 6718.12v1354.17" style="fill:none;fill-rule:nonzero;stroke:#231f20;stroke-width:36.13px;stroke-linecap:butt;stroke-miterlimit:10"/>
  <path d="M3790.38 6718.12v1354.17" style="fill:none;fill-rule:nonzero;stroke:#231f20;stroke-width:36.13px;stroke-linecap:butt;stroke-miterlimit:10"/>
  <path d="M4048.42 7146.92h-793.454" style="fill:none;fill-rule:nonzero;stroke:#231f20;stroke-width:36.13px;stroke-linecap:butt;stroke-miterlimit:10"/>
  <path d="M4048.42 7605.25h-793.454" style="fill:none;fill-rule:nonzero;stroke:#231f20;stroke-width:36.13px;stroke-linecap:butt;stroke-miterlimit:10"/>
  <path style="fill:#fff;stroke:#231f20;stroke-width:36.13px;stroke-linecap:butt;stroke-miterlimit:10" d="M2852.85 6722.42h226.529v1341.95H2852.85z"/>
  <path d="M3090.4 7146.92h-237.517" style="fill:none;fill-rule:nonzero;stroke:#231f20;stroke-width:36.13px;stroke-linecap:butt;stroke-miterlimit:10"/>
  <path d="M3090.4 7605.25h-237.517" style="fill:none;fill-rule:nonzero;stroke:#231f20;stroke-width:36.13px;stroke-linecap:butt;stroke-miterlimit:10"/>
  <path style="fill:#fff;stroke:#231f20;stroke-width:36.13px;stroke-linecap:butt;stroke-miterlimit:10" d="M4212.96 6722.42h226.529v1341.95H4212.96z"/>
  <path d="M4450.5 7146.92h-237.517" style="fill:none;fill-rule:nonzero;stroke:#231f20;stroke-width:36.13px;stroke-linecap:butt;stroke-miterlimit:10"/>
  <path d="M4450.5 7605.25h-237.517" style="fill:none;fill-rule:nonzero;stroke:#231f20;stroke-width:36.13px;stroke-linecap:butt;stroke-miterlimit:10"/>
  <path style="fill:#fff;stroke:#231f20;stroke-width:36.13px;stroke-linecap:butt;stroke-miterlimit:10" d="M2529.9 8069.58h2232.14v474.029H2529.9z"/>
  <path d="M2652.62 8543.62v-474.046" style="fill:none;fill-rule:nonzero;stroke:#231f20;stroke-width:36.13px;stroke-linecap:butt;stroke-miterlimit:10"/>
  <path d="M2785.07 8543.62v-474.046" style="fill:none;fill-rule:nonzero;stroke:#231f20;stroke-width:36.13px;stroke-linecap:butt;stroke-miterlimit:10"/>
  <path d="M2917.52 8543.62v-474.046" style="fill:none;fill-rule:nonzero;stroke:#231f20;stroke-width:36.13px;stroke-linecap:butt;stroke-miterlimit:10"/>
  <path d="M3049.93 8543.62v-474.046" style="fill:none;fill-rule:nonzero;stroke:#231f20;stroke-width:36.13px;stroke-linecap:butt;stroke-miterlimit:10"/>
  <path d="M3182.38 8543.62v-474.046" style="fill:none;fill-rule:nonzero;stroke:#231f20;stroke-width:36.13px;stroke-linecap:butt;stroke-miterlimit:10"/>
  <path d="M3314.83 8543.62v-474.046" style="fill:none;fill-rule:nonzero;stroke:#231f20;stroke-width:36.13px;stroke-linecap:butt;stroke-miterlimit:10"/>
  <path d="M3447.29 8543.62v-474.046" style="fill:none;fill-rule:nonzero;stroke:#231f20;stroke-width:36.13px;stroke-linecap:butt;stroke-miterlimit:10"/>
  <path d="M3579.78 8543.62v-474.046" style="fill:none;fill-rule:nonzero;stroke:#231f20;stroke-width:36.13px;stroke-linecap:butt;stroke-miterlimit:10"/>
  <path d="M3712.22 8543.62v-474.046" style="fill:none;fill-rule:nonzero;stroke:#231f20;stroke-width:36.13px;stroke-linecap:butt;stroke-miterlimit:10"/>
  <path d="M3844.67 8543.62v-474.046" style="fill:none;fill-rule:nonzero;stroke:#231f20;stroke-width:36.13px;stroke-linecap:butt;stroke-miterlimit:10"/>
  <path d="M3977.08 8543.62v-474.046" style="fill:none;fill-rule:nonzero;stroke:#231f20;stroke-width:36.13px;stroke-linecap:butt;stroke-miterlimit:10"/>
  <path d="M4109.53 8543.62v-474.046" style="fill:none;fill-rule:nonzero;stroke:#231f20;stroke-width:36.13px;stroke-linecap:butt;stroke-miterlimit:10"/>
  <path d="M4242 8543.62v-474.046" style="fill:none;fill-rule:nonzero;stroke:#231f20;stroke-width:36.13px;stroke-linecap:butt;stroke-miterlimit:10"/>
  <path d="M4374.46 8543.62v-474.046" style="fill:none;fill-rule:nonzero;stroke:#231f20;stroke-width:36.13px;stroke-linecap:butt;stroke-miterlimit:10"/>
  <path d="M4506.88 8543.62v-474.046" style="fill:none;fill-rule:nonzero;stroke:#231f20;stroke-width:36.13px;stroke-linecap:butt;stroke-miterlimit:10"/>
  <path d="M4639.29 8543.62v-474.046" style="fill:none;fill-rule:nonzero;stroke:#231f20;stroke-width:36.13px;stroke-linecap:butt;stroke-miterlimit:10"/>
  <path style="fill:#fff;stroke:#231f20;stroke-width:36.13px;stroke-linecap:butt;stroke-miterlimit:10" d="M3382.29 4547.08h777.308v707.396H3382.29z"/>
  <path d="M3632.26 4543.5v686.788" style="fill:none;fill-rule:nonzero;stroke:#231f20;stroke-width:36.13px;stroke-linecap:butt;stroke-miterlimit:10"/>
  <path d="M3909.64 4543.5v686.788" style="fill:none;fill-rule:nonzero;stroke:#231f20;stroke-width:36.13px;stroke-linecap:butt;stroke-miterlimit:10"/>
  <path d="M4167.62 4901.71h-793.437" style="fill:none;fill-rule:nonzero;stroke:#231f20;stroke-width:36.13px;stroke-linecap:butt;stroke-miterlimit:10"/>
  <path style="fill:#fff;stroke:#231f20;stroke-width:36.13px;stroke-linecap:butt;stroke-miterlimit:10" d="M1466.77 11018.2h2232.14v473.992H1466.77z"/>
  <path d="M1589.5 11492.2v-473.992" style="fill:none;fill-rule:nonzero;stroke:#231f20;stroke-width:36.13px;stroke-linecap:butt;stroke-miterlimit:10"/>
  <path d="M1721.95 11492.2v-473.992" style="fill:none;fill-rule:nonzero;stroke:#231f20;stroke-width:36.13px;stroke-linecap:butt;stroke-miterlimit:10"/>
  <path d="M1854.36 11492.2v-473.992" style="fill:none;fill-rule:nonzero;stroke:#231f20;stroke-width:36.13px;stroke-linecap:butt;stroke-miterlimit:10"/>
  <path d="M1986.83 11492.2v-473.992" style="fill:none;fill-rule:nonzero;stroke:#231f20;stroke-width:36.13px;stroke-linecap:butt;stroke-miterlimit:10"/>
  <path d="M2119.27 11492.2v-473.992" style="fill:none;fill-rule:nonzero;stroke:#231f20;stroke-width:36.13px;stroke-linecap:butt;stroke-miterlimit:10"/>
  <path d="M2251.75 11492.2v-473.992" style="fill:none;fill-rule:nonzero;stroke:#231f20;stroke-width:36.13px;stroke-linecap:butt;stroke-miterlimit:10"/>
  <path d="M2384.2 11492.2v-473.992" style="fill:none;fill-rule:nonzero;stroke:#231f20;stroke-width:36.13px;stroke-linecap:butt;stroke-miterlimit:10"/>
  <path d="M2516.65 11492.2v-473.992" style="fill:none;fill-rule:nonzero;stroke:#231f20;stroke-width:36.13px;stroke-linecap:butt;stroke-miterlimit:10"/>
  <path d="m2649.06 11492.2-.001-473.992" style="fill:none;fill-rule:nonzero;stroke:#231f20;stroke-width:36.13px;stroke-linecap:butt;stroke-miterlimit:10"/>
  <path d="M2781.53 11492.2v-473.992" style="fill:none;fill-rule:nonzero;stroke:#231f20;stroke-width:36.13px;stroke-linecap:butt;stroke-miterlimit:10"/>
  <path d="M2913.97 11492.2v-473.992" style="fill:none;fill-rule:nonzero;stroke:#231f20;stroke-width:36.13px;stroke-linecap:butt;stroke-miterlimit:10"/>
  <path d="M3046.43 11492.2v-473.992" style="fill:none;fill-rule:nonzero;stroke:#231f20;stroke-width:36.13px;stroke-linecap:butt;stroke-miterlimit:10"/>
  <path d="M3178.87 11492.2v-473.992" style="fill:none;fill-rule:nonzero;stroke:#231f20;stroke-width:36.13px;stroke-linecap:butt;stroke-miterlimit:10"/>
  <path d="M3311.32 11492.2v-473.992" style="fill:none;fill-rule:nonzero;stroke:#231f20;stroke-width:36.13px;stroke-linecap:butt;stroke-miterlimit:10"/>
  <path d="M3443.77 11492.2v-473.992" style="fill:none;fill-rule:nonzero;stroke:#231f20;stroke-width:36.13px;stroke-linecap:butt;stroke-miterlimit:10"/>
  <path d="M3576.23 11492.2v-473.992" style="fill:none;fill-rule:nonzero;stroke:#231f20;stroke-width:36.13px;stroke-linecap:butt;stroke-miterlimit:10"/>
  <path style="fill:#fff;stroke:#231f20;stroke-width:36.13px;stroke-linecap:butt;stroke-miterlimit:10" d="M3698.91 11018.2h2232.14v473.992H3698.91z"/>
  <path d="M3821.63 11492.2v-473.992" style="fill:none;fill-rule:nonzero;stroke:#231f20;stroke-width:36.13px;stroke-linecap:butt;stroke-miterlimit:10"/>
  <path d="M3954.08 11492.2v-473.992" style="fill:none;fill-rule:nonzero;stroke:#231f20;stroke-width:36.13px;stroke-linecap:butt;stroke-miterlimit:10"/>
  <path d="M4086.53 11492.2v-473.992" style="fill:none;fill-rule:nonzero;stroke:#231f20;stroke-width:36.13px;stroke-linecap:butt;stroke-miterlimit:10"/>
  <path d="M4219 11492.2v-473.992" style="fill:none;fill-rule:nonzero;stroke:#231f20;stroke-width:36.13px;stroke-linecap:butt;stroke-miterlimit:10"/>
  <path d="M4351.42 11492.2v-473.992" style="fill:none;fill-rule:nonzero;stroke:#231f20;stroke-width:36.13px;stroke-linecap:butt;stroke-miterlimit:10"/>
  <path d="m4483.88 11492.2-.033-473.992" style="fill:none;fill-rule:nonzero;stroke:#231f20;stroke-width:36.13px;stroke-linecap:butt;stroke-miterlimit:10"/>
  <path d="M4616.33 11492.2v-473.992" style="fill:none;fill-rule:nonzero;stroke:#231f20;stroke-width:36.13px;stroke-linecap:butt;stroke-miterlimit:10"/>
  <path d="M4748.79 11492.2v-473.992" style="fill:none;fill-rule:nonzero;stroke:#231f20;stroke-width:36.13px;stroke-linecap:butt;stroke-miterlimit:10"/>
  <path d="M4881.25 11492.2v-473.992" style="fill:none;fill-rule:nonzero;stroke:#231f20;stroke-width:36.13px;stroke-linecap:butt;stroke-miterlimit:10"/>
  <path d="M5013.67 11492.2v-473.992" style="fill:none;fill-rule:nonzero;stroke:#231f20;stroke-width:36.13px;stroke-linecap:butt;stroke-miterlimit:10"/>
  <path d="M5146.12 11492.2v-473.992" style="fill:none;fill-rule:nonzero;stroke:#231f20;stroke-width:36.13px;stroke-linecap:butt;stroke-miterlimit:10"/>
  <path d="M5278.54 11492.2v-473.992" style="fill:none;fill-rule:nonzero;stroke:#231f20;stroke-width:36.13px;stroke-linecap:butt;stroke-miterlimit:10"/>
  <path d="M5411 11492.2v-473.992" style="fill:none;fill-rule:nonzero;stroke:#231f20;stroke-width:36.13px;stroke-linecap:butt;stroke-miterlimit:10"/>
  <path d="M5543.46 11492.2v-473.992" style="fill:none;fill-rule:nonzero;stroke:#231f20;stroke-width:36.13px;stroke-linecap:butt;stroke-miterlimit:10"/>
  <path d="m5675.96 11492.2-.033-473.992" style="fill:none;fill-rule:nonzero;stroke:#231f20;stroke-width:36.13px;stroke-linecap:butt;stroke-miterlimit:10"/>
  <path d="M5808.33 11492.2v-473.992" style="fill:none;fill-rule:nonzero;stroke:#231f20;stroke-width:36.13px;stroke-linecap:butt;stroke-miterlimit:10"/>
  <path style="fill:#fff;stroke:#231f20;stroke-width:36.13px;stroke-linecap:butt;stroke-miterlimit:10" d="M6705.12 11018.2h2249.9v473.992h-2249.9z"/>
  <path d="M6828.83 11492.2v-473.992" style="fill:none;fill-rule:nonzero;stroke:#231f20;stroke-width:36.13px;stroke-linecap:butt;stroke-miterlimit:10"/>
  <path d="M6962.29 11492.2v-473.992" style="fill:none;fill-rule:nonzero;stroke:#231f20;stroke-width:36.13px;stroke-linecap:butt;stroke-miterlimit:10"/>
  <path d="M7095.79 11492.2v-473.992" style="fill:none;fill-rule:nonzero;stroke:#231f20;stroke-width:36.13px;stroke-linecap:butt;stroke-miterlimit:10"/>
  <path d="M7229.29 11492.2v-473.992" style="fill:none;fill-rule:nonzero;stroke:#231f20;stroke-width:36.13px;stroke-linecap:butt;stroke-miterlimit:10"/>
  <path d="M7362.79 11492.2v-473.992" style="fill:none;fill-rule:nonzero;stroke:#231f20;stroke-width:36.13px;stroke-linecap:butt;stroke-miterlimit:10"/>
  <path d="M7496.33 11492.2v-473.992" style="fill:none;fill-rule:nonzero;stroke:#231f20;stroke-width:36.13px;stroke-linecap:butt;stroke-miterlimit:10"/>
  <path d="M7629.79 11492.2v-473.992" style="fill:none;fill-rule:nonzero;stroke:#231f20;stroke-width:36.13px;stroke-linecap:butt;stroke-miterlimit:10"/>
  <path d="M7763.29 11492.2v-473.992" style="fill:none;fill-rule:nonzero;stroke:#231f20;stroke-width:36.13px;stroke-linecap:butt;stroke-miterlimit:10"/>
  <path d="M7896.83 11492.2v-473.992" style="fill:none;fill-rule:nonzero;stroke:#231f20;stroke-width:36.13px;stroke-linecap:butt;stroke-miterlimit:10"/>
  <path d="M8030.29 11492.2v-473.992" style="fill:none;fill-rule:nonzero;stroke:#231f20;stroke-width:36.13px;stroke-linecap:butt;stroke-miterlimit:10"/>
  <path d="M8163.83 11492.2v-473.992" style="fill:none;fill-rule:nonzero;stroke:#231f20;stroke-width:36.13px;stroke-linecap:butt;stroke-miterlimit:10"/>
  <path d="M8297.33 11492.2v-473.992" style="fill:none;fill-rule:nonzero;stroke:#231f20;stroke-width:36.13px;stroke-linecap:butt;stroke-miterlimit:10"/>
  <path d="M8430.83 11492.2v-473.992" style="fill:none;fill-rule:nonzero;stroke:#231f20;stroke-width:36.13px;stroke-linecap:butt;stroke-miterlimit:10"/>
  <path d="m8564.33 11492.2-.004-473.992" style="fill:none;fill-rule:nonzero;stroke:#231f20;stroke-width:36.13px;stroke-linecap:butt;stroke-miterlimit:10"/>
  <path d="M8697.79 11492.2v-473.992" style="fill:none;fill-rule:nonzero;stroke:#231f20;stroke-width:36.13px;stroke-linecap:butt;stroke-miterlimit:10"/>
  <path d="M8831.33 11492.2v-473.992" style="fill:none;fill-rule:nonzero;stroke:#231f20;stroke-width:36.13px;stroke-linecap:butt;stroke-miterlimit:10"/>
  <path style="fill:#fff;stroke:#231f20;stroke-width:36.13px;stroke-linecap:butt;stroke-miterlimit:10" d="M8955 11018.2h792.275v473.992H8955z"/>
  <path d="M9078.67 11492.2v-473.992" style="fill:none;fill-rule:nonzero;stroke:#231f20;stroke-width:36.13px;stroke-linecap:butt;stroke-miterlimit:10"/>
  <path d="M9212.21 11492.2v-473.992" style="fill:none;fill-rule:nonzero;stroke:#231f20;stroke-width:36.13px;stroke-linecap:butt;stroke-miterlimit:10"/>
  <path d="m9345.67 11492.2-.004-473.992" style="fill:none;fill-rule:nonzero;stroke:#231f20;stroke-width:36.13px;stroke-linecap:butt;stroke-miterlimit:10"/>
  <path d="M9479.17 11492.2v-473.992" style="fill:none;fill-rule:nonzero;stroke:#231f20;stroke-width:36.13px;stroke-linecap:butt;stroke-miterlimit:10"/>
  <path d="M9612.71 11492.2v-473.992" style="fill:none;fill-rule:nonzero;stroke:#231f20;stroke-width:36.13px;stroke-linecap:butt;stroke-miterlimit:10"/>
  <path d="M9746.21 11492.2v-473.992" style="fill:none;fill-rule:nonzero;stroke:#231f20;stroke-width:36.13px;stroke-linecap:butt;stroke-miterlimit:10"/>
  <path style="fill:#fff;stroke:#231f20;stroke-width:36.13px;stroke-linecap:butt;stroke-miterlimit:10" d="M10971.4 11018.2h2232.17v473.992H10971.4z"/>
  <path d="M11094.1 11492.2v-473.992" style="fill:none;fill-rule:nonzero;stroke:#231f20;stroke-width:36.13px;stroke-linecap:butt;stroke-miterlimit:10"/>
  <path d="M11226.5 11492.2v-473.992" style="fill:none;fill-rule:nonzero;stroke:#231f20;stroke-width:36.13px;stroke-linecap:butt;stroke-miterlimit:10"/>
  <path d="M11359 11492.2v-473.992" style="fill:none;fill-rule:nonzero;stroke:#231f20;stroke-width:36.13px;stroke-linecap:butt;stroke-miterlimit:10"/>
  <path d="M11491.5 11492.2v-473.992" style="fill:none;fill-rule:nonzero;stroke:#231f20;stroke-width:36.13px;stroke-linecap:butt;stroke-miterlimit:10"/>
  <path d="M11623.9 11492.2v-473.992" style="fill:none;fill-rule:nonzero;stroke:#231f20;stroke-width:36.13px;stroke-linecap:butt;stroke-miterlimit:10"/>
  <path d="M11756.4 11492.2v-473.992" style="fill:none;fill-rule:nonzero;stroke:#231f20;stroke-width:36.13px;stroke-linecap:butt;stroke-miterlimit:10"/>
  <path d="M11888.8 11492.2v-473.992" style="fill:none;fill-rule:nonzero;stroke:#231f20;stroke-width:36.13px;stroke-linecap:butt;stroke-miterlimit:10"/>
  <path d="M12021.2 11492.2v-473.992" style="fill:none;fill-rule:nonzero;stroke:#231f20;stroke-width:36.13px;stroke-linecap:butt;stroke-miterlimit:10"/>
  <path d="M12153.7 11492.2v-473.992" style="fill:none;fill-rule:nonzero;stroke:#231f20;stroke-width:36.13px;stroke-linecap:butt;stroke-miterlimit:10"/>
  <path d="M12286.1 11492.2v-473.992" style="fill:none;fill-rule:nonzero;stroke:#231f20;stroke-width:36.13px;stroke-linecap:butt;stroke-miterlimit:10"/>
  <path d="M12418.5 11492.2v-473.992" style="fill:none;fill-rule:nonzero;stroke:#231f20;stroke-width:36.13px;stroke-linecap:butt;stroke-miterlimit:10"/>
  <path d="M12551 11492.2v-473.992" style="fill:none;fill-rule:nonzero;stroke:#231f20;stroke-width:36.13px;stroke-linecap:butt;stroke-miterlimit:10"/>
  <path d="M12683.5 11492.2v-473.992" style="fill:none;fill-rule:nonzero;stroke:#231f20;stroke-width:36.13px;stroke-linecap:butt;stroke-miterlimit:10"/>
  <path d="M12815.9 11492.2v-473.992" style="fill:none;fill-rule:nonzero;stroke:#231f20;stroke-width:36.13px;stroke-linecap:butt;stroke-miterlimit:10"/>
  <path d="M12948.4 11492.2v-473.992" style="fill:none;fill-rule:nonzero;stroke:#231f20;stroke-width:36.13px;stroke-linecap:butt;stroke-miterlimit:10"/>
  <path d="M13080.8 11492.2v-473.992" style="fill:none;fill-rule:nonzero;stroke:#231f20;stroke-width:36.13px;stroke-linecap:butt;stroke-miterlimit:10"/>
  <path style="fill:#fff;stroke:#231f20;stroke-width:36.13px;stroke-linecap:butt;stroke-miterlimit:10" d="M13203.5 11018.2h786.025v473.992H13203.5z"/>
  <path d="M13326.2 11492.2v-473.992" style="fill:none;fill-rule:nonzero;stroke:#231f20;stroke-width:36.13px;stroke-linecap:butt;stroke-miterlimit:10"/>
  <path d="M13458.7 11492.2v-473.992" style="fill:none;fill-rule:nonzero;stroke:#231f20;stroke-width:36.13px;stroke-linecap:butt;stroke-miterlimit:10"/>
  <path d="m13591.1 11492.2-.004-473.992" style="fill:none;fill-rule:nonzero;stroke:#231f20;stroke-width:36.13px;stroke-linecap:butt;stroke-miterlimit:10"/>
  <path d="M13723.5 11492.2v-473.992" style="fill:none;fill-rule:nonzero;stroke:#231f20;stroke-width:36.13px;stroke-linecap:butt;stroke-miterlimit:10"/>
  <path d="M13856 11492.2v-473.992" style="fill:none;fill-rule:nonzero;stroke:#231f20;stroke-width:36.13px;stroke-linecap:butt;stroke-miterlimit:10"/>
  <path d="M13988.5 11492.2v-473.992" style="fill:none;fill-rule:nonzero;stroke:#231f20;stroke-width:36.13px;stroke-linecap:butt;stroke-miterlimit:10"/>
  <path style="fill:#fff;stroke:#231f20;stroke-width:36.13px;stroke-linecap:butt;stroke-miterlimit:10" d="M13983.5 11018.2h2232.14v473.992H13983.5z"/>
  <path d="M14106.3 11492.2v-473.992" style="fill:none;fill-rule:nonzero;stroke:#231f20;stroke-width:36.13px;stroke-linecap:butt;stroke-miterlimit:10"/>
  <path d="M14238.8 11492.2v-473.992" style="fill:none;fill-rule:nonzero;stroke:#231f20;stroke-width:36.13px;stroke-linecap:butt;stroke-miterlimit:10"/>
  <path d="M14371.2 11492.2v-473.992" style="fill:none;fill-rule:nonzero;stroke:#231f20;stroke-width:36.13px;stroke-linecap:butt;stroke-miterlimit:10"/>
  <path d="M14503.6 11492.2v-473.992" style="fill:none;fill-rule:nonzero;stroke:#231f20;stroke-width:36.13px;stroke-linecap:butt;stroke-miterlimit:10"/>
  <path d="M14636 11492.2v-473.992" style="fill:none;fill-rule:nonzero;stroke:#231f20;stroke-width:36.13px;stroke-linecap:butt;stroke-miterlimit:10"/>
  <path d="M14768.5 11492.2v-473.992" style="fill:none;fill-rule:nonzero;stroke:#231f20;stroke-width:36.13px;stroke-linecap:butt;stroke-miterlimit:10"/>
  <path d="M14901 11492.2v-473.992" style="fill:none;fill-rule:nonzero;stroke:#231f20;stroke-width:36.13px;stroke-linecap:butt;stroke-miterlimit:10"/>
  <path d="M15033.4 11492.2v-473.992" style="fill:none;fill-rule:nonzero;stroke:#231f20;stroke-width:36.13px;stroke-linecap:butt;stroke-miterlimit:10"/>
  <path d="M15165.8 11492.2v-473.992" style="fill:none;fill-rule:nonzero;stroke:#231f20;stroke-width:36.13px;stroke-linecap:butt;stroke-miterlimit:10"/>
  <path d="M15298.3 11492.2v-473.992" style="fill:none;fill-rule:nonzero;stroke:#231f20;stroke-width:36.13px;stroke-linecap:butt;stroke-miterlimit:10"/>
  <path d="M15430.8 11492.2v-473.992" style="fill:none;fill-rule:nonzero;stroke:#231f20;stroke-width:36.13px;stroke-linecap:butt;stroke-miterlimit:10"/>
  <path d="M15563.2 11492.2v-473.992" style="fill:none;fill-rule:nonzero;stroke:#231f20;stroke-width:36.13px;stroke-linecap:butt;stroke-miterlimit:10"/>
  <path d="M15695.7 11492.2v-473.992" style="fill:none;fill-rule:nonzero;stroke:#231f20;stroke-width:36.13px;stroke-linecap:butt;stroke-miterlimit:10"/>
  <path d="M15828.1 11492.2v-473.992" style="fill:none;fill-rule:nonzero;stroke:#231f20;stroke-width:36.13px;stroke-linecap:butt;stroke-miterlimit:10"/>
  <path d="M15960.5 11492.2v-473.992" style="fill:none;fill-rule:nonzero;stroke:#231f20;stroke-width:36.13px;stroke-linecap:butt;stroke-miterlimit:10"/>
  <path d="M16093 11492.2v-473.992" style="fill:none;fill-rule:nonzero;stroke:#231f20;stroke-width:36.13px;stroke-linecap:butt;stroke-miterlimit:10"/>
  <path style="fill:#fff;stroke:#231f20;stroke-width:36.13px;stroke-linecap:butt;stroke-miterlimit:10" d="M16215.7 11018.2h402.013v473.992H16215.7z"/>
  <path d="m16338.4 11492.2-.004-473.992" style="fill:none;fill-rule:nonzero;stroke:#231f20;stroke-width:36.13px;stroke-linecap:butt;stroke-miterlimit:10"/>
  <path d="M16470.8 11492.2v-473.992" style="fill:none;fill-rule:nonzero;stroke:#231f20;stroke-width:36.13px;stroke-linecap:butt;stroke-miterlimit:10"/>
  <path d="M16603.3 11492.2v-473.992" style="fill:none;fill-rule:nonzero;stroke:#231f20;stroke-width:36.13px;stroke-linecap:butt;stroke-miterlimit:10"/>
  <path style="fill:#fff;stroke:#231f20;stroke-width:36.13px" d="M10250.8 2975.38h878.942v1184.06H10250.8z"/>
  <path style="fill:#fff;stroke:#231f20;stroke-width:36.13px;stroke-linecap:butt;stroke-miterlimit:10" d="M10425.2 3134.78h530.088v846.65H10425.2z"/>
  <path d="M10690.2 3139.06v842.345" style="fill:none;fill-rule:nonzero;stroke:#231f20;stroke-width:35.75px;stroke-linecap:butt;stroke-miterlimit:10"/>
  <path d="M10963.5 3571.72h-538.262" style="fill:none;fill-rule:nonzero;stroke:#231f20;stroke-width:36.13px;stroke-linecap:butt;stroke-miterlimit:10"/>
  <g>
    <path style="fill:#fff;stroke:#231f20;stroke-width:36.13px" d="M14254.5 2976.7h878.942v1184.06H14254.5z"/>
    <path style="fill:#fff;stroke:#231f20;stroke-width:36.13px;stroke-linecap:butt;stroke-miterlimit:10" d="M14428.9 3136.1h530.087v846.65H14428.9z"/>
    <path d="M14693.9 3140.38v842.342" style="fill:none;fill-rule:nonzero;stroke:#231f20;stroke-width:35.75px;stroke-linecap:butt;stroke-miterlimit:10"/>
    <path d="M14967.1 3573.04h-538.267" style="fill:none;fill-rule:nonzero;stroke:#231f20;stroke-width:36.13px;stroke-linecap:butt;stroke-miterlimit:10"/>
  </g>
  <path style="fill:#fff;stroke:#231f20;stroke-width:36.13px;stroke-linecap:butt;stroke-miterlimit:10" d="M5652.21 9218.12h1325.85v169.879H5652.21z"/>
</svg>